#N canvas 594 218 734 693 10;
#X obj 397 591 notein;
#X floatatom 388 623 5 0 0 0 - - -;
#X text 476 601 56 = G#;
#X obj 260 603 noteout;
#X obj 252 571 makenote 70 500;
#X obj 74 82 metro 250;
#X obj 74 111 tgl 15 0 empty empty empty 17 7 0 10 -262144 -1 -1 0
1;
#X obj 74 137 sel 1;
#X obj 74 54 tgl 15 0 empty empty empty 17 7 0 10 -262144 -1 -1 0 1
;
#X msg 133 30 250;
#X floatatom 132 57 5 0 0 0 - - -;
#X obj 182 29 loadbang;
#X obj 585 304 random 10;
#X obj 585 333 > 4;
#X obj 584 359 sel 0 1;
#X obj 81 321 t b b;
#X obj 108 348 del;
#X obj 123 319 r tempo;
#X obj 155 84 s tempo;
#X obj 201 324 t b b;
#X obj 228 351 del;
#X obj 243 322 r tempo;
#X obj 74 172 f 1;
#X obj 76 201 sel 1 2;
#X obj 78 233 random 100;
#X obj 73 293 bng 15 250 50 0 empty empty empty 17 7 0 10 -262144 -1
-1;
#X msg 95 295 2;
#X obj 127 294 bng 15 250 50 0 empty empty empty 17 7 0 10 -262144
-1 -1;
#X msg 149 296 1;
#X obj 205 232 random 100;
#X obj 200 292 bng 15 250 50 0 empty empty empty 17 7 0 10 -262144
-1 -1;
#X msg 222 294 2;
#X obj 254 293 bng 15 250 50 0 empty empty empty 17 7 0 10 -262144
-1 -1;
#X msg 276 295 1;
#X obj 76 266 moses 60;
#X obj 203 265 moses 33;
#X obj 253 439 sel 1 2 3;
#X msg 439 448 56;
#X msg 447 477 59;
#X msg 461 503 63;
#X obj 252 468 f;
#X obj 262 493 f;
#X obj 272 516 f;
#X msg 74 351 1;
#X msg 82 380 2;
#X msg 196 351 3;
#X msg 205 382 2;
#X obj 444 416 bng 15 250 50 0 empty empty empty 17 7 0 10 -262144
-1 -1;
#X msg 487 447 56;
#X obj 492 415 bng 15 250 50 0 empty empty empty 17 7 0 10 -262144
-1 -1;
#X msg 495 476 61;
#X msg 509 502 64;
#X msg 534 449 56;
#X obj 539 417 bng 15 250 50 0 empty empty empty 17 7 0 10 -262144
-1 -1;
#X msg 542 478 58;
#X msg 556 504 63;
#X obj 120 145 r state1;
#X obj 9 312 s state1;
#X obj 355 191 bng 15 250 50 0 empty empty empty 17 7 0 10 -262144
-1 -1;
#X obj 396 232 f 1;
#X obj 396 264 sel 1 2;
#X obj 447 221 r state2;
#X obj 397 304 random 100;
#X obj 397 333 moses 50;
#X obj 396 358 bng 15 250 50 0 empty empty empty 17 7 0 10 -262144
-1 -1;
#X msg 397 382 2;
#X obj 349 404 s state2;
#X obj 473 303 random 100;
#X obj 473 332 moses 50;
#X obj 472 357 bng 15 250 50 0 empty empty empty 17 7 0 10 -262144
-1 -1;
#X msg 473 381 2;
#X obj 513 355 bng 15 250 50 0 empty empty empty 17 7 0 10 -262144
-1 -1;
#X msg 514 379 1;
#X msg 433 382 1;
#X obj 388 204 del;
#X obj 409 154 r tempo;
#X obj 408 180 * 1.8;
#X obj 272 265 moses 50;
#X obj 80 442 bng 15 250 50 0 empty empty empty 17 7 0 10 -262144 -1
-1;
#X floatatom 79 490 5 0 0 0 - - -;
#X obj 79 463 gaussian 50 5 20;
#X obj 587 397 loadbang;
#X obj 483 23 cnv 15 223 20 empty empty 365.days.of.creative.coding
23 12 1 16 -128992 -257985 0;
#X obj 483 47 cnv 15 223 20 empty empty mrfunkyland 131 12 1 16 -128992
-257985 0;
#X obj 483 71 cnv 15 223 50 empty empty day 135 20 1 50 -128992 -260097
0;
#X obj 483 122 cnv 15 223 40 empty empty eighteen 40 15 1 47 -128992
-257985 0;
#X connect 0 0 1 0;
#X connect 4 0 3 0;
#X connect 4 1 3 1;
#X connect 5 0 6 0;
#X connect 5 0 78 0;
#X connect 6 0 7 0;
#X connect 7 0 22 0;
#X connect 8 0 5 0;
#X connect 9 0 10 0;
#X connect 10 0 5 1;
#X connect 10 0 18 0;
#X connect 11 0 9 0;
#X connect 12 0 13 0;
#X connect 13 0 14 0;
#X connect 15 0 43 0;
#X connect 15 1 16 0;
#X connect 16 0 44 0;
#X connect 17 0 16 1;
#X connect 19 0 45 0;
#X connect 19 1 20 0;
#X connect 20 0 46 0;
#X connect 21 0 20 1;
#X connect 22 0 23 0;
#X connect 23 0 24 0;
#X connect 23 1 29 0;
#X connect 24 0 34 0;
#X connect 25 0 26 0;
#X connect 25 0 15 0;
#X connect 26 0 57 0;
#X connect 27 0 28 0;
#X connect 27 0 15 0;
#X connect 28 0 57 0;
#X connect 29 0 35 0;
#X connect 30 0 31 0;
#X connect 30 0 19 0;
#X connect 31 0 57 0;
#X connect 32 0 33 0;
#X connect 32 0 19 0;
#X connect 33 0 57 0;
#X connect 34 0 25 0;
#X connect 34 1 27 0;
#X connect 35 0 30 0;
#X connect 35 1 77 0;
#X connect 36 0 40 0;
#X connect 36 1 41 0;
#X connect 36 2 42 0;
#X connect 37 0 40 1;
#X connect 38 0 41 1;
#X connect 39 0 42 1;
#X connect 40 0 4 0;
#X connect 41 0 4 0;
#X connect 42 0 4 0;
#X connect 43 0 36 0;
#X connect 44 0 36 0;
#X connect 45 0 36 0;
#X connect 46 0 36 0;
#X connect 47 0 37 0;
#X connect 47 0 38 0;
#X connect 47 0 39 0;
#X connect 48 0 40 1;
#X connect 49 0 48 0;
#X connect 49 0 50 0;
#X connect 49 0 51 0;
#X connect 50 0 41 1;
#X connect 51 0 42 1;
#X connect 52 0 40 1;
#X connect 53 0 52 0;
#X connect 53 0 54 0;
#X connect 53 0 55 0;
#X connect 54 0 41 1;
#X connect 55 0 42 1;
#X connect 56 0 22 1;
#X connect 58 0 74 0;
#X connect 59 0 60 0;
#X connect 60 0 62 0;
#X connect 60 1 67 0;
#X connect 61 0 59 1;
#X connect 62 0 63 0;
#X connect 63 0 64 0;
#X connect 63 1 64 0;
#X connect 63 1 73 0;
#X connect 64 0 65 0;
#X connect 64 0 47 0;
#X connect 65 0 66 0;
#X connect 67 0 68 0;
#X connect 68 0 69 0;
#X connect 68 1 71 0;
#X connect 69 0 70 0;
#X connect 70 0 49 0;
#X connect 71 0 72 0;
#X connect 71 0 53 0;
#X connect 72 0 66 0;
#X connect 74 0 59 0;
#X connect 75 0 76 0;
#X connect 76 0 74 1;
#X connect 77 0 32 0;
#X connect 77 1 32 0;
#X connect 77 1 58 0;
#X connect 78 0 80 0;
#X connect 80 0 79 0;
#X connect 80 0 4 1;
#X connect 81 0 47 0;
