#N canvas 485 188 813 662 10;
#X obj 402 35 spring8 ------------;
#X obj 45 168 osc~;
#X obj 85 168 osc~;
#X obj 125 168 osc~;
#X floatatom 38 1 5 0 0 0 - - -;
#X obj 88 142 * 2;
#X obj 128 142 * 3;
#X obj 44 287 *~;
#X obj 59 214 vsl 15 64 0 0.5 0 0 empty empty empty 0 -9 0 10 -262144
-1 -1 5252 1;
#X obj 84 287 *~;
#X obj 99 214 vsl 15 64 0 0.5 0 0 empty empty empty 0 -9 0 10 -262144
-1 -1 4661 1;
#X obj 124 287 *~;
#X obj 139 214 vsl 15 64 0 0.5 0 0 empty empty empty 0 -9 0 10 -262144
-1 -1 4152 1;
#X obj 60 191 line;
#X obj 100 191 line;
#X obj 140 191 line;
#X obj 435 98 pack 0 20;
#X obj 495 98 pack 0 20;
#X obj 555 98 pack 0 20;
#X floatatom 100 115 5 0 0 0 - - -;
#X floatatom 150 115 5 0 0 0 - - -;
#X obj 103 85 / 30;
#X obj 102 -59 vsl 15 128 0 127 0 0 empty empty empty 0 -9 0 10 -262144
-1 -1 3100 1;
#X obj 141 84 / 30;
#X obj 140 -60 vsl 15 128 0 127 0 0 empty empty empty 0 -9 0 10 -262144
-1 -1 8700 1;
#X obj 141 522 dac~;
#X obj 208 -33 metro 200;
#X obj 208 -10 random 20;
#X obj 208 12 + 50;
#X obj 208 35 mtof;
#X obj 208 -54 tgl 15 0 empty empty empty 17 7 0 10 -262144 -1 -1 1
1;
#X obj 143 437 cos~;
#X obj 143 410 +~;
#X obj 82 337 +~;
#X obj 143 493 *~ 0.16;
#X obj 265 280 vsl 15 128 0 0.25 0 0 empty empty empty 0 -9 0 10 -262144
-1 -1 6374 1;
#X obj 50 377 *~ 0.25;
#X obj 158 352 clip~ -1 1;
#X obj 144 382 +~;
#X obj 186 329 * -1;
#X obj 195 175 vsl 15 128 0 1 0 0 empty empty empty 0 -9 0 10 -262144
-1 -1 4134 1;
#X obj 355 148 t b b;
#X obj 355 170 f 100;
#X msg 355 192 0 \$1;
#X obj 355 214 vline~;
#X obj 355 236 *~;
#X obj 355 258 *~;
#X obj 143 467 *~;
#X msg 396 192 1 0;
#X obj 355 123 bng 15 250 50 0 empty empty empty 17 7 0 10 -262144
-1 -1;
#X floatatom 425 142 5 0 0 0 - - -;
#X obj 90 313 *~;
#X obj 134 314 *~;
#X obj 300 236 sig~;
#X obj 300 258 *~;
#X obj 328 258 *~;
#X obj 270 112 vsl 15 128 0 1 0 0 empty empty empty 0 -9 0 10 -262144
-1 -1 7719 1;
#X obj 316 43 % 4;
#X obj 336 -2 random 3;
#X obj 357 24 + 1;
#X obj 358 47 * 4;
#X obj 317 70 sel 0;
#X obj 317 92 t b b;
#X obj 249 18 f;
#X obj 278 18 + 1;
#X msg 301 0 0;
#X obj 463 1 tgl 15 0 empty empty empty 17 7 0 10 -262144 -1 -1 0 1
;
#X obj 414 -13 sel 0 1;
#X msg 441 17 40;
#X floatatom 398 63 5 0 0 0 - - -;
#X floatatom 439 66 5 0 0 0 - - -;
#X floatatom 481 68 5 0 0 0 - - -;
#X obj 497 166 + 1;
#X obj 530 164 + 2;
#X obj 499 144 * 2;
#X obj 531 141 * 2;
#X floatatom 492 119 5 0 0 0 - - -;
#X floatatom 534 121 5 0 0 0 - - -;
#X obj 565 219 * 0.4;
#X obj 529 277 * 1.7;
#X msg 416 10 70;
#X obj 506 395 cnv 15 223 20 empty empty 365.days.of.creative.coding
23 12 1 16 -128992 -257985 0;
#X obj 506 419 cnv 15 223 20 empty empty mrfunkyland 131 12 1 16 -128992
-257985 0;
#X obj 506 443 cnv 15 223 50 empty empty day 135 20 1 50 -128992 -260097
0;
#X obj 506 494 cnv 15 223 40 empty empty twenty 5 15 1 47 -128992 -257985
0;
#X obj 198 418 vsl 15 128 0 127 0 0 empty empty empty 0 -9 0 10 -262144
-1 -1 4300 1;
#X obj 198 557 / 127;
#X obj 224 496 tgl 15 0 empty empty empty 17 7 0 10 -262144 -1 -1 1
1;
#X msg 224 516 \; pd dsp \$1;
#X obj 40 543 recorder~;
#X obj 646 494 cnv 15 60 40 empty empty one 2 15 1 47 -128992 -257985
0;
#X obj 304 -45 loadbang;
#X msg 400 114 300;
#X msg 61 99 1.033;
#X msg 195 106 2.9;
#X connect 0 0 69 0;
#X connect 0 1 70 0;
#X connect 0 2 71 0;
#X connect 0 3 76 0;
#X connect 0 4 77 0;
#X connect 0 5 78 0;
#X connect 0 6 40 0;
#X connect 0 7 79 0;
#X connect 1 0 7 0;
#X connect 2 0 51 0;
#X connect 3 0 52 0;
#X connect 4 0 1 0;
#X connect 4 0 5 0;
#X connect 4 0 6 0;
#X connect 4 0 49 0;
#X connect 5 0 2 0;
#X connect 6 0 3 0;
#X connect 7 0 33 0;
#X connect 7 0 36 0;
#X connect 8 0 7 1;
#X connect 9 0 33 0;
#X connect 10 0 9 1;
#X connect 11 0 33 1;
#X connect 12 0 11 1;
#X connect 13 0 8 0;
#X connect 14 0 10 0;
#X connect 15 0 12 0;
#X connect 16 0 13 0;
#X connect 17 0 14 0;
#X connect 18 0 15 0;
#X connect 19 0 5 1;
#X connect 20 0 6 1;
#X connect 21 0 19 0;
#X connect 22 0 21 0;
#X connect 23 0 20 0;
#X connect 24 0 23 0;
#X connect 26 0 27 0;
#X connect 26 0 63 0;
#X connect 27 0 28 0;
#X connect 28 0 29 0;
#X connect 29 0 4 0;
#X connect 30 0 26 0;
#X connect 31 0 47 0;
#X connect 32 0 31 0;
#X connect 33 0 37 0;
#X connect 34 0 25 0;
#X connect 34 0 25 1;
#X connect 34 0 89 1;
#X connect 34 0 89 2;
#X connect 35 0 32 1;
#X connect 36 0 38 0;
#X connect 37 0 38 1;
#X connect 38 0 32 0;
#X connect 39 0 37 1;
#X connect 40 0 39 0;
#X connect 40 0 37 2;
#X connect 41 0 42 0;
#X connect 41 1 48 0;
#X connect 42 0 43 0;
#X connect 43 0 44 0;
#X connect 44 0 45 0;
#X connect 44 0 45 1;
#X connect 44 0 54 1;
#X connect 45 0 46 0;
#X connect 45 0 46 1;
#X connect 45 0 55 1;
#X connect 46 0 47 1;
#X connect 47 0 34 0;
#X connect 48 0 44 0;
#X connect 49 0 41 0;
#X connect 50 0 42 1;
#X connect 51 0 9 0;
#X connect 52 0 11 0;
#X connect 53 0 54 0;
#X connect 53 0 55 0;
#X connect 54 0 51 1;
#X connect 55 0 52 1;
#X connect 56 0 53 0;
#X connect 57 0 61 0;
#X connect 58 0 59 0;
#X connect 59 0 60 0;
#X connect 60 0 57 1;
#X connect 61 0 62 0;
#X connect 62 0 66 0;
#X connect 62 1 58 0;
#X connect 63 0 64 0;
#X connect 63 0 57 0;
#X connect 64 0 63 1;
#X connect 65 0 63 1;
#X connect 66 0 67 0;
#X connect 67 0 80 0;
#X connect 67 1 68 0;
#X connect 68 0 0 0;
#X connect 69 0 16 0;
#X connect 70 0 17 0;
#X connect 71 0 18 0;
#X connect 74 0 72 0;
#X connect 75 0 73 0;
#X connect 76 0 74 0;
#X connect 77 0 75 0;
#X connect 78 0 35 0;
#X connect 79 0 56 0;
#X connect 80 0 0 0;
#X connect 85 0 86 0;
#X connect 86 0 34 1;
#X connect 87 0 88 0;
#X connect 91 0 65 0;
#X connect 91 0 92 0;
#X connect 92 0 50 0;
#X connect 93 0 19 0;
#X connect 94 0 20 0;
