#N canvas 54 19 1219 623 10;
#X floatatom 147 113 5 0 0 0 - - -;
#X obj 219 575 dac~;
#X obj 147 91 mtof;
#X obj 190 43 notein;
#X obj 54 360 envy2 -----------;
#X obj 87 320 loadbang;
#X obj 38 480 *~;
#X msg 120 337 100;
#X obj 83 575 recorder~;
#X msg 87 337 10;
#N canvas 837 182 885 670 voice1 0;
#X obj 34 284 osc~;
#X obj 74 284 osc~;
#X obj 114 284 osc~;
#X obj 154 284 osc~;
#X obj 194 284 osc~;
#X obj 234 284 osc~;
#X obj 274 284 osc~;
#X obj 314 284 osc~;
#X floatatom 34 191 5 0 0 0 - - -;
#X obj 74 252 * 2;
#X obj 114 252 * 3;
#X obj 154 252 * 4;
#X obj 194 252 * 5;
#X obj 234 252 * 6;
#X obj 274 252 * 7;
#X obj 314 252 * 8;
#X obj 33 433 *~;
#X obj 138 360 vsl 8 32 0 0.5 0 0 empty empty empty 0 -9 0 10 -204800
-1 -1 591 1;
#X obj 73 433 *~;
#X obj 148 360 vsl 8 32 0 0.5 0 0 empty empty empty 0 -9 0 10 -204800
-1 -1 688 1;
#X obj 113 433 *~;
#X obj 158 360 vsl 8 32 0 0.5 0 0 empty empty empty 0 -9 0 10 -204800
-1 -1 804 1;
#X obj 153 433 *~;
#X obj 168 360 vsl 8 32 0 0.5 0 0 empty empty empty 0 -9 0 10 -204800
-1 -1 746 1;
#X obj 193 433 *~;
#X obj 178 360 vsl 8 32 0 0.5 0 0 empty empty empty 0 -9 0 10 -204800
-1 -1 680 1;
#X obj 233 433 *~;
#X obj 188 360 vsl 8 32 0 0.5 0 0 empty empty empty 0 -9 0 10 -204800
-1 -1 701 1;
#X obj 273 433 *~;
#X obj 198 360 vsl 8 32 0 0.5 0 0 empty empty empty 0 -9 0 10 -204800
-1 -1 719 1;
#X obj 313 433 *~;
#X obj 208 360 vsl 8 32 0 0.5 0 0 empty empty empty 0 -9 0 10 -204800
-1 -1 632 1;
#X obj 34 119 mtof;
#X obj 49 307 line;
#X obj 89 307 line;
#X obj 129 307 line;
#X obj 169 307 line;
#X obj 209 307 line;
#X obj 249 307 line;
#X obj 289 307 line;
#X obj 329 307 line;
#X obj 394 288 pack 0 20;
#X obj 454 288 pack 0 20;
#X obj 514 288 pack 0 20;
#X obj 574 288 pack 0 20;
#X obj 634 288 pack 0 20;
#X obj 694 288 pack 0 20;
#X obj 754 288 pack 0 20;
#X obj 814 288 pack 0 20;
#X obj 34 65 inlet;
#X obj 129 36 inlet;
#X obj 174 635 outlet~;
#X floatatom 354 242 5 0 0 0 - - -;
#X obj 352 125 t b f f;
#X obj 259 139 tgl 15 0 empty empty empty 17 7 0 10 -262144 -1 -1 1
1;
#X obj 314 96 moses 1;
#X obj 252 111 loadbang;
#X floatatom 360 170 5 0 0 0 - - -;
#X obj 257 160 metro 500;
#X obj 337 208 gaussian 30 2 40;
#X obj 567 105 spring8 -------;
#X obj 654 46 loadbang;
#X msg 655 70 30;
#X obj 195 517 *~ 0.2;
#X connect 0 0 16 0;
#X connect 1 0 18 0;
#X connect 2 0 20 0;
#X connect 3 0 22 0;
#X connect 4 0 24 0;
#X connect 5 0 26 0;
#X connect 6 0 28 0;
#X connect 7 0 30 0;
#X connect 8 0 0 0;
#X connect 8 0 9 0;
#X connect 8 0 10 0;
#X connect 8 0 11 0;
#X connect 8 0 12 0;
#X connect 8 0 13 0;
#X connect 8 0 14 0;
#X connect 8 0 15 0;
#X connect 9 0 1 0;
#X connect 10 0 2 0;
#X connect 11 0 3 0;
#X connect 12 0 4 0;
#X connect 13 0 5 0;
#X connect 14 0 6 0;
#X connect 15 0 7 0;
#X connect 16 0 63 0;
#X connect 17 0 16 1;
#X connect 18 0 63 0;
#X connect 19 0 18 1;
#X connect 20 0 63 0;
#X connect 21 0 20 1;
#X connect 22 0 63 0;
#X connect 23 0 22 1;
#X connect 24 0 63 0;
#X connect 25 0 24 1;
#X connect 26 0 63 0;
#X connect 27 0 26 1;
#X connect 28 0 63 0;
#X connect 29 0 28 1;
#X connect 30 0 63 0;
#X connect 31 0 30 1;
#X connect 32 0 8 0;
#X connect 33 0 17 0;
#X connect 34 0 19 0;
#X connect 35 0 21 0;
#X connect 36 0 23 0;
#X connect 37 0 25 0;
#X connect 38 0 27 0;
#X connect 39 0 29 0;
#X connect 40 0 31 0;
#X connect 41 0 33 0;
#X connect 42 0 34 0;
#X connect 43 0 35 0;
#X connect 44 0 36 0;
#X connect 45 0 37 0;
#X connect 46 0 38 0;
#X connect 47 0 39 0;
#X connect 48 0 40 0;
#X connect 49 0 32 0;
#X connect 50 0 59 2;
#X connect 53 2 59 2;
#X connect 54 0 58 0;
#X connect 55 1 53 0;
#X connect 56 0 54 0;
#X connect 57 0 59 1;
#X connect 58 0 59 0;
#X connect 59 0 52 0;
#X connect 59 0 60 0;
#X connect 60 0 41 0;
#X connect 60 1 42 0;
#X connect 60 2 43 0;
#X connect 60 3 44 0;
#X connect 60 4 45 0;
#X connect 60 5 46 0;
#X connect 60 6 47 0;
#X connect 60 7 48 0;
#X connect 61 0 62 0;
#X connect 62 0 60 1;
#X connect 63 0 51 0;
#X coords 0 -1 1 1 85 60 1 135 340;
#X restore 38 243 pd voice1;
#N canvas 837 182 885 670 voice2 0;
#X obj 34 284 osc~;
#X obj 74 284 osc~;
#X obj 114 284 osc~;
#X obj 154 284 osc~;
#X obj 194 284 osc~;
#X obj 234 284 osc~;
#X obj 274 284 osc~;
#X obj 314 284 osc~;
#X floatatom 34 191 5 0 0 0 - - -;
#X obj 74 252 * 2;
#X obj 114 252 * 3;
#X obj 154 252 * 4;
#X obj 194 252 * 5;
#X obj 234 252 * 6;
#X obj 274 252 * 7;
#X obj 314 252 * 8;
#X obj 33 433 *~;
#X obj 138 360 vsl 8 32 0 0.5 0 0 empty empty empty 0 -9 0 10 -203904
-1 -1 582 1;
#X obj 73 433 *~;
#X obj 148 360 vsl 8 32 0 0.5 0 0 empty empty empty 0 -9 0 10 -203904
-1 -1 932 1;
#X obj 113 433 *~;
#X obj 158 360 vsl 8 32 0 0.5 0 0 empty empty empty 0 -9 0 10 -203904
-1 -1 1526 1;
#X obj 153 433 *~;
#X obj 168 360 vsl 8 32 0 0.5 0 0 empty empty empty 0 -9 0 10 -203904
-1 -1 1695 1;
#X obj 193 433 *~;
#X obj 178 360 vsl 8 32 0 0.5 0 0 empty empty empty 0 -9 0 10 -203904
-1 -1 1703 1;
#X obj 233 433 *~;
#X obj 188 360 vsl 8 32 0 0.5 0 0 empty empty empty 0 -9 0 10 -203904
-1 -1 1483 1;
#X obj 273 433 *~;
#X obj 198 360 vsl 8 32 0 0.5 0 0 empty empty empty 0 -9 0 10 -203904
-1 -1 1142 1;
#X obj 313 433 *~;
#X obj 208 360 vsl 8 32 0 0.5 0 0 empty empty empty 0 -9 0 10 -203904
-1 -1 737 1;
#X obj 34 119 mtof;
#X obj 49 307 line;
#X obj 89 307 line;
#X obj 129 307 line;
#X obj 169 307 line;
#X obj 209 307 line;
#X obj 249 307 line;
#X obj 289 307 line;
#X obj 329 307 line;
#X obj 394 288 pack 0 20;
#X obj 454 288 pack 0 20;
#X obj 514 288 pack 0 20;
#X obj 574 288 pack 0 20;
#X obj 634 288 pack 0 20;
#X obj 694 288 pack 0 20;
#X obj 754 288 pack 0 20;
#X obj 814 288 pack 0 20;
#X obj 34 65 inlet;
#X obj 129 36 inlet;
#X obj 174 635 outlet~;
#X floatatom 354 242 5 0 0 0 - - -;
#X obj 352 125 t b f f;
#X obj 259 139 tgl 15 0 empty empty empty 17 7 0 10 -262144 -1 -1 1
1;
#X obj 314 96 moses 1;
#X obj 252 111 loadbang;
#X floatatom 360 170 5 0 0 0 - - -;
#X obj 257 160 metro 500;
#X obj 337 208 gaussian 30 2 40;
#X obj 649 51 loadbang;
#X msg 652 75 20;
#X obj 567 105 spring8 -------;
#X obj 195 517 *~ 0.2;
#X connect 0 0 16 0;
#X connect 1 0 18 0;
#X connect 2 0 20 0;
#X connect 3 0 22 0;
#X connect 4 0 24 0;
#X connect 5 0 26 0;
#X connect 6 0 28 0;
#X connect 7 0 30 0;
#X connect 8 0 0 0;
#X connect 8 0 9 0;
#X connect 8 0 10 0;
#X connect 8 0 11 0;
#X connect 8 0 12 0;
#X connect 8 0 13 0;
#X connect 8 0 14 0;
#X connect 8 0 15 0;
#X connect 9 0 1 0;
#X connect 10 0 2 0;
#X connect 11 0 3 0;
#X connect 12 0 4 0;
#X connect 13 0 5 0;
#X connect 14 0 6 0;
#X connect 15 0 7 0;
#X connect 16 0 63 0;
#X connect 17 0 16 1;
#X connect 18 0 63 0;
#X connect 19 0 18 1;
#X connect 20 0 63 0;
#X connect 21 0 20 1;
#X connect 22 0 63 0;
#X connect 23 0 22 1;
#X connect 24 0 63 0;
#X connect 25 0 24 1;
#X connect 26 0 63 0;
#X connect 27 0 26 1;
#X connect 28 0 63 0;
#X connect 29 0 28 1;
#X connect 30 0 63 0;
#X connect 31 0 30 1;
#X connect 32 0 8 0;
#X connect 33 0 17 0;
#X connect 34 0 19 0;
#X connect 35 0 21 0;
#X connect 36 0 23 0;
#X connect 37 0 25 0;
#X connect 38 0 27 0;
#X connect 39 0 29 0;
#X connect 40 0 31 0;
#X connect 41 0 33 0;
#X connect 42 0 34 0;
#X connect 43 0 35 0;
#X connect 44 0 36 0;
#X connect 45 0 37 0;
#X connect 46 0 38 0;
#X connect 47 0 39 0;
#X connect 48 0 40 0;
#X connect 49 0 32 0;
#X connect 50 0 59 2;
#X connect 53 2 59 2;
#X connect 54 0 58 0;
#X connect 55 1 53 0;
#X connect 56 0 54 0;
#X connect 57 0 59 1;
#X connect 58 0 59 0;
#X connect 59 0 52 0;
#X connect 59 0 62 0;
#X connect 60 0 61 0;
#X connect 61 0 62 1;
#X connect 62 0 41 0;
#X connect 62 1 42 0;
#X connect 62 2 43 0;
#X connect 62 3 44 0;
#X connect 62 4 45 0;
#X connect 62 5 46 0;
#X connect 62 6 47 0;
#X connect 62 7 48 0;
#X connect 63 0 51 0;
#X coords 0 -1 1 1 85 60 1 135 340;
#X restore 133 243 pd voice2;
#X obj 190 153 pack 0 0 0;
#X obj 247 129 f;
#X obj 218 129 f;
#X obj 190 104 t f b b;
#X obj 38 214 unpack 0 0;
#X obj 136 214 unpack 0 0;
#X obj 133 485 *~;
#X obj 234 532 *~;
#X obj 665 515 / 127;
#X obj 665 378 vsl 15 128 0 127 0 0 empty empty empty 0 -9 0 10 -262144
-1 -1 0 1;
#X msg 690 459 \; pd dsp \$1;
#X obj 692 438 tgl 15 0 empty empty empty 17 7 0 10 -262144 -1 -1 0
1;
#X msg 153 337 200;
#X obj 224 214 unpack 0 0;
#X obj 322 214 unpack 0 0;
#N canvas 837 182 885 670 voice3 0;
#X obj 34 284 osc~;
#X obj 74 284 osc~;
#X obj 114 284 osc~;
#X obj 154 284 osc~;
#X obj 194 284 osc~;
#X obj 234 284 osc~;
#X obj 274 284 osc~;
#X obj 314 284 osc~;
#X floatatom 34 191 5 0 0 0 - - -;
#X obj 74 252 * 2;
#X obj 114 252 * 3;
#X obj 154 252 * 4;
#X obj 194 252 * 5;
#X obj 234 252 * 6;
#X obj 274 252 * 7;
#X obj 314 252 * 8;
#X obj 33 433 *~;
#X obj 138 360 vsl 8 32 0 0.5 0 0 empty empty empty 0 -9 0 10 -204786
-1 -1 1266 1;
#X obj 73 433 *~;
#X obj 148 360 vsl 8 32 0 0.5 0 0 empty empty empty 0 -9 0 10 -204786
-1 -1 1270 1;
#X obj 113 433 *~;
#X obj 158 360 vsl 8 32 0 0.5 0 0 empty empty empty 0 -9 0 10 -204786
-1 -1 1225 1;
#X obj 153 433 *~;
#X obj 168 360 vsl 8 32 0 0.5 0 0 empty empty empty 0 -9 0 10 -204786
-1 -1 1242 1;
#X obj 193 433 *~;
#X obj 178 360 vsl 8 32 0 0.5 0 0 empty empty empty 0 -9 0 10 -204786
-1 -1 1245 1;
#X obj 233 433 *~;
#X obj 188 360 vsl 8 32 0 0.5 0 0 empty empty empty 0 -9 0 10 -204786
-1 -1 1140 1;
#X obj 273 433 *~;
#X obj 198 360 vsl 8 32 0 0.5 0 0 empty empty empty 0 -9 0 10 -204786
-1 -1 1035 1;
#X obj 313 433 *~;
#X obj 208 360 vsl 8 32 0 0.5 0 0 empty empty empty 0 -9 0 10 -204786
-1 -1 960 1;
#X obj 34 119 mtof;
#X obj 49 307 line;
#X obj 89 307 line;
#X obj 129 307 line;
#X obj 169 307 line;
#X obj 209 307 line;
#X obj 249 307 line;
#X obj 289 307 line;
#X obj 329 307 line;
#X obj 394 288 pack 0 20;
#X obj 454 288 pack 0 20;
#X obj 514 288 pack 0 20;
#X obj 574 288 pack 0 20;
#X obj 634 288 pack 0 20;
#X obj 694 288 pack 0 20;
#X obj 754 288 pack 0 20;
#X obj 814 288 pack 0 20;
#X obj 34 65 inlet;
#X obj 129 36 inlet;
#X obj 174 635 outlet~;
#X floatatom 354 242 5 0 0 0 - - -;
#X obj 352 125 t b f f;
#X obj 259 139 tgl 15 0 empty empty empty 17 7 0 10 -262144 -1 -1 1
1;
#X obj 314 96 moses 1;
#X obj 252 111 loadbang;
#X floatatom 360 170 5 0 0 0 - - -;
#X obj 257 160 metro 500;
#X obj 337 208 gaussian 30 2 40;
#X obj 654 46 loadbang;
#X msg 655 70 20;
#X obj 567 105 spring8 -------;
#X obj 195 517 *~ 0.2;
#X connect 0 0 16 0;
#X connect 1 0 18 0;
#X connect 2 0 20 0;
#X connect 3 0 22 0;
#X connect 4 0 24 0;
#X connect 5 0 26 0;
#X connect 6 0 28 0;
#X connect 7 0 30 0;
#X connect 8 0 0 0;
#X connect 8 0 9 0;
#X connect 8 0 10 0;
#X connect 8 0 11 0;
#X connect 8 0 12 0;
#X connect 8 0 13 0;
#X connect 8 0 14 0;
#X connect 8 0 15 0;
#X connect 9 0 1 0;
#X connect 10 0 2 0;
#X connect 11 0 3 0;
#X connect 12 0 4 0;
#X connect 13 0 5 0;
#X connect 14 0 6 0;
#X connect 15 0 7 0;
#X connect 16 0 63 0;
#X connect 17 0 16 1;
#X connect 18 0 63 0;
#X connect 19 0 18 1;
#X connect 20 0 63 0;
#X connect 21 0 20 1;
#X connect 22 0 63 0;
#X connect 23 0 22 1;
#X connect 24 0 63 0;
#X connect 25 0 24 1;
#X connect 26 0 63 0;
#X connect 27 0 26 1;
#X connect 28 0 63 0;
#X connect 29 0 28 1;
#X connect 30 0 63 0;
#X connect 31 0 30 1;
#X connect 32 0 8 0;
#X connect 33 0 17 0;
#X connect 34 0 19 0;
#X connect 35 0 21 0;
#X connect 36 0 23 0;
#X connect 37 0 25 0;
#X connect 38 0 27 0;
#X connect 39 0 29 0;
#X connect 40 0 31 0;
#X connect 41 0 33 0;
#X connect 42 0 34 0;
#X connect 43 0 35 0;
#X connect 44 0 36 0;
#X connect 45 0 37 0;
#X connect 46 0 38 0;
#X connect 47 0 39 0;
#X connect 48 0 40 0;
#X connect 49 0 32 0;
#X connect 50 0 59 2;
#X connect 53 2 59 2;
#X connect 54 0 58 0;
#X connect 55 1 53 0;
#X connect 56 0 54 0;
#X connect 57 0 59 1;
#X connect 58 0 59 0;
#X connect 59 0 52 0;
#X connect 59 0 62 0;
#X connect 60 0 61 0;
#X connect 61 0 62 1;
#X connect 62 0 41 0;
#X connect 62 1 42 0;
#X connect 62 2 43 0;
#X connect 62 3 44 0;
#X connect 62 4 45 0;
#X connect 62 5 46 0;
#X connect 62 6 47 0;
#X connect 62 7 48 0;
#X connect 63 0 51 0;
#X coords 0 -1 1 1 85 60 1 135 340;
#X restore 224 243 pd voice3;
#N canvas 837 182 885 670 voice4 0;
#X obj 34 284 osc~;
#X obj 74 284 osc~;
#X obj 114 284 osc~;
#X obj 154 284 osc~;
#X obj 194 284 osc~;
#X obj 234 284 osc~;
#X obj 274 284 osc~;
#X obj 314 284 osc~;
#X floatatom 34 191 5 0 0 0 - - -;
#X obj 74 252 * 2;
#X obj 114 252 * 3;
#X obj 154 252 * 4;
#X obj 194 252 * 5;
#X obj 234 252 * 6;
#X obj 274 252 * 7;
#X obj 314 252 * 8;
#X obj 33 433 *~;
#X obj 138 360 vsl 8 32 0 0.5 0 0 empty empty empty 0 -9 0 10 -261234
-1 -1 785 1;
#X obj 73 433 *~;
#X obj 148 360 vsl 8 32 0 0.5 0 0 empty empty empty 0 -9 0 10 -261234
-1 -1 765 1;
#X obj 113 433 *~;
#X obj 158 360 vsl 8 32 0 0.5 0 0 empty empty empty 0 -9 0 10 -261234
-1 -1 744 1;
#X obj 153 433 *~;
#X obj 168 360 vsl 8 32 0 0.5 0 0 empty empty empty 0 -9 0 10 -261234
-1 -1 723 1;
#X obj 193 433 *~;
#X obj 178 360 vsl 8 32 0 0.5 0 0 empty empty empty 0 -9 0 10 -261234
-1 -1 703 1;
#X obj 233 433 *~;
#X obj 188 360 vsl 8 32 0 0.5 0 0 empty empty empty 0 -9 0 10 -261234
-1 -1 682 1;
#X obj 273 433 *~;
#X obj 198 360 vsl 8 32 0 0.5 0 0 empty empty empty 0 -9 0 10 -261234
-1 -1 661 1;
#X obj 313 433 *~;
#X obj 208 360 vsl 8 32 0 0.5 0 0 empty empty empty 0 -9 0 10 -261234
-1 -1 641 1;
#X obj 34 119 mtof;
#X obj 49 307 line;
#X obj 89 307 line;
#X obj 129 307 line;
#X obj 169 307 line;
#X obj 209 307 line;
#X obj 249 307 line;
#X obj 289 307 line;
#X obj 329 307 line;
#X obj 394 288 pack 0 20;
#X obj 454 288 pack 0 20;
#X obj 514 288 pack 0 20;
#X obj 574 288 pack 0 20;
#X obj 634 288 pack 0 20;
#X obj 694 288 pack 0 20;
#X obj 754 288 pack 0 20;
#X obj 814 288 pack 0 20;
#X obj 34 65 inlet;
#X obj 129 36 inlet;
#X obj 174 635 outlet~;
#X floatatom 354 242 5 0 0 0 - - -;
#X obj 352 125 t b f f;
#X obj 259 139 tgl 15 0 empty empty empty 17 7 0 10 -262144 -1 -1 1
1;
#X obj 314 96 moses 1;
#X obj 252 111 loadbang;
#X floatatom 360 170 5 0 0 0 - - -;
#X obj 257 160 metro 500;
#X obj 337 208 gaussian 30 2 40;
#X obj 649 51 loadbang;
#X msg 652 75 20;
#X obj 567 105 spring8 -------;
#X obj 195 517 *~ 0.2;
#X connect 0 0 16 0;
#X connect 1 0 18 0;
#X connect 2 0 20 0;
#X connect 3 0 22 0;
#X connect 4 0 24 0;
#X connect 5 0 26 0;
#X connect 6 0 28 0;
#X connect 7 0 30 0;
#X connect 8 0 0 0;
#X connect 8 0 9 0;
#X connect 8 0 10 0;
#X connect 8 0 11 0;
#X connect 8 0 12 0;
#X connect 8 0 13 0;
#X connect 8 0 14 0;
#X connect 8 0 15 0;
#X connect 9 0 1 0;
#X connect 10 0 2 0;
#X connect 11 0 3 0;
#X connect 12 0 4 0;
#X connect 13 0 5 0;
#X connect 14 0 6 0;
#X connect 15 0 7 0;
#X connect 16 0 63 0;
#X connect 17 0 16 1;
#X connect 18 0 63 0;
#X connect 19 0 18 1;
#X connect 20 0 63 0;
#X connect 21 0 20 1;
#X connect 22 0 63 0;
#X connect 23 0 22 1;
#X connect 24 0 63 0;
#X connect 25 0 24 1;
#X connect 26 0 63 0;
#X connect 27 0 26 1;
#X connect 28 0 63 0;
#X connect 29 0 28 1;
#X connect 30 0 63 0;
#X connect 31 0 30 1;
#X connect 32 0 8 0;
#X connect 33 0 17 0;
#X connect 34 0 19 0;
#X connect 35 0 21 0;
#X connect 36 0 23 0;
#X connect 37 0 25 0;
#X connect 38 0 27 0;
#X connect 39 0 29 0;
#X connect 40 0 31 0;
#X connect 41 0 33 0;
#X connect 42 0 34 0;
#X connect 43 0 35 0;
#X connect 44 0 36 0;
#X connect 45 0 37 0;
#X connect 46 0 38 0;
#X connect 47 0 39 0;
#X connect 48 0 40 0;
#X connect 49 0 32 0;
#X connect 50 0 59 2;
#X connect 53 2 59 2;
#X connect 54 0 58 0;
#X connect 55 1 53 0;
#X connect 56 0 54 0;
#X connect 57 0 59 1;
#X connect 58 0 59 0;
#X connect 59 0 52 0;
#X connect 59 0 62 0;
#X connect 60 0 61 0;
#X connect 61 0 62 1;
#X connect 62 0 41 0;
#X connect 62 1 42 0;
#X connect 62 2 43 0;
#X connect 62 3 44 0;
#X connect 62 4 45 0;
#X connect 62 5 46 0;
#X connect 62 6 47 0;
#X connect 62 7 48 0;
#X connect 63 0 51 0;
#X coords 0 -1 1 1 85 60 1 135 340;
#X restore 319 243 pd voice4;
#X obj 149 386 envy2 -----------;
#X obj 182 346 loadbang;
#X msg 215 363 100;
#X msg 182 363 10;
#X msg 248 363 200;
#X obj 241 410 envy2 -----------;
#X obj 274 370 loadbang;
#X msg 307 387 100;
#X msg 274 387 10;
#X msg 340 387 200;
#X obj 336 436 envy2 -----------;
#X obj 369 396 loadbang;
#X msg 402 413 100;
#X msg 369 413 10;
#X msg 435 413 200;
#X obj 225 480 *~;
#X obj 320 485 *~;
#X obj 605 231 s v1;
#X obj 635 231 s v2;
#X obj 665 231 s v3;
#X obj 695 231 s v4;
#X obj 54 311 r v1;
#X obj 149 311 r v2;
#X obj 241 311 r v3;
#X obj 336 311 r v4;
#X obj 288 97 * 0.5;
#X obj 725 231 s v5;
#X obj 755 231 s v6;
#X obj 190 74 poly 6 1;
#X obj 414 214 unpack 0 0;
#X obj 512 214 unpack 0 0;
#X obj 431 360 envy2 -----------;
#X obj 464 320 loadbang;
#X msg 497 337 100;
#X msg 464 337 10;
#X msg 530 337 200;
#X obj 526 386 envy2 -----------;
#X obj 559 346 loadbang;
#X msg 592 363 100;
#X msg 559 363 10;
#X msg 625 363 200;
#X obj 415 480 *~;
#X obj 510 485 *~;
#N canvas 837 182 885 670 voice5 0;
#X obj 34 284 osc~;
#X obj 74 284 osc~;
#X obj 114 284 osc~;
#X obj 154 284 osc~;
#X obj 194 284 osc~;
#X obj 234 284 osc~;
#X obj 274 284 osc~;
#X obj 314 284 osc~;
#X floatatom 34 191 5 0 0 0 - - -;
#X obj 74 252 * 2;
#X obj 114 252 * 3;
#X obj 154 252 * 4;
#X obj 194 252 * 5;
#X obj 234 252 * 6;
#X obj 274 252 * 7;
#X obj 314 252 * 8;
#X obj 33 433 *~;
#X obj 138 360 vsl 8 32 0 0.5 0 0 empty empty empty 0 -9 0 10 -262130
-1 -1 1074 1;
#X obj 73 433 *~;
#X obj 148 360 vsl 8 32 0 0.5 0 0 empty empty empty 0 -9 0 10 -262130
-1 -1 761 1;
#X obj 113 433 *~;
#X obj 158 360 vsl 8 32 0 0.5 0 0 empty empty empty 0 -9 0 10 -262130
-1 -1 395 1;
#X obj 153 433 *~;
#X obj 168 360 vsl 8 32 0 0.5 0 0 empty empty empty 0 -9 0 10 -262130
-1 -1 161 1;
#X obj 193 433 *~;
#X obj 178 360 vsl 8 32 0 0.5 0 0 empty empty empty 0 -9 0 10 -262130
-1 -1 83 1;
#X obj 233 433 *~;
#X obj 188 360 vsl 8 32 0 0.5 0 0 empty empty empty 0 -9 0 10 -262130
-1 -1 332 1;
#X obj 273 433 *~;
#X obj 198 360 vsl 8 32 0 0.5 0 0 empty empty empty 0 -9 0 10 -262130
-1 -1 637 1;
#X obj 313 433 *~;
#X obj 208 360 vsl 8 32 0 0.5 0 0 empty empty empty 0 -9 0 10 -262130
-1 -1 806 1;
#X obj 34 119 mtof;
#X obj 49 307 line;
#X obj 89 307 line;
#X obj 129 307 line;
#X obj 169 307 line;
#X obj 209 307 line;
#X obj 249 307 line;
#X obj 289 307 line;
#X obj 329 307 line;
#X obj 394 288 pack 0 20;
#X obj 454 288 pack 0 20;
#X obj 514 288 pack 0 20;
#X obj 574 288 pack 0 20;
#X obj 634 288 pack 0 20;
#X obj 694 288 pack 0 20;
#X obj 754 288 pack 0 20;
#X obj 814 288 pack 0 20;
#X obj 34 65 inlet;
#X obj 129 36 inlet;
#X obj 174 635 outlet~;
#X floatatom 354 242 5 0 0 0 - - -;
#X obj 352 125 t b f f;
#X obj 259 139 tgl 15 0 empty empty empty 17 7 0 10 -262144 -1 -1 1
1;
#X obj 314 96 moses 1;
#X obj 252 111 loadbang;
#X floatatom 360 170 5 0 0 0 - - -;
#X obj 257 160 metro 500;
#X obj 337 208 gaussian 30 2 40;
#X obj 654 46 loadbang;
#X msg 655 70 20;
#X obj 567 105 spring8 -------;
#X obj 195 517 *~ 0.2;
#X connect 0 0 16 0;
#X connect 1 0 18 0;
#X connect 2 0 20 0;
#X connect 3 0 22 0;
#X connect 4 0 24 0;
#X connect 5 0 26 0;
#X connect 6 0 28 0;
#X connect 7 0 30 0;
#X connect 8 0 0 0;
#X connect 8 0 9 0;
#X connect 8 0 10 0;
#X connect 8 0 11 0;
#X connect 8 0 12 0;
#X connect 8 0 13 0;
#X connect 8 0 14 0;
#X connect 8 0 15 0;
#X connect 9 0 1 0;
#X connect 10 0 2 0;
#X connect 11 0 3 0;
#X connect 12 0 4 0;
#X connect 13 0 5 0;
#X connect 14 0 6 0;
#X connect 15 0 7 0;
#X connect 16 0 63 0;
#X connect 17 0 16 1;
#X connect 18 0 63 0;
#X connect 19 0 18 1;
#X connect 20 0 63 0;
#X connect 21 0 20 1;
#X connect 22 0 63 0;
#X connect 23 0 22 1;
#X connect 24 0 63 0;
#X connect 25 0 24 1;
#X connect 26 0 63 0;
#X connect 27 0 26 1;
#X connect 28 0 63 0;
#X connect 29 0 28 1;
#X connect 30 0 63 0;
#X connect 31 0 30 1;
#X connect 32 0 8 0;
#X connect 33 0 17 0;
#X connect 34 0 19 0;
#X connect 35 0 21 0;
#X connect 36 0 23 0;
#X connect 37 0 25 0;
#X connect 38 0 27 0;
#X connect 39 0 29 0;
#X connect 40 0 31 0;
#X connect 41 0 33 0;
#X connect 42 0 34 0;
#X connect 43 0 35 0;
#X connect 44 0 36 0;
#X connect 45 0 37 0;
#X connect 46 0 38 0;
#X connect 47 0 39 0;
#X connect 48 0 40 0;
#X connect 49 0 32 0;
#X connect 50 0 59 2;
#X connect 53 2 59 2;
#X connect 54 0 58 0;
#X connect 55 1 53 0;
#X connect 56 0 54 0;
#X connect 57 0 59 1;
#X connect 58 0 59 0;
#X connect 59 0 52 0;
#X connect 59 0 62 0;
#X connect 60 0 61 0;
#X connect 61 0 62 1;
#X connect 62 0 41 0;
#X connect 62 1 42 0;
#X connect 62 2 43 0;
#X connect 62 3 44 0;
#X connect 62 4 45 0;
#X connect 62 5 46 0;
#X connect 62 6 47 0;
#X connect 62 7 48 0;
#X connect 63 0 51 0;
#X coords 0 -1 1 1 85 60 1 135 340;
#X restore 414 243 pd voice5;
#N canvas 837 182 885 670 voice6 0;
#X obj 34 284 osc~;
#X obj 74 284 osc~;
#X obj 114 284 osc~;
#X obj 154 284 osc~;
#X obj 194 284 osc~;
#X obj 234 284 osc~;
#X obj 274 284 osc~;
#X obj 314 284 osc~;
#X floatatom 34 191 5 0 0 0 - - -;
#X obj 74 252 * 2;
#X obj 114 252 * 3;
#X obj 154 252 * 4;
#X obj 194 252 * 5;
#X obj 234 252 * 6;
#X obj 274 252 * 7;
#X obj 314 252 * 8;
#X obj 33 433 *~;
#X obj 138 360 vsl 8 32 0 0.5 0 0 empty empty empty 0 -9 0 10 -232576
-1 -1 1150 1;
#X obj 73 433 *~;
#X obj 148 360 vsl 8 32 0 0.5 0 0 empty empty empty 0 -9 0 10 -232576
-1 -1 1693 1;
#X obj 113 433 *~;
#X obj 158 360 vsl 8 32 0 0.5 0 0 empty empty empty 0 -9 0 10 -232576
-1 -1 2158 1;
#X obj 153 433 *~;
#X obj 168 360 vsl 8 32 0 0.5 0 0 empty empty empty 0 -9 0 10 -232576
-1 -1 2347 1;
#X obj 193 433 *~;
#X obj 178 360 vsl 8 32 0 0.5 0 0 empty empty empty 0 -9 0 10 -232576
-1 -1 2395 1;
#X obj 233 433 *~;
#X obj 188 360 vsl 8 32 0 0.5 0 0 empty empty empty 0 -9 0 10 -232576
-1 -1 2153 1;
#X obj 273 433 *~;
#X obj 198 360 vsl 8 32 0 0.5 0 0 empty empty empty 0 -9 0 10 -232576
-1 -1 1770 1;
#X obj 313 433 *~;
#X obj 208 360 vsl 8 32 0 0.5 0 0 empty empty empty 0 -9 0 10 -232576
-1 -1 1160 1;
#X obj 34 119 mtof;
#X obj 49 307 line;
#X obj 89 307 line;
#X obj 129 307 line;
#X obj 169 307 line;
#X obj 209 307 line;
#X obj 249 307 line;
#X obj 289 307 line;
#X obj 329 307 line;
#X obj 394 288 pack 0 20;
#X obj 454 288 pack 0 20;
#X obj 514 288 pack 0 20;
#X obj 574 288 pack 0 20;
#X obj 634 288 pack 0 20;
#X obj 694 288 pack 0 20;
#X obj 754 288 pack 0 20;
#X obj 814 288 pack 0 20;
#X obj 34 65 inlet;
#X obj 129 36 inlet;
#X obj 174 635 outlet~;
#X floatatom 354 242 5 0 0 0 - - -;
#X obj 352 125 t b f f;
#X obj 259 139 tgl 15 0 empty empty empty 17 7 0 10 -262144 -1 -1 1
1;
#X obj 314 96 moses 1;
#X obj 252 111 loadbang;
#X floatatom 360 170 5 0 0 0 - - -;
#X obj 257 160 metro 500;
#X obj 337 208 gaussian 30 2 40;
#X obj 649 51 loadbang;
#X msg 652 75 20;
#X obj 567 105 spring8 -------;
#X obj 195 517 *~ 0.2;
#X connect 0 0 16 0;
#X connect 1 0 18 0;
#X connect 2 0 20 0;
#X connect 3 0 22 0;
#X connect 4 0 24 0;
#X connect 5 0 26 0;
#X connect 6 0 28 0;
#X connect 7 0 30 0;
#X connect 8 0 0 0;
#X connect 8 0 9 0;
#X connect 8 0 10 0;
#X connect 8 0 11 0;
#X connect 8 0 12 0;
#X connect 8 0 13 0;
#X connect 8 0 14 0;
#X connect 8 0 15 0;
#X connect 9 0 1 0;
#X connect 10 0 2 0;
#X connect 11 0 3 0;
#X connect 12 0 4 0;
#X connect 13 0 5 0;
#X connect 14 0 6 0;
#X connect 15 0 7 0;
#X connect 16 0 63 0;
#X connect 17 0 16 1;
#X connect 18 0 63 0;
#X connect 19 0 18 1;
#X connect 20 0 63 0;
#X connect 21 0 20 1;
#X connect 22 0 63 0;
#X connect 23 0 22 1;
#X connect 24 0 63 0;
#X connect 25 0 24 1;
#X connect 26 0 63 0;
#X connect 27 0 26 1;
#X connect 28 0 63 0;
#X connect 29 0 28 1;
#X connect 30 0 63 0;
#X connect 31 0 30 1;
#X connect 32 0 8 0;
#X connect 33 0 17 0;
#X connect 34 0 19 0;
#X connect 35 0 21 0;
#X connect 36 0 23 0;
#X connect 37 0 25 0;
#X connect 38 0 27 0;
#X connect 39 0 29 0;
#X connect 40 0 31 0;
#X connect 41 0 33 0;
#X connect 42 0 34 0;
#X connect 43 0 35 0;
#X connect 44 0 36 0;
#X connect 45 0 37 0;
#X connect 46 0 38 0;
#X connect 47 0 39 0;
#X connect 48 0 40 0;
#X connect 49 0 32 0;
#X connect 50 0 59 2;
#X connect 53 2 59 2;
#X connect 54 0 58 0;
#X connect 55 1 53 0;
#X connect 56 0 54 0;
#X connect 57 0 59 1;
#X connect 58 0 59 0;
#X connect 59 0 52 0;
#X connect 59 0 62 0;
#X connect 60 0 61 0;
#X connect 61 0 62 1;
#X connect 62 0 41 0;
#X connect 62 1 42 0;
#X connect 62 2 43 0;
#X connect 62 3 44 0;
#X connect 62 4 45 0;
#X connect 62 5 46 0;
#X connect 62 6 47 0;
#X connect 62 7 48 0;
#X connect 63 0 51 0;
#X coords 0 -1 1 1 85 60 1 135 340;
#X restore 509 243 pd voice6;
#X obj 431 311 r v5;
#X obj 526 311 r v6;
#X obj 190 181 route 1 2 3 4 5 6;
#X obj 909 24 cnv 15 223 20 empty empty 365.days.of.creative.coding
23 12 1 16 -128992 -257985 0;
#X obj 909 48 cnv 15 223 20 empty empty mrfunkyland 131 12 1 16 -128992
-257985 0;
#X obj 909 72 cnv 15 223 50 empty empty day 135 20 1 50 -128992 -260097
0;
#X obj 909 123 cnv 15 223 40 empty empty fourteen 35 15 1 50 -128992
-257985 0;
#X obj 838 300 metro 1000;
#X msg 894 275 1000;
#X msg 894 251 2000;
#X obj 826 212 tgl 15 0 empty empty empty 17 7 0 10 -262144 -1 -1 1
1;
#X obj 922 301 metro 500;
#X msg 973 276 500;
#X msg 973 252 1000;
#X obj 1082 302 metro 500;
#X msg 1133 277 500;
#X msg 1133 253 1000;
#X msg 1049 276 500;
#X obj 998 301 metro 500;
#X msg 1049 252 750;
#X obj 875 197 random 3;
#X obj 875 220 sel 1;
#X obj 946 196 random 3;
#X obj 946 219 sel 1;
#X obj 1017 196 random 3;
#X obj 1017 219 sel 1;
#X obj 1087 195 random 3;
#X obj 1087 218 sel 1;
#X obj 820 318 bng 15 250 50 0 empty empty empty 17 7 0 10 -262144
-1 -1;
#X obj 905 318 bng 15 250 50 0 empty empty empty 17 7 0 10 -262144
-1 -1;
#X obj 983 318 bng 15 250 50 0 empty empty empty 17 7 0 10 -262144
-1 -1;
#X obj 1064 318 bng 15 250 50 0 empty empty empty 17 7 0 10 -262144
-1 -1;
#X obj 821 354 random 3;
#X obj 821 379 sel 0 1 2;
#X msg 821 413 47;
#X msg 833 436 50;
#X msg 852 458 54;
#X obj 822 503 f;
#X obj 922 505 f;
#X obj 921 381 sel 0 1 2 3;
#X obj 921 356 random 4;
#X msg 921 416 57;
#X msg 933 438 59;
#X msg 952 460 62;
#X msg 965 483 66;
#X obj 1011 504 f;
#X msg 1010 415 66;
#X obj 1010 356 random 3;
#X obj 1010 381 sel 0 1 2;
#X obj 1098 503 f;
#X obj 1097 379 sel 0 1 2 3;
#X obj 1097 354 random 4;
#X msg 1022 437 69;
#X msg 1041 459 71;
#X msg 1097 414 73;
#X msg 1109 436 74;
#X msg 1128 457 76;
#X msg 1141 481 78;
#X text 806 190 automagic;
#X obj 696 346 line;
#X obj 695 275 r fade;
#X msg 696 322 \$1 1000;
#X floatatom 629 501 5 0 0 0 - - -;
#X obj 697 299 * 15;
#X connect 2 0 0 0;
#X connect 3 0 57 0;
#X connect 3 1 57 1;
#X connect 4 0 6 1;
#X connect 5 0 9 0;
#X connect 5 0 7 0;
#X connect 5 0 24 0;
#X connect 6 0 19 0;
#X connect 7 0 4 2;
#X connect 9 0 4 1;
#X connect 10 0 6 0;
#X connect 11 0 18 0;
#X connect 12 0 76 0;
#X connect 13 0 12 2;
#X connect 14 0 12 1;
#X connect 15 0 12 0;
#X connect 15 1 14 0;
#X connect 15 2 13 0;
#X connect 16 0 10 0;
#X connect 16 1 10 1;
#X connect 16 1 46 0;
#X connect 17 0 11 0;
#X connect 17 1 11 1;
#X connect 17 1 47 0;
#X connect 18 0 19 0;
#X connect 19 0 1 0;
#X connect 19 0 1 1;
#X connect 19 0 8 1;
#X connect 19 0 8 2;
#X connect 20 0 19 1;
#X connect 21 0 20 0;
#X connect 21 0 136 0;
#X connect 23 0 22 0;
#X connect 24 0 4 3;
#X connect 25 0 27 0;
#X connect 25 1 27 1;
#X connect 25 1 48 0;
#X connect 26 0 28 0;
#X connect 26 1 28 1;
#X connect 26 1 49 0;
#X connect 27 0 44 0;
#X connect 28 0 45 0;
#X connect 29 0 18 1;
#X connect 30 0 32 0;
#X connect 30 0 31 0;
#X connect 30 0 33 0;
#X connect 31 0 29 2;
#X connect 32 0 29 1;
#X connect 33 0 29 3;
#X connect 34 0 44 1;
#X connect 35 0 37 0;
#X connect 35 0 36 0;
#X connect 35 0 38 0;
#X connect 36 0 34 2;
#X connect 37 0 34 1;
#X connect 38 0 34 3;
#X connect 39 0 45 1;
#X connect 40 0 42 0;
#X connect 40 0 41 0;
#X connect 40 0 43 0;
#X connect 41 0 39 2;
#X connect 42 0 39 1;
#X connect 43 0 39 3;
#X connect 44 0 19 0;
#X connect 45 0 19 0;
#X connect 50 0 4 0;
#X connect 51 0 29 0;
#X connect 52 0 34 0;
#X connect 53 0 39 0;
#X connect 54 0 13 1;
#X connect 57 0 15 0;
#X connect 57 1 2 0;
#X connect 57 1 14 1;
#X connect 57 2 54 0;
#X connect 58 0 72 0;
#X connect 58 1 72 1;
#X connect 58 1 55 0;
#X connect 59 0 73 0;
#X connect 59 1 73 1;
#X connect 59 1 56 0;
#X connect 60 0 70 1;
#X connect 61 0 63 0;
#X connect 61 0 62 0;
#X connect 61 0 64 0;
#X connect 62 0 60 2;
#X connect 63 0 60 1;
#X connect 64 0 60 3;
#X connect 65 0 71 1;
#X connect 66 0 68 0;
#X connect 66 0 67 0;
#X connect 66 0 69 0;
#X connect 67 0 65 2;
#X connect 68 0 65 1;
#X connect 69 0 65 3;
#X connect 70 0 19 0;
#X connect 71 0 19 0;
#X connect 72 0 70 0;
#X connect 73 0 71 0;
#X connect 74 0 60 0;
#X connect 75 0 65 0;
#X connect 76 0 16 0;
#X connect 76 1 17 0;
#X connect 76 2 25 0;
#X connect 76 3 26 0;
#X connect 76 4 58 0;
#X connect 76 5 59 0;
#X connect 81 0 94 0;
#X connect 81 0 102 0;
#X connect 81 0 106 0;
#X connect 82 0 81 1;
#X connect 82 0 46 0;
#X connect 83 0 81 1;
#X connect 83 0 46 0;
#X connect 84 0 81 0;
#X connect 84 0 85 0;
#X connect 84 0 88 0;
#X connect 84 0 92 0;
#X connect 85 0 96 0;
#X connect 85 0 103 0;
#X connect 85 0 114 0;
#X connect 86 0 85 1;
#X connect 86 0 47 0;
#X connect 87 0 85 1;
#X connect 87 0 47 0;
#X connect 88 0 100 0;
#X connect 88 0 105 0;
#X connect 88 0 125 0;
#X connect 89 0 88 1;
#X connect 89 0 55 0;
#X connect 90 0 88 1;
#X connect 90 0 49 0;
#X connect 91 0 92 1;
#X connect 91 0 48 0;
#X connect 92 0 98 0;
#X connect 92 0 104 0;
#X connect 92 0 121 0;
#X connect 93 0 92 1;
#X connect 93 0 48 0;
#X connect 94 0 95 0;
#X connect 95 0 82 0;
#X connect 95 1 83 0;
#X connect 96 0 97 0;
#X connect 97 0 86 0;
#X connect 97 1 87 0;
#X connect 98 0 99 0;
#X connect 99 0 91 0;
#X connect 99 1 93 0;
#X connect 100 0 101 0;
#X connect 101 0 89 0;
#X connect 101 1 90 0;
#X connect 106 0 107 0;
#X connect 107 0 108 0;
#X connect 107 1 109 0;
#X connect 107 2 110 0;
#X connect 108 0 111 0;
#X connect 109 0 111 0;
#X connect 110 0 111 0;
#X connect 111 0 10 0;
#X connect 112 0 11 0;
#X connect 113 0 115 0;
#X connect 113 1 116 0;
#X connect 113 2 117 0;
#X connect 113 3 118 0;
#X connect 114 0 113 0;
#X connect 115 0 112 0;
#X connect 116 0 112 0;
#X connect 117 0 112 0;
#X connect 118 0 112 0;
#X connect 119 0 27 0;
#X connect 120 0 119 0;
#X connect 121 0 122 0;
#X connect 122 0 120 0;
#X connect 122 1 126 0;
#X connect 122 2 127 0;
#X connect 123 0 28 0;
#X connect 124 0 128 0;
#X connect 124 1 129 0;
#X connect 124 2 130 0;
#X connect 124 3 131 0;
#X connect 125 0 124 0;
#X connect 126 0 119 0;
#X connect 127 0 119 0;
#X connect 128 0 123 0;
#X connect 129 0 123 0;
#X connect 130 0 123 0;
#X connect 131 0 123 0;
#X connect 133 0 21 0;
#X connect 134 0 137 0;
#X connect 135 0 133 0;
#X connect 137 0 135 0;
