#N canvas 0 12 1104 633 10;
#N canvas 17 0 1349 686 forme 0;
#X obj 22 676 translateXYZ;
#X obj 16 646 unpack s f f f;
#X obj 22 705 sphere 0.3;
#X obj 143 676 translateXYZ;
#X obj 137 646 unpack s f f f;
#X obj 143 705 sphere 0.3;
#X obj 391 677 translateXYZ;
#X obj 385 647 unpack s f f f;
#X obj 391 706 sphere 0.3;
#X obj 264 678 translateXYZ;
#X obj 258 648 unpack s f f f;
#X obj 264 707 sphere 0.3;
#X obj 303 15 inlet;
#X obj 11 762 gemhead;
#X obj 22 605 gemhead;
#X obj 142 606 gemhead;
#X obj 264 604 gemhead;
#X obj 390 604 gemhead;
#X msg 31 811 \$1 \$2 \$3;
#X msg 62 788 \$1 \$2 \$3;
#X obj 235 766 gemhead;
#X msg 269 816 \$1 \$2 \$3;
#X msg 286 788 \$1 \$2 \$3;
#X obj 360 764 gemhead;
#X msg 394 814 \$1 \$2 \$3;
#X msg 411 790 \$1 \$2 \$3;
#X obj 475 764 gemhead;
#X msg 509 813 \$1 \$2 \$3;
#X msg 526 789 \$1 \$2 \$3;
#X obj 581 763 gemhead;
#X msg 615 813 \$1 \$2 \$3;
#X msg 632 789 \$1 \$2 \$3;
#X obj 11 842 curve 2;
#X obj 236 846 curve 2;
#X obj 360 844 curve 2;
#X obj 581 843 curve 2;
#X obj 120 761 gemhead;
#X msg 140 810 \$1 \$2 \$3;
#X msg 171 787 \$1 \$2 \$3;
#X obj 120 841 curve 2;
#X obj 718 762 gemhead;
#X msg 738 811 \$1 \$2 \$3;
#X obj 718 842 curve 2;
#X obj 475 843 curve 2;
#X obj 27 283 mass3D mass 10 -1 0 0;
#X obj 107 123 link3D link 1 3 1 0.1;
#X obj 322 63 mass3D mass 10 1 0 0;
#X obj 422 138 link3D link 1 3 1 0.1;
#X obj 289 246 link3D link 1 3 1 0.1;
#X obj 276 306 link3D link 1 3 1 0.1;
#X obj 91 403 link3D link 1 3 1 0.1;
#X obj 287 486 mass3D mass 10 0 1 0;
#X obj 458 375 link3D link 1 3 1 0.1;
#X obj 570 273 mass3D mass 10 0 0;
#X obj 758 271 link3D link2 1 0.6 0 0;
#X obj 85 891 outlet;
#X obj 163 891 outlet;
#X obj 241 891 outlet;
#X obj 329 892 outlet;
#X connect 0 0 2 0;
#X connect 1 1 0 1;
#X connect 1 2 0 2;
#X connect 1 3 0 3;
#X connect 3 0 5 0;
#X connect 4 1 3 1;
#X connect 4 2 3 2;
#X connect 4 3 3 3;
#X connect 6 0 8 0;
#X connect 7 1 6 1;
#X connect 7 2 6 2;
#X connect 7 3 6 3;
#X connect 9 0 11 0;
#X connect 10 1 9 1;
#X connect 10 2 9 2;
#X connect 10 3 9 3;
#X connect 12 0 46 0;
#X connect 13 0 32 0;
#X connect 14 0 0 0;
#X connect 15 0 3 0;
#X connect 16 0 9 0;
#X connect 17 0 6 0;
#X connect 18 0 32 1;
#X connect 19 0 32 2;
#X connect 20 0 33 0;
#X connect 21 0 33 1;
#X connect 22 0 33 2;
#X connect 23 0 34 0;
#X connect 24 0 34 1;
#X connect 25 0 34 2;
#X connect 26 0 43 0;
#X connect 27 0 43 1;
#X connect 28 0 43 2;
#X connect 29 0 35 0;
#X connect 30 0 35 1;
#X connect 31 0 35 2;
#X connect 36 0 39 0;
#X connect 37 0 39 1;
#X connect 38 0 39 2;
#X connect 40 0 42 0;
#X connect 41 0 42 1;
#X connect 44 0 50 0;
#X connect 44 0 45 0;
#X connect 44 0 48 0;
#X connect 44 0 1 0;
#X connect 44 0 18 0;
#X connect 44 0 37 0;
#X connect 44 0 21 0;
#X connect 44 0 55 0;
#X connect 45 0 44 0;
#X connect 45 1 46 0;
#X connect 46 0 45 1;
#X connect 46 0 47 0;
#X connect 46 0 49 1;
#X connect 46 0 4 0;
#X connect 46 0 22 0;
#X connect 46 0 28 0;
#X connect 46 0 30 0;
#X connect 46 0 56 0;
#X connect 47 0 46 0;
#X connect 47 1 53 0;
#X connect 48 0 44 0;
#X connect 48 1 53 0;
#X connect 49 0 51 0;
#X connect 49 1 46 0;
#X connect 50 0 44 0;
#X connect 50 1 51 0;
#X connect 51 0 50 1;
#X connect 51 0 52 0;
#X connect 51 0 49 0;
#X connect 51 0 10 0;
#X connect 51 0 19 0;
#X connect 51 0 24 0;
#X connect 51 0 27 0;
#X connect 51 0 57 0;
#X connect 52 0 51 0;
#X connect 52 1 53 0;
#X connect 53 0 52 1;
#X connect 53 0 48 1;
#X connect 53 0 7 0;
#X connect 53 0 38 0;
#X connect 53 0 25 0;
#X connect 53 0 31 0;
#X connect 53 0 41 0;
#X connect 53 0 47 1;
#X connect 53 0 54 0;
#X connect 53 0 58 0;
#X connect 54 0 53 0;
#X restore 20 391 pd forme;
#X obj 10 26 tgl 15 0 empty empty empty 0 -6 0 8 -262144 -1 -1 1 1
;
#X obj 78 105 s link;
#X obj 10 104 s mass;
#X obj 14 261 s mass;
#X obj 10 47 metro 50;
#X msg 193 73 destroy;
#X msg 166 48 reset \, create \, 1 \, lighting 1;
#X obj 166 106 gemwin;
#X obj 837 522 world_light;
#X obj 78 129 s link2;
#X msg 14 160 force3D 0 0 1;
#X msg 22 184 force3D 0 1 0;
#X msg 31 208 force3D 1 0 0;
#X obj 837 497 gemhead 1;
#X msg 39 232 force3D 2 1 1;
#X obj 10 73 t b b;
#N canvas 11 88 782 499 change 0;
#X msg 102 189 setK \$1;
#X msg 170 189 setD \$1;
#X msg 33 73 setM \$1;
#X floatatom 102 162 5 0 0 0 - - -;
#X floatatom 170 162 5 0 0 0 - - -;
#X floatatom 33 50 5 5 100 0 - - -;
#X obj 33 216 s link;
#X obj 33 99 s mass;
#X floatatom 33 163 5 0 0 0 - - -;
#X msg 33 189 setL \$1;
#X obj 36 380 s link2;
#X floatatom 36 297 5 0 0 0 - - -;
#X msg 36 319 setL \$1;
#X msg 33 140 1;
#X msg 171 140 1;
#X msg 102 139 3;
#X msg 33 26 10;
#X msg 102 319 setK \$1;
#X msg 170 319 setD \$1;
#X floatatom 102 293 5 0 0 0 - - -;
#X floatatom 170 293 5 0 0 0 - - -;
#X text 106 27 <- default value;
#X text 109 100 weight of the mass;
#X text 317 137 <- default values;
#X text 315 189 pyramide linkison properties;
#X text 257 270 <- default values;
#X text 258 318 linkison beetween the pyramide and a fixed point (0
\, 0 \, 0);
#X msg 36 273 1;
#X msg 102 270 0.6;
#X msg 171 271 0;
#X floatatom 238 162 5 0 0 0 - - -;
#X msg 238 189 setD2 \$1;
#X msg 239 140 0.1;
#X text 36 429 take care to extrem values;
#X connect 0 0 6 0;
#X connect 1 0 6 0;
#X connect 2 0 7 0;
#X connect 3 0 0 0;
#X connect 4 0 1 0;
#X connect 5 0 2 0;
#X connect 8 0 9 0;
#X connect 9 0 6 0;
#X connect 11 0 12 0;
#X connect 12 0 10 0;
#X connect 13 0 8 0;
#X connect 14 0 4 0;
#X connect 15 0 3 0;
#X connect 16 0 5 0;
#X connect 17 0 10 0;
#X connect 18 0 10 0;
#X connect 19 0 17 0;
#X connect 20 0 18 0;
#X connect 27 0 11 0;
#X connect 28 0 19 0;
#X connect 29 0 20 0;
#X connect 30 0 31 0;
#X connect 31 0 6 0;
#X connect 32 0 30 0;
#X restore 838 459 pd change physical properties;
#X text 59 260 <- send forces to the 4 masss;
#X text 86 390 <- send forces to a masss;
#X text 44 22 <- 1;
#X text 347 45 <- 2;
#X obj 372 326 unpack s f f f;
#X floatatom 403 355 5 0 0 0 - - -;
#X floatatom 435 380 5 0 0 0 - - -;
#X floatatom 467 405 5 0 0 0 - - -;
#X obj 486 327 unpack s f f f;
#X floatatom 517 356 5 0 0 0 - - -;
#X floatatom 549 381 5 0 0 0 - - -;
#X floatatom 581 406 5 0 0 0 - - -;
#X obj 374 430 unpack s f f f;
#X floatatom 405 459 5 0 0 0 - - -;
#X floatatom 437 484 5 0 0 0 - - -;
#X floatatom 469 509 5 0 0 0 - - -;
#X obj 487 431 unpack s f f f;
#X floatatom 518 460 5 0 0 0 - - -;
#X floatatom 550 485 5 0 0 0 - - -;
#X floatatom 582 510 5 0 0 0 - - -;
#X text 374 299 max for each = 5?;
#X obj 591 117 fm;
#X obj 630 244 *~;
#X floatatom 909 94 5 0 0 0 - - -;
#X floatatom 919 114 5 0 0 0 - - -;
#X floatatom 959 94 5 0 0 0 - - -;
#X floatatom 969 114 5 0 0 0 - - -;
#X floatatom 1009 94 5 0 0 0 - - -;
#X floatatom 1059 94 5 0 0 0 - - -;
#X obj 894 126 bng 15 80 10 0 empty empty empty 17 7 0 10 -262144 -1
-1;
#X text 1015 77 S;
#X text 1065 77 R;
#X text 915 77 A (L);
#X text 965 77 D (L);
#X floatatom 1009 34 5 0 0 0 - - -;
#X obj 1009 58 * 0.6;
#X msg 672 93 62;
#X msg 625 91 0.008;
#X obj 830 219 cnv 15 223 20 empty empty 365.days.of.creative.coding
23 12 1 16 -128992 -257985 0;
#X obj 830 243 cnv 15 223 20 empty empty mrfunkyland 131 12 1 16 -128992
-257985 0;
#X obj 830 267 cnv 15 223 50 empty empty day 135 20 1 50 -128992 -260097
0;
#X obj 830 318 cnv 15 223 40 empty empty fourteen 35 15 1 50 -128992
-257985 0;
#X obj 692 117 fm;
#X obj 731 244 *~;
#X msg 773 93 62;
#X msg 726 91 0.008;
#X obj 398 117 fm;
#X obj 437 244 *~;
#X msg 479 93 62;
#X msg 432 91 0.008;
#X obj 499 117 fm;
#X obj 538 244 *~;
#X msg 533 91 0.008;
#X obj 582 297 *~ 0.2;
#X obj 168 586 dac~;
#X obj 675 525 / 127;
#X obj 675 388 vsl 15 128 0 127 0 0 empty empty empty 0 -9 0 10 -262144
-1 -1 9500 1;
#X msg 700 469 \; pd dsp \$1;
#X obj 702 448 tgl 15 0 empty empty empty 17 7 0 10 -262144 -1 -1 1
1;
#X obj 56 554 recorder~;
#X obj 167 519 *~;
#X text 375 541 z depth determines volume;
#X obj 206 209 mtof;
#X floatatom 207 183 5 0 0 0 - - -;
#X floatatom 203 235 5 0 0 0 - - -;
#X obj 209 134 + 5;
#X obj 207 157 * 10;
#X obj 258 207 mtof;
#X floatatom 259 181 5 0 0 0 - - -;
#X floatatom 255 233 5 0 0 0 - - -;
#X obj 261 132 + 5;
#X obj 259 155 * 10;
#X obj 304 206 mtof;
#X floatatom 305 180 5 0 0 0 - - -;
#X floatatom 301 232 5 0 0 0 - - -;
#X obj 307 131 + 5;
#X obj 305 154 * 10;
#X obj 356 204 mtof;
#X floatatom 357 178 5 0 0 0 - - -;
#X floatatom 353 230 5 0 0 0 - - -;
#X obj 359 129 + 5;
#X obj 357 152 * 10;
#X obj 737 8 tgl 15 0 empty empty empty 17 7 0 10 -262144 -1 -1 1 1
;
#X obj 735 37 metro 500;
#X obj 640 330 + 5;
#X obj 691 329 + 5;
#X obj 737 329 + 5;
#X obj 788 328 + 5;
#X obj 748 397 + 5;
#X obj 789 395 + 5;
#X obj 830 395 + 5;
#X obj 871 393 + 5;
#X obj 748 420 * 10;
#X obj 789 418 * 10;
#X obj 830 418 * 10;
#X obj 871 416 * 10;
#X obj 398 56 line;
#X msg 399 34 \$1 20;
#X obj 501 55 line;
#X msg 502 33 \$1 20;
#X obj 594 55 line;
#X msg 595 33 \$1 20;
#X obj 688 56 line;
#X msg 689 34 \$1 20;
#X obj 640 354 * 0.001;
#X obj 691 353 * 0.001;
#X obj 737 353 * 0.001;
#X obj 788 352 * 0.001;
#X msg 158 155 3;
#X obj 23 452 delwrite~ del1 500;
#X obj 146 451 delwrite~ del2 500;
#X obj 265 452 delwrite~ del3 500;
#X obj 24 484 delread~ del1 333;
#X obj 266 480 delread~ del3 500;
#X obj 145 482 delread~ del2 375;
#X floatatom 781 13 5 0 0 0 - - -;
#X obj 254 381 r tempo;
#X obj 317 393 * 0.6666;
#X obj 825 11 s tempo;
#X obj 318 416 * 0.75;
#X obj 24 428 *~ 0.3;
#X obj 144 428 *~ 0.3;
#X obj 264 428 *~ 0.3;
#X msg 693 9 400;
#X obj 635 10 loadbang;
#X obj 247 586 line~;
#X obj 168 552 *~;
#X obj 897 149 envy 1 20 0.4 20 240 10;
#X msg 268 291 force3D 5 5 5;
#X text 86 284 map to keys;
#X obj 919 375 keyname;
#X symbolatom 958 400 10 0 0 0 - - -;
#X obj 919 423 sel 1;
#X obj 979 419 symbol;
#X symbolatom 980 440 10 0 0 0 - - -;
#X obj 757 557 sel Left Right Up Down Prior Next Return Space;
#X msg 20 304 force3D 0 0 5;
#X msg 126 305 force3D 0 0 -5;
#X msg 26 328 force3D 0 5 0;
#X msg 132 329 force3D 0 -5 0;
#X msg 35 352 force3D 5 0 0;
#X msg 141 353 force3D -5 0 0;
#X msg 267 90 21;
#X msg 328 531 0 4000;
#X obj 249 555 line;
#X msg 289 568 \$1 20;
#X floatatom 384 571 5 0 0 0 - - -;
#X msg 250 531 1 500;
#X connect 0 0 22 0;
#X connect 0 1 26 0;
#X connect 0 2 30 0;
#X connect 0 3 34 0;
#X connect 1 0 5 0;
#X connect 5 0 16 0;
#X connect 6 0 8 0;
#X connect 7 0 8 0;
#X connect 11 0 4 0;
#X connect 12 0 4 0;
#X connect 13 0 4 0;
#X connect 14 0 9 0;
#X connect 15 0 4 0;
#X connect 16 0 3 0;
#X connect 16 1 2 0;
#X connect 16 1 10 0;
#X connect 22 1 23 0;
#X connect 22 2 24 0;
#X connect 22 3 25 0;
#X connect 23 0 83 0;
#X connect 24 0 102 0;
#X connect 25 0 106 0;
#X connect 26 1 27 0;
#X connect 26 1 88 0;
#X connect 26 2 28 0;
#X connect 26 3 29 0;
#X connect 28 0 103 0;
#X connect 29 0 107 0;
#X connect 30 1 31 0;
#X connect 30 1 93 0;
#X connect 30 2 32 0;
#X connect 30 3 33 0;
#X connect 32 0 104 0;
#X connect 33 0 108 0;
#X connect 34 1 35 0;
#X connect 34 1 98 0;
#X connect 34 2 36 0;
#X connect 34 3 37 0;
#X connect 36 0 105 0;
#X connect 37 0 109 0;
#X connect 39 0 40 0;
#X connect 39 1 40 0;
#X connect 40 0 71 0;
#X connect 40 0 140 0;
#X connect 41 0 145 1;
#X connect 42 0 145 2;
#X connect 43 0 145 3;
#X connect 44 0 145 4;
#X connect 45 0 145 5;
#X connect 46 0 145 6;
#X connect 47 0 145 0;
#X connect 52 0 53 0;
#X connect 53 0 45 0;
#X connect 54 0 39 2;
#X connect 55 0 39 1;
#X connect 60 0 61 0;
#X connect 60 1 61 0;
#X connect 61 0 71 0;
#X connect 61 0 138 0;
#X connect 62 0 60 2;
#X connect 63 0 60 1;
#X connect 64 0 65 0;
#X connect 64 1 65 0;
#X connect 65 0 71 0;
#X connect 65 0 138 0;
#X connect 66 0 64 2;
#X connect 67 0 64 1;
#X connect 68 0 69 0;
#X connect 68 1 69 0;
#X connect 69 0 71 0;
#X connect 69 0 139 0;
#X connect 70 0 68 1;
#X connect 71 0 78 0;
#X connect 73 0 144 1;
#X connect 74 0 73 0;
#X connect 76 0 75 0;
#X connect 78 0 144 0;
#X connect 80 0 82 0;
#X connect 81 0 80 0;
#X connect 81 0 115 0;
#X connect 83 0 84 0;
#X connect 84 0 81 0;
#X connect 85 0 87 0;
#X connect 86 0 85 0;
#X connect 86 0 68 0;
#X connect 86 0 117 0;
#X connect 88 0 89 0;
#X connect 89 0 86 0;
#X connect 90 0 92 0;
#X connect 91 0 90 0;
#X connect 91 0 39 0;
#X connect 91 0 119 0;
#X connect 93 0 94 0;
#X connect 94 0 91 0;
#X connect 95 0 97 0;
#X connect 96 0 95 0;
#X connect 96 0 60 0;
#X connect 96 0 121 0;
#X connect 98 0 99 0;
#X connect 99 0 96 0;
#X connect 100 0 101 0;
#X connect 101 0 47 0;
#X connect 102 0 122 0;
#X connect 103 0 123 0;
#X connect 104 0 124 0;
#X connect 105 0 125 0;
#X connect 106 0 110 0;
#X connect 107 0 111 0;
#X connect 108 0 112 0;
#X connect 109 0 113 0;
#X connect 110 0 64 2;
#X connect 111 0 68 2;
#X connect 112 0 39 2;
#X connect 113 0 60 2;
#X connect 114 0 64 0;
#X connect 115 0 114 0;
#X connect 116 0 68 0;
#X connect 117 0 116 0;
#X connect 118 0 39 0;
#X connect 119 0 118 0;
#X connect 120 0 60 0;
#X connect 121 0 120 0;
#X connect 122 0 64 1;
#X connect 123 0 68 1;
#X connect 124 0 39 1;
#X connect 125 0 60 1;
#X connect 126 0 84 1;
#X connect 126 0 89 1;
#X connect 126 0 94 1;
#X connect 126 0 99 1;
#X connect 130 0 78 0;
#X connect 130 0 139 0;
#X connect 131 0 78 0;
#X connect 131 0 138 0;
#X connect 132 0 78 0;
#X connect 132 0 140 0;
#X connect 133 0 101 1;
#X connect 133 0 52 0;
#X connect 133 0 136 0;
#X connect 134 0 135 0;
#X connect 134 0 137 0;
#X connect 134 0 131 0;
#X connect 135 0 130 0;
#X connect 137 0 132 0;
#X connect 138 0 127 0;
#X connect 139 0 128 0;
#X connect 140 0 129 0;
#X connect 141 0 133 0;
#X connect 142 0 141 0;
#X connect 142 0 160 0;
#X connect 142 0 126 0;
#X connect 143 0 78 1;
#X connect 144 0 72 0;
#X connect 144 0 72 1;
#X connect 144 0 77 1;
#X connect 144 0 77 2;
#X connect 145 0 40 1;
#X connect 145 0 61 1;
#X connect 145 0 69 1;
#X connect 145 0 65 1;
#X connect 146 0 0 0;
#X connect 148 0 150 0;
#X connect 148 1 149 0;
#X connect 149 0 151 1;
#X connect 150 0 151 0;
#X connect 150 0 165 0;
#X connect 150 1 161 0;
#X connect 151 0 152 0;
#X connect 151 0 153 0;
#X connect 153 0 159 0;
#X connect 153 1 158 0;
#X connect 153 2 157 0;
#X connect 153 3 156 0;
#X connect 153 4 155 0;
#X connect 153 5 154 0;
#X connect 153 6 146 0;
#X connect 153 7 146 0;
#X connect 154 0 0 0;
#X connect 155 0 0 0;
#X connect 156 0 0 0;
#X connect 157 0 0 0;
#X connect 158 0 0 0;
#X connect 159 0 0 0;
#X connect 160 0 83 1;
#X connect 160 0 88 1;
#X connect 160 0 93 1;
#X connect 160 0 98 1;
#X connect 161 0 162 0;
#X connect 162 0 163 0;
#X connect 162 0 164 0;
#X connect 163 0 143 0;
#X connect 165 0 162 0;
