#N canvas 454 24 849 638 10;
#N canvas 434 68 814 529 createmodes 0;
#X obj 551 22 table chromatic 128;
#X text 653 45 in C;
#X obj 551 46 table tonal 75;
#X obj 21 127 f;
#X obj 51 126 + 1;
#X obj 52 147 < 129;
#X obj 50 190 del 2;
#X obj 60 43 bng 15 250 50 0 empty empty empty 0 -6 0 10 -4034 -1 -1
;
#X obj 16 259 tabwrite chromatic;
#X obj 20 221 t f f;
#X obj 418 104 bng 15 250 50 0 empty empty empty 0 -6 0 10 -262144
-1 -1;
#X obj 423 202 tgl 15 0 empty empty empty 0 -6 0 10 -262144 -1 -1 0
1;
#X obj 416 124 f;
#X obj 446 124 + 1;
#X msg 461 100 0;
#X obj 446 147 < 86;
#X obj 453 274 f;
#X obj 419 273 +;
#X obj 441 247 t f b;
#X floatatom 419 299 5 0 0 0 - - -;
#X msg 502 98 -2;
#X obj 423 223 + 1;
#X obj 419 321 t b f;
#X obj 405 342 del 2;
#X floatatom 463 357 5 0 0 0 - - -;
#X obj 414 394 tabwrite oct;
#X obj 417 75 t b b b;
#X obj 415 44 bng 15 250 50 0 empty empty empty 0 -6 0 10 -262144 -1
-1;
#X obj 51 168 sel 1 0;
#X obj 445 170 sel 1 0;
#X obj 552 68 table oct 86;
#X obj 49 12 inlet;
#X obj 526 473 outlet;
#X obj 317 449 f;
#X obj 553 96 table revtonal 128;
#X obj 323 416 t b f;
#X obj 318 486 tabwrite revtonal;
#X msg 550 188 \; tonal const 0;
#X obj 58 436 print;
#X obj 234 239 % 12;
#X floatatom 179 217 5 0 0 0 - - -;
#X floatatom 355 273 5 0 0 0 - - -;
#X obj 246 218 t f f;
#X obj 262 322 f;
#X obj 239 142 line;
#X floatatom 287 159 5 0 0 0 - - -;
#X obj 240 170 int;
#X obj 603 504 tabwrite tonal;
#X obj 318 361 f;
#X obj 358 361 + 1;
#X obj 292 81 t b b;
#X msg 359 331 0;
#X obj 284 61 bng 15 250 50 0 empty empty empty 17 7 0 10 -262144 -1
-1;
#X obj 756 469 print;
#X obj 321 201 bng 15 250 50 0 empty empty empty 17 7 0 10 -262144
-1 -1;
#X obj 249 297 t b;
#X obj 176 190 change;
#X floatatom 328 395 5 0 0 0 - - -;
#X obj 263 349 t f b;
#X obj 166 275 sel 1;
#X obj 164 248 >= 127;
#X msg 231 114 0 \, 127 3000;
#X msg 550 238 \; revtonal const 0;
#X obj 564 142 loadbang;
#X obj 564 325 sel 0 2 4 5 7 9 11;
#X text 634 297 c major;
#X obj 213 266 sel 0 2 4 6 7 9 11;
#X text 285 246 g major;
#X obj 564 355 t b;
#X obj 692 356 t b;
#X text 702 297 f major;
#X obj 692 326 sel 0 2 4 5 7 9 10;
#X connect 3 0 4 0;
#X connect 3 0 9 0;
#X connect 4 0 3 1;
#X connect 4 0 5 0;
#X connect 5 0 28 0;
#X connect 6 0 3 0;
#X connect 7 0 3 0;
#X connect 9 0 8 0;
#X connect 9 1 8 1;
#X connect 10 0 12 0;
#X connect 11 0 21 0;
#X connect 12 0 13 0;
#X connect 12 0 25 1;
#X connect 13 0 12 1;
#X connect 13 0 15 0;
#X connect 14 0 12 1;
#X connect 15 0 29 0;
#X connect 16 0 17 1;
#X connect 17 0 16 1;
#X connect 17 0 19 0;
#X connect 18 0 17 0;
#X connect 18 1 16 0;
#X connect 19 0 22 0;
#X connect 20 0 16 1;
#X connect 21 0 18 0;
#X connect 22 0 23 0;
#X connect 22 1 24 0;
#X connect 22 1 25 0;
#X connect 23 0 10 0;
#X connect 26 0 10 0;
#X connect 26 1 14 0;
#X connect 26 2 20 0;
#X connect 27 0 26 0;
#X connect 28 0 6 0;
#X connect 28 1 52 0;
#X connect 29 0 11 0;
#X connect 29 1 32 0;
#X connect 31 0 7 0;
#X connect 33 0 36 0;
#X connect 35 0 33 0;
#X connect 35 1 36 1;
#X connect 39 0 41 0;
#X connect 39 0 71 0;
#X connect 40 0 42 0;
#X connect 40 0 60 0;
#X connect 42 0 39 0;
#X connect 42 1 43 1;
#X connect 43 0 58 0;
#X connect 44 0 46 0;
#X connect 46 0 56 0;
#X connect 48 0 49 0;
#X connect 48 0 57 0;
#X connect 48 0 47 1;
#X connect 48 0 33 1;
#X connect 49 0 48 1;
#X connect 50 0 61 0;
#X connect 50 1 51 0;
#X connect 51 0 48 1;
#X connect 52 0 50 0;
#X connect 55 0 43 0;
#X connect 56 0 40 0;
#X connect 58 0 47 0;
#X connect 58 0 35 0;
#X connect 58 1 48 0;
#X connect 59 0 27 0;
#X connect 60 0 59 0;
#X connect 61 0 44 0;
#X connect 63 0 37 0;
#X connect 63 0 62 0;
#X connect 64 0 68 0;
#X connect 64 1 68 0;
#X connect 64 2 68 0;
#X connect 64 3 68 0;
#X connect 64 4 68 0;
#X connect 64 5 68 0;
#X connect 64 6 68 0;
#X connect 66 0 55 0;
#X connect 66 1 55 0;
#X connect 66 2 55 0;
#X connect 66 3 55 0;
#X connect 66 4 55 0;
#X connect 66 5 55 0;
#X connect 66 6 55 0;
#X connect 66 7 54 0;
#X connect 68 0 43 0;
#X connect 69 0 43 0;
#X connect 71 0 69 0;
#X connect 71 1 69 0;
#X connect 71 2 69 0;
#X connect 71 3 69 0;
#X connect 71 4 69 0;
#X connect 71 5 69 0;
#X connect 71 6 69 0;
#X restore 675 604 pd createmodes;
#X obj 673 582 bng 15 250 50 0 empty empty empty 17 7 0 10 -262144
-1 -1;
#X obj 674 554 loadbang;
#X obj 611 12 cnv 15 223 20 empty empty 365.days.of.creative.coding
23 12 1 16 -128992 -257985 0;
#X obj 611 36 cnv 15 223 20 empty empty mrfunkyland 131 12 1 16 -128992
-257985 0;
#X obj 611 60 cnv 15 124 60 empty empty day 3 27 1 50 -128992 -260097
0;
#X obj 734 60 cnv 15 100 60 empty empty seven -35 27 1 50 -128992 -257985
0;
#X obj 43 38 metro 500;
#X obj 43 66 f;
#X obj 76 66 + 1;
#X msg 12 66 0;
#X obj 43 13 tgl 15 0 empty empty empty 17 7 0 10 -262144 -1 -1 1 1
;
#X floatatom 94 15 5 0 0 0 - - -;
#X obj 107 38 s tempo;
#X obj 115 580 *~;
#X obj 108 609 dac~;
#X obj 241 475 vsl 15 128 0 127 0 0 empty empty empty 0 -9 0 10 -262144
-1 -1 1400 1;
#X obj 241 614 / 127;
#X obj 267 553 tgl 15 0 empty empty empty 17 7 0 10 -262144 -1 -1 1
1;
#X msg 267 573 \; pd dsp \$1;
#X obj 3 600 recorder~;
#X obj 173 13 loadbang;
#X obj 258 54 s root;
#X floatatom 258 29 5 0 0 0 - - -;
#X msg 316 57 63;
#X obj 316 32 t b b;
#X obj 317 10 bng 15 250 50 0 empty empty empty 17 7 0 10 -262144 -1
-1;
#X obj 43 91 % 8;
#X msg 77 93 4;
#X msg 107 93 8;
#N canvas 19 86 581 530 bassline 1;
#X obj 69 192 bng 15 250 50 0 empty empty empty 17 7 0 10 -262144 -1
-1;
#X floatatom 132 285 5 0 0 0 - - -;
#X obj 69 339 fm;
#X obj 149 245 r tempo;
#X obj 69 258 makenotes 1;
#X obj 166 164 del;
#X obj 180 115 r tempo;
#X obj 180 138 * 0.75;
#X msg 362 196 0;
#X msg 475 194 -5;
#X obj 362 160 sel 0 1 2 3;
#X obj 439 239 r root;
#X obj 360 263 expr $f2 + ($f1 - 24);
#X floatatom 359 289 5 0 0 0 - - -;
#X obj 339 163 bng 15 250 50 0 empty empty empty 17 7 0 10 -262144
-1 -1;
#X obj 69 167 sel 1 5 0;
#X obj 342 127 random 5;
#X obj 174 429 envy ------------;
#X floatatom 286 374 5 0 0 0 - - -;
#X obj 171 406 bng 15 80 10 0 empty empty empty 17 7 0 10 -262144 -1
-1;
#X text 292 357 S;
#X text 192 357 A (L);
#X text 242 357 D (L);
#X msg 135 483 \$1 0.5 \, \$1 0.5 \, \$1 0.5 \, \$1 0.5 \, \$1 0.5
\$1 0.5 \, \$1 0.5 \, \$1 0.5;
#X floatatom 286 314 5 0 0 0 - - -;
#X obj 286 338 * 0.6;
#X msg 150 315 62;
#X msg 103 313 0.008;
#X msg 397 195 -2;
#X obj 65 44 inlet;
#X obj 75 489 outlet~;
#X obj 86 461 *~;
#X msg 196 382 1;
#X msg 206 406 10;
#X msg 234 379 0.27;
#X msg 341 380 10;
#X text 342 357 R;
#X obj 205 322 loadbang;
#X msg 435 194 -4;
#X msg 114 211 \$1 1 \, \$1 1 \, \$1 1 \, \$1 1;
#X obj 23 378 osc~;
#X obj 23 351 mtof;
#X msg 237 405 40;
#X obj 21 418 *~ 1.5;
#X connect 0 0 4 0;
#X connect 2 0 31 0;
#X connect 2 1 31 0;
#X connect 3 0 4 2;
#X connect 4 0 2 0;
#X connect 4 0 19 0;
#X connect 4 0 41 0;
#X connect 4 1 24 0;
#X connect 4 2 1 0;
#X connect 5 0 16 0;
#X connect 6 0 7 0;
#X connect 7 0 5 1;
#X connect 8 0 12 0;
#X connect 9 0 12 0;
#X connect 10 0 8 0;
#X connect 10 1 28 0;
#X connect 10 2 38 0;
#X connect 10 3 9 0;
#X connect 10 4 8 0;
#X connect 11 0 12 1;
#X connect 12 0 13 0;
#X connect 13 0 39 0;
#X connect 15 0 0 0;
#X connect 15 1 0 0;
#X connect 15 2 5 0;
#X connect 16 0 10 0;
#X connect 16 0 14 0;
#X connect 17 0 31 1;
#X connect 18 0 17 5;
#X connect 19 0 17 0;
#X connect 23 0 4 1;
#X connect 24 0 25 0;
#X connect 25 0 18 0;
#X connect 26 0 2 2;
#X connect 27 0 2 1;
#X connect 28 0 12 0;
#X connect 29 0 15 0;
#X connect 31 0 30 0;
#X connect 32 0 17 1;
#X connect 33 0 17 2;
#X connect 34 0 17 3;
#X connect 35 0 17 6;
#X connect 37 0 35 0;
#X connect 37 0 34 0;
#X connect 37 0 42 0;
#X connect 37 0 32 0;
#X connect 37 0 33 0;
#X connect 38 0 12 0;
#X connect 39 0 4 1;
#X connect 40 0 43 0;
#X connect 41 0 40 0;
#X connect 42 0 17 4;
#X connect 43 0 31 0;
#X restore 48 229 pd bassline;
#X obj 166 205 cosr 42 10 7.333;
#X obj 167 236 tabread tonal;
#X obj 166 273 mtof;
#X obj 166 297 osc~;
#X obj 166 351 *~;
#X obj 253 288 envy -------;
#X obj 243 265 bng 15 250 50 0 empty empty empty 17 7 0 10 -262144
-1 -1;
#X msg 265 238 1;
#X msg 275 266 20;
#X msg 381 239 20;
#X floatatom 120 268 5 0 0 0 - - -;
#X obj 151 73 metro 500;
#X obj 151 101 f;
#X obj 184 101 + 1;
#X obj 230 96 / 2;
#X obj 250 123 s tempo2;
#X msg 308 239 0.4;
#X msg 345 238 50;
#X msg 320 265 150;
#X obj 219 361 delwrite~ d1 350;
#X obj 220 335 *~ 0.2;
#X obj 298 192 loadbang;
#X obj 218 386 delread~ d1 375;
#X obj 474 256 makenotes 2;
#X obj 590 279 envy -------;
#X obj 580 256 bng 15 250 50 0 empty empty empty 17 7 0 10 -262144
-1 -1;
#X msg 602 229 1;
#X msg 612 257 20;
#X msg 718 230 20;
#X msg 645 230 0.4;
#X msg 682 229 50;
#X msg 657 256 150;
#X obj 635 183 loadbang;
#X obj 474 311 fm;
#X obj 523 404 *~;
#X obj 118 296 print;
#X obj 477 124 sel 1;
#X obj 535 231 r tempo;
#X obj 477 103 % 6;
#X obj 91 510 *~;
#X obj 119 435 vsl 15 64 0 127 0 0 empty empty empty 0 -9 0 10 -262144
-1 -1 0 1;
#X obj 121 511 / 127;
#X obj 16 508 *~;
#X obj 44 433 vsl 15 64 0 127 0 0 empty empty empty 0 -9 0 10 -262144
-1 -1 0 1;
#X obj 46 509 / 127;
#X obj 164 511 *~;
#X obj 192 436 vsl 15 64 0 127 0 0 empty empty empty 0 -9 0 10 -262144
-1 -1 0 1;
#X obj 194 512 / 127;
#X obj 653 367 fm;
#X msg 494 289 0.018;
#X msg 542 291 88;
#X obj 670 317 + 5;
#X floatatom 691 293 5 0 0 0 - - -;
#X obj 564 513 tabread tonal;
#X floatatom 567 482 5 0 0 0 - - -;
#X floatatom 562 543 5 0 0 0 - - -;
#X msg 515 155 0 1 \, 33 0.5 \, 31 0.5 \, 32 0.5 \, 0 1 \, 33 1 \,
31 0.5 \, 32 1;
#X obj 402 283 tabread tonal;
#X obj 719 332 tabread tonal;
#X floatatom 756 278 5 0 0 0 - - -;
#X floatatom 601 370 5 0 0 0 - - -;
#X msg 138 12 300;
#X msg 211 37 62;
#X msg 48 401 30;
#X obj 622 462 *~ 0.5;
#X connect 1 0 0 0;
#X connect 2 0 1 0;
#X connect 7 0 8 0;
#X connect 8 0 9 0;
#X connect 8 0 27 0;
#X connect 8 0 69 0;
#X connect 9 0 8 1;
#X connect 10 0 8 0;
#X connect 10 0 43 1;
#X connect 11 0 7 0;
#X connect 11 0 42 0;
#X connect 12 0 7 1;
#X connect 12 0 13 0;
#X connect 12 0 45 0;
#X connect 14 0 15 0;
#X connect 14 0 15 1;
#X connect 14 0 20 1;
#X connect 14 0 20 2;
#X connect 16 0 17 0;
#X connect 17 0 14 1;
#X connect 18 0 19 0;
#X connect 21 0 92 0;
#X connect 21 0 10 0;
#X connect 21 0 93 0;
#X connect 23 0 22 0;
#X connect 24 0 23 0;
#X connect 25 0 24 0;
#X connect 26 0 25 0;
#X connect 27 0 30 0;
#X connect 28 0 27 1;
#X connect 29 0 27 1;
#X connect 30 0 73 0;
#X connect 31 0 32 0;
#X connect 32 0 33 0;
#X connect 32 0 37 0;
#X connect 32 0 41 0;
#X connect 33 0 34 0;
#X connect 34 0 35 0;
#X connect 35 0 51 0;
#X connect 35 0 70 0;
#X connect 36 0 35 1;
#X connect 37 0 36 0;
#X connect 38 0 36 1;
#X connect 39 0 36 2;
#X connect 40 0 36 6;
#X connect 42 0 43 0;
#X connect 43 0 44 0;
#X connect 43 0 31 0;
#X connect 44 0 43 1;
#X connect 45 0 46 0;
#X connect 45 0 42 1;
#X connect 47 0 36 3;
#X connect 48 0 36 5;
#X connect 49 0 36 4;
#X connect 51 0 50 0;
#X connect 52 0 38 0;
#X connect 52 0 39 0;
#X connect 52 0 47 0;
#X connect 52 0 49 0;
#X connect 52 0 48 0;
#X connect 52 0 40 0;
#X connect 53 0 51 0;
#X connect 53 0 70 0;
#X connect 54 0 56 0;
#X connect 54 0 88 0;
#X connect 54 0 91 0;
#X connect 55 0 65 1;
#X connect 56 0 55 0;
#X connect 57 0 55 1;
#X connect 58 0 55 2;
#X connect 59 0 55 6;
#X connect 60 0 55 3;
#X connect 61 0 55 5;
#X connect 62 0 55 4;
#X connect 63 0 57 0;
#X connect 63 0 58 0;
#X connect 63 0 60 0;
#X connect 63 0 62 0;
#X connect 63 0 61 0;
#X connect 63 0 59 0;
#X connect 63 0 80 0;
#X connect 63 0 81 0;
#X connect 64 0 65 0;
#X connect 65 0 76 0;
#X connect 67 0 87 0;
#X connect 67 0 54 0;
#X connect 68 0 54 2;
#X connect 69 0 67 0;
#X connect 70 0 14 0;
#X connect 71 0 72 0;
#X connect 72 0 70 1;
#X connect 73 0 14 0;
#X connect 74 0 75 0;
#X connect 75 0 73 1;
#X connect 76 0 14 0;
#X connect 77 0 78 0;
#X connect 78 0 76 1;
#X connect 79 0 95 0;
#X connect 80 0 64 1;
#X connect 80 0 79 1;
#X connect 81 0 64 2;
#X connect 81 0 79 2;
#X connect 82 0 89 0;
#X connect 83 0 82 1;
#X connect 84 0 86 0;
#X connect 85 0 84 0;
#X connect 87 0 54 1;
#X connect 88 0 64 0;
#X connect 89 0 79 0;
#X connect 90 0 82 0;
#X connect 92 0 12 0;
#X connect 93 0 23 0;
#X connect 94 0 74 0;
#X connect 95 0 65 0;
