#N canvas 96 163 904 582 10;
#X obj 33 177 makenotes 1;
#X obj 33 131 bng 15 250 50 0 empty empty empty 17 7 0 10 -262144 -1
-1;
#X floatatom 96 204 5 0 0 0 - - -;
#X obj 665 12 cnv 15 200 20 empty empty 365.days.of.creative.coding
5 12 1 16 -128992 -257985 0;
#X obj 665 36 cnv 15 200 20 empty empty mrfunkyland 112 12 1 16 -128992
-257985 0;
#X obj 665 60 cnv 15 100 60 empty empty day 5 27 1 50 -128992 -260097
0;
#X obj 765 60 cnv 15 100 60 empty empty three -15 27 1 50 -128992 -257985
0;
#X obj 33 28 metro 500;
#X obj 33 56 f;
#X obj 66 56 + 1;
#X msg 2 56 0;
#X obj 33 3 tgl 15 0 empty empty empty 17 7 0 10 -262144 -1 -1 1 1
;
#X obj 122 526 *~;
#X obj 122 548 dac~;
#X obj 528 370 vsl 15 128 0 127 0 0 empty empty empty 0 -9 0 10 -262144
-1 -1 0 1;
#X obj 528 509 / 127;
#X obj 554 448 tgl 15 0 empty empty empty 17 7 0 10 -262144 -1 -1 1
1;
#X msg 554 468 \; pd dsp \$1;
#X obj 33 278 fm;
#N canvas 0 0 506 548 scraps 1;
#X obj 209 80 MouseState;
#X obj 209 206 tgl 15 0 empty empty empty 0 -6 0 8 -262144 -1 -1 0
1;
#X floatatom 225 187 5 0 0 0 - - -;
#X floatatom 241 161 5 0 0 0 - - -;
#X text 265 190 x;
#X text 285 162 y;
#X floatatom 257 137 5 0 0 0 - - -;
#X text 307 138 delta x;
#X floatatom 274 108 5 0 0 0 - - -;
#X text 324 109 delta y;
#X text 228 207 button pressed;
#X msg 194 52 poll;
#X msg 237 52 nopoll;
#X obj 294 183 / 3;
#X obj 193 29 loadbang;
#X obj 231 238 / 5000;
#X floatatom 234 271 5 0 0 0 - - -;
#N canvas 434 68 814 529 createmodes 0;
#X obj 551 22 table chromatic 128;
#X text 653 45 in C;
#X obj 551 46 table tonal 75;
#X obj 21 127 f;
#X obj 51 126 + 1;
#X obj 52 147 < 129;
#X obj 50 190 del 2;
#X obj 60 43 bng 15 250 50 0 empty empty empty 0 -6 0 10 -4034 -1 -1
;
#X obj 16 259 tabwrite chromatic;
#X obj 20 221 t f f;
#X obj 418 104 bng 15 250 50 0 empty empty empty 0 -6 0 10 -262144
-1 -1;
#X obj 423 202 tgl 15 0 empty empty empty 0 -6 0 10 -262144 -1 -1 0
1;
#X obj 416 124 f;
#X obj 446 124 + 1;
#X msg 461 100 0;
#X obj 446 147 < 86;
#X obj 453 274 f;
#X obj 419 273 +;
#X obj 441 247 t f b;
#X floatatom 419 299 5 0 0 0 - - -;
#X msg 502 98 -2;
#X obj 423 223 + 1;
#X obj 419 321 t b f;
#X obj 405 342 del 2;
#X floatatom 463 357 5 0 0 0 - - -;
#X obj 414 394 tabwrite oct;
#X obj 417 75 t b b b;
#X obj 415 44 bng 15 250 50 0 empty empty empty 0 -6 0 10 -262144 -1
-1;
#X obj 51 168 sel 1 0;
#X obj 445 170 sel 1 0;
#X obj 552 68 table oct 86;
#X obj 49 12 inlet;
#X obj 526 473 outlet;
#X obj 317 449 f;
#X obj 553 96 table revtonal 128;
#X obj 323 416 t b f;
#X obj 318 486 tabwrite revtonal;
#X msg 550 188 \; tonal const 0;
#X obj 58 436 print;
#X obj 234 239 % 12;
#X floatatom 179 217 5 0 0 0 - - -;
#X floatatom 355 273 5 0 0 0 - - -;
#X obj 246 218 t f f;
#X obj 262 322 f;
#X obj 239 142 line;
#X floatatom 287 159 5 0 0 0 - - -;
#X obj 240 170 int;
#X obj 603 504 tabwrite tonal;
#X obj 318 361 f;
#X obj 358 361 + 1;
#X obj 292 81 t b b;
#X msg 359 331 0;
#X obj 284 61 bng 15 250 50 0 empty empty empty 17 7 0 10 -262144 -1
-1;
#X obj 756 469 print;
#X obj 321 201 bng 15 250 50 0 empty empty empty 17 7 0 10 -262144
-1 -1;
#X obj 249 297 t b;
#X obj 176 190 change;
#X floatatom 328 395 5 0 0 0 - - -;
#X obj 263 349 t f b;
#X obj 166 275 sel 1;
#X obj 164 248 >= 127;
#X msg 231 114 0 \, 127 3000;
#X msg 550 238 \; revtonal const 0;
#X obj 564 142 loadbang;
#X obj 564 325 sel 0 2 4 5 7 9 11;
#X text 634 297 c major;
#X obj 213 266 sel 0 2 4 6 7 9 11;
#X text 285 246 g major;
#X obj 564 355 t b;
#X connect 3 0 4 0;
#X connect 3 0 9 0;
#X connect 4 0 3 1;
#X connect 4 0 5 0;
#X connect 5 0 28 0;
#X connect 6 0 3 0;
#X connect 7 0 3 0;
#X connect 9 0 8 0;
#X connect 9 1 8 1;
#X connect 10 0 12 0;
#X connect 11 0 21 0;
#X connect 12 0 13 0;
#X connect 12 0 25 1;
#X connect 13 0 12 1;
#X connect 13 0 15 0;
#X connect 14 0 12 1;
#X connect 15 0 29 0;
#X connect 16 0 17 1;
#X connect 17 0 16 1;
#X connect 17 0 19 0;
#X connect 18 0 17 0;
#X connect 18 1 16 0;
#X connect 19 0 22 0;
#X connect 20 0 16 1;
#X connect 21 0 18 0;
#X connect 22 0 23 0;
#X connect 22 1 24 0;
#X connect 22 1 25 0;
#X connect 23 0 10 0;
#X connect 26 0 10 0;
#X connect 26 1 14 0;
#X connect 26 2 20 0;
#X connect 27 0 26 0;
#X connect 28 0 6 0;
#X connect 28 1 52 0;
#X connect 29 0 11 0;
#X connect 29 1 32 0;
#X connect 31 0 7 0;
#X connect 33 0 36 0;
#X connect 35 0 33 0;
#X connect 35 1 36 1;
#X connect 39 0 41 0;
#X connect 39 0 64 0;
#X connect 40 0 42 0;
#X connect 40 0 60 0;
#X connect 42 0 39 0;
#X connect 42 1 43 1;
#X connect 43 0 58 0;
#X connect 44 0 46 0;
#X connect 46 0 56 0;
#X connect 48 0 49 0;
#X connect 48 0 57 0;
#X connect 48 0 47 1;
#X connect 48 0 33 1;
#X connect 49 0 48 1;
#X connect 50 0 61 0;
#X connect 50 1 51 0;
#X connect 51 0 48 1;
#X connect 52 0 50 0;
#X connect 55 0 43 0;
#X connect 56 0 40 0;
#X connect 58 0 47 0;
#X connect 58 0 35 0;
#X connect 58 1 48 0;
#X connect 59 0 27 0;
#X connect 60 0 59 0;
#X connect 61 0 44 0;
#X connect 63 0 37 0;
#X connect 63 0 62 0;
#X connect 64 0 68 0;
#X connect 64 1 68 0;
#X connect 64 2 68 0;
#X connect 64 3 68 0;
#X connect 64 4 68 0;
#X connect 64 5 68 0;
#X connect 64 6 68 0;
#X connect 66 0 55 0;
#X connect 66 1 55 0;
#X connect 66 2 55 0;
#X connect 66 3 55 0;
#X connect 66 4 55 0;
#X connect 66 5 55 0;
#X connect 66 6 55 0;
#X connect 66 7 54 0;
#X connect 68 0 43 0;
#X restore 119 398 pd createmodes;
#X obj 230 381 bng 15 250 50 0 empty empty empty 17 7 0 10 -262144
-1 -1;
#X obj 117 376 bng 15 250 50 0 empty empty empty 17 7 0 10 -262144
-1 -1;
#X obj 232 401 arraysize tonal;
#X obj 118 348 loadbang;
#X connect 0 0 1 0;
#X connect 0 1 2 0;
#X connect 0 2 3 0;
#X connect 0 3 6 0;
#X connect 0 4 8 0;
#X connect 2 0 15 0;
#X connect 3 0 13 0;
#X connect 11 0 0 0;
#X connect 12 0 0 0;
#X connect 14 0 11 0;
#X connect 15 0 16 0;
#X connect 17 0 18 0;
#X connect 18 0 20 0;
#X connect 19 0 17 0;
#X connect 21 0 19 0;
#X restore 674 496 pd scraps;
#X obj 121 415 *~;
#X obj 136 305 vline~;
#X msg 136 279 0 5 \, 1 100 5 \, 0.2 100 200 \, 0.1 50 300 \, 0 20
350;
#X obj 27 542 recorder~;
#X obj 27 519 tgl 15 0 empty empty empty 17 7 0 10 -258113 -262144
-1 0 1;
#X floatatom 84 5 5 0 0 0 - - -;
#X obj 110 154 r tempo;
#X obj 97 28 s tempo;
#X msg 63 131 64 1 \, 60 0.5 \, 64 1 \, 65 1 \, 62 1.5;
#X obj 171 191 makenotes 2;
#X obj 195 306 fm;
#X obj 292 337 vline~;
#X msg 292 311 0 5 \, 1 100 5 \, 0.2 100 200 \, 0.1 50 300 \, 0 20
350;
#X obj 278 445 *~;
#X obj 33 106 sel 1 5;
#X obj 33 81 % 8;
#X obj 166 153 bng 15 250 50 0 empty empty empty 17 7 0 10 -262144
-1 -1;
#X msg 220 155 48 0.5 \, 50 0.5 \, 52 0.5 \, 53 0.5 \, 46 1 \, 50 0.5
\, 52 0.5 \, 0 0.5 \, 55 0.5 \, 53 0.5 \, 52 1 \, 50 0.5 \, 46 1;
#X obj 230 401 *~ 0.17;
#X obj 376 335 fm;
#X obj 473 366 vline~;
#X obj 459 474 *~;
#X obj 296 222 makenotes 3;
#X msg 396 197 36 1 \, 36 1 \, 34 1 \, 34 1 \, 36 1 \, 36 1 \, 31 1
\, 31 1;
#X msg 473 338 0 5 \, 1 20 5 \, 0.2 200 25 \, 0.1 100 225 \, 0 20 325
;
#X obj 411 430 *~ 0.3;
#X obj 655 272 tabread revtonal;
#X floatatom 655 303 5 0 0 0 - - -;
#X connect 0 0 18 0;
#X connect 0 0 22 0;
#X connect 0 0 46 0;
#X connect 0 2 2 0;
#X connect 1 0 0 0;
#X connect 7 0 8 0;
#X connect 8 0 9 0;
#X connect 8 0 35 0;
#X connect 9 0 8 1;
#X connect 10 0 8 0;
#X connect 11 0 7 0;
#X connect 12 0 13 0;
#X connect 12 0 13 1;
#X connect 12 0 23 1;
#X connect 12 0 23 2;
#X connect 14 0 15 0;
#X connect 15 0 12 1;
#X connect 16 0 17 0;
#X connect 18 0 20 0;
#X connect 18 1 20 0;
#X connect 20 0 12 0;
#X connect 21 0 20 1;
#X connect 22 0 21 0;
#X connect 24 0 23 0;
#X connect 25 0 7 1;
#X connect 25 0 27 0;
#X connect 26 0 0 2;
#X connect 26 0 29 2;
#X connect 26 0 42 2;
#X connect 28 0 0 1;
#X connect 29 0 30 0;
#X connect 29 0 32 0;
#X connect 30 0 38 0;
#X connect 30 1 38 0;
#X connect 31 0 33 1;
#X connect 32 0 31 0;
#X connect 33 0 12 0;
#X connect 34 0 1 0;
#X connect 34 0 36 0;
#X connect 34 1 1 0;
#X connect 35 0 34 0;
#X connect 36 0 29 0;
#X connect 36 0 42 0;
#X connect 37 0 29 1;
#X connect 38 0 33 0;
#X connect 39 0 45 0;
#X connect 39 1 45 0;
#X connect 40 0 41 1;
#X connect 41 0 12 0;
#X connect 42 0 39 0;
#X connect 42 0 44 0;
#X connect 43 0 42 1;
#X connect 44 0 40 0;
#X connect 45 0 41 0;
#X connect 46 0 47 0;
