#N canvas 574 178 1057 708 10;
#X obj 91 358 osc~;
#X obj 131 358 osc~;
#X obj 171 358 osc~;
#X obj 211 358 osc~;
#X obj 251 358 osc~;
#X obj 291 358 osc~;
#X obj 331 358 osc~;
#X obj 371 358 osc~;
#X floatatom 91 267 5 0 0 0 - - -;
#X obj 131 326 * 2;
#X obj 171 326 * 3;
#X obj 211 326 * 4;
#X obj 251 326 * 5;
#X obj 291 326 * 6;
#X obj 331 326 * 7;
#X obj 371 326 * 8;
#X obj 253 630 dac~;
#X obj 90 477 *~;
#X obj 105 404 vsl 15 64 0 0.5 0 0 empty empty empty 0 -9 0 10 -262144
-1 -1 0 1;
#X obj 130 477 *~;
#X obj 145 404 vsl 15 64 0 0.5 0 0 empty empty empty 0 -9 0 10 -262144
-1 -1 0 1;
#X obj 170 477 *~;
#X obj 185 404 vsl 15 64 0 0.5 0 0 empty empty empty 0 -9 0 10 -262144
-1 -1 0 1;
#X obj 210 477 *~;
#X obj 225 404 vsl 15 64 0 0.5 0 0 empty empty empty 0 -9 0 10 -262144
-1 -1 0 1;
#X obj 250 477 *~;
#X obj 265 404 vsl 15 64 0 0.5 0 0 empty empty empty 0 -9 0 10 -262144
-1 -1 0 1;
#X obj 290 477 *~;
#X obj 305 404 vsl 15 64 0 0.5 0 0 empty empty empty 0 -9 0 10 -262144
-1 -1 0 1;
#X obj 330 477 *~;
#X obj 345 404 vsl 15 64 0 0.5 0 0 empty empty empty 0 -9 0 10 -262144
-1 -1 0 1;
#X obj 370 477 *~;
#X obj 385 404 vsl 15 64 0 0.5 0 0 empty empty empty 0 -9 0 10 -262144
-1 -1 0 1;
#X obj 91 195 mtof;
#X obj 91 134 notein;
#X obj 365 544 envy2 -----------;
#X obj 91 164 poly 1 1;
#X obj 413 474 loadbang;
#X obj 106 381 line;
#X obj 146 381 line;
#X obj 186 381 line;
#X obj 226 381 line;
#X obj 266 381 line;
#X obj 306 381 line;
#X obj 346 381 line;
#X obj 386 381 line;
#X obj 488 364 pack 0 20;
#X obj 548 364 pack 0 20;
#X obj 608 364 pack 0 20;
#X obj 668 364 pack 0 20;
#X obj 728 364 pack 0 20;
#X obj 788 364 pack 0 20;
#X obj 848 364 pack 0 20;
#X obj 908 364 pack 0 20;
#X obj 252 591 *~;
#X msg 432 506 100;
#X obj 154 627 recorder~;
#X obj 831 19 cnv 15 200 20 empty empty 365.days.of.creative.coding
5 12 1 16 -128992 -257985 0;
#X obj 831 43 cnv 15 200 20 empty empty mrfunkyland 112 12 1 16 -128992
-257985 0;
#X obj 831 67 cnv 15 100 60 empty empty day 15 27 1 50 -128992 -260097
0;
#X obj 931 67 cnv 15 100 60 empty empty ten 0 27 1 50 -128992 -257985
0;
#X obj 252 561 *~ 0.1;
#X obj 661 181 spring8 -------;
#X msg 398 507 10;
#X msg 466 505 4000;
#X connect 0 0 17 0;
#X connect 1 0 19 0;
#X connect 2 0 21 0;
#X connect 3 0 23 0;
#X connect 4 0 25 0;
#X connect 5 0 27 0;
#X connect 6 0 29 0;
#X connect 7 0 31 0;
#X connect 8 0 0 0;
#X connect 8 0 9 0;
#X connect 8 0 10 0;
#X connect 8 0 11 0;
#X connect 8 0 12 0;
#X connect 8 0 13 0;
#X connect 8 0 14 0;
#X connect 8 0 15 0;
#X connect 9 0 1 0;
#X connect 10 0 2 0;
#X connect 11 0 3 0;
#X connect 12 0 4 0;
#X connect 13 0 5 0;
#X connect 14 0 6 0;
#X connect 15 0 7 0;
#X connect 17 0 61 0;
#X connect 18 0 17 1;
#X connect 19 0 61 0;
#X connect 20 0 19 1;
#X connect 21 0 61 0;
#X connect 22 0 21 1;
#X connect 23 0 61 0;
#X connect 24 0 23 1;
#X connect 25 0 61 0;
#X connect 26 0 25 1;
#X connect 27 0 61 0;
#X connect 28 0 27 1;
#X connect 29 0 61 0;
#X connect 30 0 29 1;
#X connect 31 0 61 0;
#X connect 32 0 31 1;
#X connect 33 0 8 0;
#X connect 34 0 36 0;
#X connect 34 1 36 1;
#X connect 35 0 54 1;
#X connect 36 1 33 0;
#X connect 36 2 35 0;
#X connect 36 2 62 0;
#X connect 37 0 63 0;
#X connect 37 0 55 0;
#X connect 37 0 64 0;
#X connect 38 0 18 0;
#X connect 39 0 20 0;
#X connect 40 0 22 0;
#X connect 41 0 24 0;
#X connect 42 0 26 0;
#X connect 43 0 28 0;
#X connect 44 0 30 0;
#X connect 45 0 32 0;
#X connect 46 0 38 0;
#X connect 47 0 39 0;
#X connect 48 0 40 0;
#X connect 49 0 41 0;
#X connect 50 0 42 0;
#X connect 51 0 43 0;
#X connect 52 0 44 0;
#X connect 53 0 45 0;
#X connect 54 0 56 1;
#X connect 54 0 56 2;
#X connect 54 0 16 0;
#X connect 54 0 16 1;
#X connect 55 0 35 2;
#X connect 61 0 54 0;
#X connect 62 0 46 0;
#X connect 62 1 47 0;
#X connect 62 2 48 0;
#X connect 62 3 49 0;
#X connect 62 4 50 0;
#X connect 62 5 51 0;
#X connect 62 6 52 0;
#X connect 62 7 53 0;
#X connect 63 0 35 1;
#X connect 64 0 35 3;
