#N canvas 706 169 829 482 10;
#X obj 590 15 cnv 15 223 20 empty empty 365.days.of.creative.coding
23 12 1 16 -128992 -257985 0;
#X obj 590 39 cnv 15 223 20 empty empty mrfunkyland 131 12 1 16 -128992
-257985 0;
#X obj 590 63 cnv 15 223 50 empty empty day 135 20 1 50 -128992 -260097
0;
#X obj 590 114 cnv 15 223 40 empty empty thirteen 50 15 1 50 -128992
-257985 0;
#X obj 51 123 / 4;
#X floatatom 243 231 5 0 0 0 - - -;
#X obj 51 389 makenote 70 100;
#X obj 51 418 noteout;
#N canvas 434 68 814 529 createmodes 0;
#X obj 551 22 table chromatic 128;
#X text 653 45 in C;
#X obj 551 46 table tonal 75;
#X obj 21 127 f;
#X obj 51 126 + 1;
#X obj 52 147 < 129;
#X obj 50 190 del 2;
#X obj 60 43 bng 15 250 50 0 empty empty empty 0 -6 0 10 -4034 -1 -1
;
#X obj 16 259 tabwrite chromatic;
#X obj 20 221 t f f;
#X obj 418 104 bng 15 250 50 0 empty empty empty 0 -6 0 10 -262144
-1 -1;
#X obj 423 202 tgl 15 0 empty empty empty 0 -6 0 10 -262144 -1 -1 1
1;
#X obj 416 124 f;
#X obj 446 124 + 1;
#X msg 461 100 0;
#X obj 446 147 < 86;
#X obj 453 274 f;
#X obj 419 273 +;
#X obj 441 247 t f b;
#X floatatom 419 299 5 0 0 0 - - -;
#X msg 502 98 -2;
#X obj 423 223 + 1;
#X obj 419 321 t b f;
#X obj 405 342 del 2;
#X floatatom 463 357 5 0 0 0 - - -;
#X obj 414 394 tabwrite oct;
#X obj 417 75 t b b b;
#X obj 415 44 bng 15 250 50 0 empty empty empty 0 -6 0 10 -262144 -1
-1;
#X obj 51 168 sel 1 0;
#X obj 445 170 sel 1 0;
#X obj 552 68 table oct 86;
#X obj 49 12 inlet;
#X obj 526 473 outlet;
#X obj 317 449 f;
#X obj 553 96 table revtonal 128;
#X obj 323 416 t b f;
#X obj 318 486 tabwrite revtonal;
#X msg 550 188 \; tonal const 0;
#X obj 58 436 print;
#X obj 234 239 % 12;
#X floatatom 179 217 5 0 0 0 - - -;
#X floatatom 355 273 5 0 0 0 - - -;
#X obj 246 218 t f f;
#X obj 262 322 f;
#X obj 239 142 line;
#X floatatom 287 159 5 0 0 0 - - -;
#X obj 240 170 int;
#X obj 603 504 tabwrite tonal;
#X obj 318 361 f;
#X obj 358 361 + 1;
#X obj 292 81 t b b;
#X msg 359 331 0;
#X obj 284 61 bng 15 250 50 0 empty empty empty 17 7 0 10 -262144 -1
-1;
#X obj 756 469 print;
#X obj 321 201 bng 15 250 50 0 empty empty empty 17 7 0 10 -262144
-1 -1;
#X obj 249 297 t b;
#X obj 176 190 change;
#X floatatom 328 395 5 0 0 0 - - -;
#X obj 263 349 t f b;
#X obj 166 275 sel 1;
#X obj 164 248 >= 127;
#X msg 231 114 0 \, 127 3000;
#X msg 550 238 \; revtonal const 0;
#X obj 564 142 loadbang;
#X obj 564 325 sel 0 2 4 5 7 9 11;
#X text 634 297 c major;
#X obj 213 266 sel 0 2 4 6 7 9 11;
#X text 285 246 g major;
#X obj 564 355 t b;
#X connect 3 0 4 0;
#X connect 3 0 9 0;
#X connect 4 0 3 1;
#X connect 4 0 5 0;
#X connect 5 0 28 0;
#X connect 6 0 3 0;
#X connect 7 0 3 0;
#X connect 9 0 8 0;
#X connect 9 1 8 1;
#X connect 10 0 12 0;
#X connect 11 0 21 0;
#X connect 12 0 13 0;
#X connect 12 0 25 1;
#X connect 13 0 12 1;
#X connect 13 0 15 0;
#X connect 14 0 12 1;
#X connect 15 0 29 0;
#X connect 16 0 17 1;
#X connect 17 0 16 1;
#X connect 17 0 19 0;
#X connect 18 0 17 0;
#X connect 18 1 16 0;
#X connect 19 0 22 0;
#X connect 20 0 16 1;
#X connect 21 0 18 0;
#X connect 22 0 23 0;
#X connect 22 1 24 0;
#X connect 22 1 25 0;
#X connect 23 0 10 0;
#X connect 26 0 10 0;
#X connect 26 1 14 0;
#X connect 26 2 20 0;
#X connect 27 0 26 0;
#X connect 28 0 6 0;
#X connect 28 1 52 0;
#X connect 29 0 11 0;
#X connect 29 1 32 0;
#X connect 31 0 7 0;
#X connect 33 0 36 0;
#X connect 35 0 33 0;
#X connect 35 1 36 1;
#X connect 39 0 41 0;
#X connect 39 0 64 0;
#X connect 40 0 42 0;
#X connect 40 0 60 0;
#X connect 42 0 39 0;
#X connect 42 1 43 1;
#X connect 43 0 58 0;
#X connect 44 0 46 0;
#X connect 46 0 56 0;
#X connect 48 0 49 0;
#X connect 48 0 57 0;
#X connect 48 0 47 1;
#X connect 48 0 33 1;
#X connect 49 0 48 1;
#X connect 50 0 61 0;
#X connect 50 1 51 0;
#X connect 51 0 48 1;
#X connect 52 0 50 0;
#X connect 55 0 43 0;
#X connect 56 0 40 0;
#X connect 58 0 47 0;
#X connect 58 0 35 0;
#X connect 58 1 48 0;
#X connect 59 0 27 0;
#X connect 60 0 59 0;
#X connect 61 0 44 0;
#X connect 63 0 37 0;
#X connect 63 0 62 0;
#X connect 64 0 68 0;
#X connect 64 1 68 0;
#X connect 64 2 68 0;
#X connect 64 3 68 0;
#X connect 64 4 68 0;
#X connect 64 5 68 0;
#X connect 64 6 68 0;
#X connect 66 0 55 0;
#X connect 66 1 55 0;
#X connect 66 2 55 0;
#X connect 66 3 55 0;
#X connect 66 4 55 0;
#X connect 66 5 55 0;
#X connect 66 6 55 0;
#X connect 66 7 54 0;
#X connect 68 0 43 0;
#X restore 712 431 pd createmodes;
#X obj 712 455 bng 15 250 50 0 empty empty empty 17 7 0 10 -262144
-1 -1;
#X obj 712 411 bng 15 250 50 0 empty empty empty 17 7 0 10 -262144
-1 -1;
#X obj 712 388 loadbang;
#X obj 154 241 expr ($f1/3.0);
#X obj 51 22 tgl 15 0 empty empty empty 17 7 0 10 -262144 -1 -1 0 1
;
#X obj 51 42 metro 250;
#X obj 51 64 f;
#X obj 81 64 + 1;
#X msg 9 55 0;
#X obj 166 101 % 8;
#X obj 51 298 tabread tonal;
#X obj 83 315 hsl 128 15 0 127 0 0 empty empty empty -2 -8 0 10 -262144
-1 -1 7100 1;
#X obj 138 338 r tempo;
#X obj 138 360 - 10;
#X floatatom 121 10 5 0 0 0 - - -;
#X obj 121 31 s tempo;
#X floatatom 280 291 5 0 0 0 - - -;
#X msg 386 213 7.3;
#X obj 385 238 expr $f1/3.0;
#X floatatom 221 169 5 0 0 0 - - -;
#X obj 387 186 loadbang;
#X floatatom 172 284 5 0 0 0 - - -;
#X msg 204 262 7.8;
#X obj 272 198 / 100;
#X floatatom 271 172 5 0 0 0 - - -;
#X floatatom 17 287 5 0 0 0 - - -;
#X obj 280 267 cosr 45 20 2.33333;
#X obj 51 267 cosr 49 10 2.33333;
#X obj 301 43 metro 250;
#X obj 301 65 f;
#X obj 331 65 + 1;
#X obj 508 303 tabread tonal;
#X obj 198 47 metro 250;
#X obj 198 69 f;
#X obj 228 69 + 1;
#X obj 248 26 / 2;
#X obj 351 22 / 4;
#X obj 508 401 makenote 50 200;
#X obj 595 350 r tempo;
#X obj 507 232 / 4;
#X obj 595 372 - 5;
#X obj 508 430 noteout;
#X obj 614 279 + 2;
#X obj 614 306 tabread tonal;
#X obj 708 304 tabread tonal;
#X obj 708 277 + 3;
#X obj 508 264 cosr 31 2.3 3;
#X floatatom 82 239 5 0 0 0 - - -;
#X obj 121 214 cosr 7 2.5 0.43333;
#X connect 4 0 36 0;
#X connect 6 0 7 0;
#X connect 6 1 7 1;
#X connect 8 0 9 0;
#X connect 10 0 8 0;
#X connect 11 0 10 0;
#X connect 12 0 30 0;
#X connect 12 0 36 3;
#X connect 13 0 14 0;
#X connect 13 0 37 0;
#X connect 13 0 41 0;
#X connect 14 0 15 0;
#X connect 15 0 16 0;
#X connect 15 0 18 0;
#X connect 15 0 48 0;
#X connect 16 0 15 1;
#X connect 17 0 15 1;
#X connect 17 0 38 1;
#X connect 17 0 42 1;
#X connect 19 0 20 0;
#X connect 19 0 6 0;
#X connect 21 0 22 0;
#X connect 22 0 6 2;
#X connect 23 0 24 0;
#X connect 23 0 14 1;
#X connect 23 0 45 0;
#X connect 23 0 44 0;
#X connect 26 0 27 0;
#X connect 27 0 35 3;
#X connect 29 0 26 0;
#X connect 29 0 31 0;
#X connect 31 0 12 0;
#X connect 32 0 12 0;
#X connect 33 0 32 0;
#X connect 35 0 25 0;
#X connect 35 0 6 1;
#X connect 36 0 19 0;
#X connect 36 0 34 0;
#X connect 37 0 38 0;
#X connect 38 0 39 0;
#X connect 38 0 4 0;
#X connect 38 0 35 0;
#X connect 38 0 57 0;
#X connect 39 0 38 1;
#X connect 40 0 46 0;
#X connect 41 0 42 0;
#X connect 42 0 43 0;
#X connect 43 0 42 1;
#X connect 44 0 41 1;
#X connect 45 0 37 1;
#X connect 46 0 50 0;
#X connect 46 1 50 1;
#X connect 47 0 49 0;
#X connect 48 0 55 0;
#X connect 49 0 46 2;
#X connect 51 0 52 0;
#X connect 51 0 54 0;
#X connect 52 0 46 0;
#X connect 53 0 46 0;
#X connect 54 0 53 0;
#X connect 55 0 40 0;
#X connect 55 0 51 0;
#X connect 56 0 36 1;
#X connect 57 0 5 0;
#X connect 57 0 28 0;
#X connect 57 0 36 2;
