#N canvas 285 352 962 592 10;
#X obj 480 182 soundfiler;
#X symbolatom 480 122 10 0 0 0 - - -;
#X obj 462 107 bng 15 250 50 0 empty empty empty 17 7 0 10 -262144
-1 -1;
#X msg 480 150 read -resize \$1 file02;
#X obj 480 209 s fsize;
#X obj 45 23 r fsize;
#N canvas 0 0 450 300 (subpatch) 0;
#X array file02 1.42515e+006 float 0;
#X coords 0 1 1.42515e+006 -1 200 140 1;
#X restore 573 323 graph;
#X obj 45 58 expr 44100 / $f1;
#X obj 45 197 phasor~;
#X obj 46 267 tabread4~ file02;
#X obj 45 461 hip~ 5;
#X floatatom 45 131 5 0 0 0 - - -;
#X obj 45 166 *;
#X obj 139 114 t b f;
#X obj 45 231 *~;
#X obj 46 521 dac~;
#X obj 129 474 scalePD 127 8 1.071 10;
#X obj 267 343 vsl 15 128 0 127 0 0 empty empty empty 0 -9 0 10 -262144
-1 -1 9600 1;
#X msg 305 454 \; pd dsp \$1;
#X obj 304 432 tgl 15 0 empty empty empty 17 7 0 10 -262144 -1 -1 1
1;
#X floatatom 371 98 5 0 0 0 - - -;
#X obj 381 214 unsig~ 50;
#X obj 238 247 unsig~ 50;
#X obj 45 491 *~;
#X msg 184 27 1;
#X msg 231 27 0;
#X text 182 5 play;
#X text 228 3 pause;
#X msg 281 28 0;
#X text 277 4 stop;
#X obj 370 72 line;
#X obj 238 270 /;
#X obj 237 292 * 127;
#X obj 573 467 hsl 204 15 0 127 0 0 empty empty empty -2 -8 0 10 -262144
-1 -1 0 1;
#X obj 381 267 sel 1;
#X msg 449 28 0 1500;
#X obj 381 240 >= 0.999;
#X msg 390 28 1 700;
#X msg 347 28 3;
#X msg 512 29 -0.7 7000;
#X obj 571 484 r tracker;
#X obj 237 313 s tracker;
#X obj 381 332 s stop;
#X obj 313 3 r stop;
#X msg 595 29 -3 3000;
#X obj 381 301 spigot;
#X obj 440 286 tgl 15 0 empty empty empty 17 7 0 10 -262144 -1 -1 1
1;
#X obj 440 254 loadbang;
#X text 460 276 un-check to;
#X text 460 288 loop playback;
#X obj 715 22 cnv 15 200 20 empty empty 365.days.of.creative.coding
5 12 1 16 -128992 -257985 0;
#X obj 715 46 cnv 15 200 20 empty empty mrfunkyland 112 12 1 16 -128992
-257985 0;
#X obj 715 70 cnv 15 100 60 empty empty day 5 27 1 50 -128992 -260097
0;
#X obj 815 70 cnv 15 100 60 empty empty eight -15 27 1 50 -128992 -257985
0;
#X obj 122 508 recorder~;
#X connect 0 0 4 0;
#X connect 1 0 3 0;
#X connect 2 0 1 0;
#X connect 3 0 0 0;
#X connect 5 0 7 0;
#X connect 5 0 14 1;
#X connect 5 0 31 1;
#X connect 7 0 11 0;
#X connect 8 0 14 0;
#X connect 8 0 21 0;
#X connect 9 0 10 0;
#X connect 10 0 23 0;
#X connect 11 0 12 0;
#X connect 12 0 8 0;
#X connect 13 0 11 0;
#X connect 13 1 12 1;
#X connect 14 0 9 0;
#X connect 14 0 22 0;
#X connect 16 0 23 1;
#X connect 17 0 16 0;
#X connect 19 0 18 0;
#X connect 20 0 13 0;
#X connect 21 0 36 0;
#X connect 22 0 31 0;
#X connect 23 0 15 0;
#X connect 23 0 15 1;
#X connect 23 0 54 1;
#X connect 23 0 54 2;
#X connect 24 0 30 0;
#X connect 25 0 30 0;
#X connect 28 0 8 1;
#X connect 28 0 30 0;
#X connect 30 0 20 0;
#X connect 31 0 32 0;
#X connect 32 0 41 0;
#X connect 34 0 45 0;
#X connect 35 0 30 0;
#X connect 36 0 34 0;
#X connect 37 0 30 0;
#X connect 38 0 30 0;
#X connect 39 0 30 0;
#X connect 40 0 33 0;
#X connect 43 0 28 0;
#X connect 44 0 30 0;
#X connect 45 0 42 0;
#X connect 46 0 45 1;
#X connect 47 0 46 0;
