#N canvas 158 7 1125 621 10;
#X obj 219 575 dac~;
#X obj 106 432 *~;
#X obj 83 575 recorder~;
#X obj 234 532 *~;
#X obj 8 555 / 127;
#X obj 8 418 vsl 15 128 0 127 0 0 empty empty empty 0 -9 0 10 -262144
-1 -1 11600 1;
#X msg 33 499 \; pd dsp \$1;
#X obj 35 478 tgl 15 0 empty empty empty 17 7 0 10 -262144 -1 -1 1
1;
#X obj 805 27 cnv 15 223 20 empty empty 365.days.of.creative.coding
23 12 1 16 -128992 -257985 0;
#X obj 805 51 cnv 15 223 20 empty empty mrfunkyland 131 12 1 16 -128992
-257985 0;
#X obj 805 75 cnv 15 223 50 empty empty day 135 20 1 50 -128992 -260097
0;
#X obj 805 126 cnv 15 223 40 empty empty seventeen 5 15 1 47 -128992
-257985 0;
#X obj 40 448 line;
#X obj 39 377 r fade;
#X msg 40 424 \$1 1000;
#X floatatom 31 536 5 0 0 0 - - -;
#X obj 247 468 hip~ 5;
#X obj 779 491 soundfiler;
#N canvas 0 0 450 300 (subpatch) 0;
#X array sample-table 1.10182e+006 float 2;
#X coords 0 1 1.10182e+006 -1 500 140 1;
#X restore 244 21 graph;
#X msg 779 466 read -resize 2014-10-14-16-43-52.wav sample-table;
#X msg 77 401 0;
#X floatatom 106 228 5 0 0 0 - - -;
#X text 156 249 start point;
#X floatatom 223 286 5 0 0 0 - - -;
#X obj 222 267 bng 15 250 50 0 empty empty empty 17 7 0 10 -262144
-1 -1;
#X obj 223 311 * 44.1;
#X text 132 299 (1/1000 second);
#X obj 106 253 * 44.1;
#X obj 106 374 tabplay~ sample-table;
#X obj 106 203 bng 15 250 50 0 empty empty empty 17 7 0 10 -262144
-1 -1;
#X floatatom 149 270 10 0 0 0 - - -;
#X floatatom 223 337 5 0 0 0 - - -;
#X obj 120 349 bng 15 250 50 0 empty empty empty 17 7 0 10 -262144
-1 -1;
#X obj 59 169 sel 0 1 2 3;
#X obj 61 92 metro 250;
#X obj 59 120 f;
#X obj 90 120 + 1;
#X msg 22 107 0;
#X obj 17 222 t b b;
#X obj 16 309 * 1000;
#X obj 16 257 random 60;
#X obj 16 283 / 3;
#X obj 16 334 + 500;
#X obj 15 200 bng 15 250 50 0 empty empty empty 17 7 0 10 -262144 -1
-1;
#X obj 122 403 envy 1 10 0.2 50 150 20;
#X obj 372 422 *~;
#X floatatom 372 218 5 0 0 0 - - -;
#X text 422 239 start point;
#X floatatom 489 276 5 0 0 0 - - -;
#X obj 488 257 bng 15 250 50 0 empty empty empty 17 7 0 10 -262144
-1 -1;
#X obj 489 301 * 44.1;
#X text 391 289 (1/1000 second);
#X obj 372 243 * 44.1;
#X obj 372 364 tabplay~ sample-table;
#X obj 372 193 bng 15 250 50 0 empty empty empty 17 7 0 10 -262144
-1 -1;
#X floatatom 415 260 10 0 0 0 - - -;
#X floatatom 489 327 5 0 0 0 - - -;
#X obj 386 339 bng 15 250 50 0 empty empty empty 17 7 0 10 -262144
-1 -1;
#X obj 283 212 t b b;
#X obj 282 299 * 1000;
#X obj 282 247 random 60;
#X obj 282 273 / 3;
#X obj 282 324 + 500;
#X obj 281 190 bng 15 250 50 0 empty empty empty 17 7 0 10 -262144
-1 -1;
#X obj 388 393 envy 1 10 0.2 50 150 20;
#X obj 273 531 *~;
#X obj 645 463 hip~ 5;
#X obj 58 69 tgl 15 0 empty empty empty 17 7 0 10 -262144 -1 -1 1 1
;
#X obj 646 432 *~;
#X floatatom 646 228 5 0 0 0 - - -;
#X text 696 249 start point;
#X floatatom 763 286 5 0 0 0 - - -;
#X obj 762 267 bng 15 250 50 0 empty empty empty 17 7 0 10 -262144
-1 -1;
#X obj 763 311 * 44.1;
#X text 672 299 (1/1000 second);
#X obj 646 253 * 44.1;
#X obj 646 374 tabplay~ sample-table;
#X obj 646 203 bng 15 250 50 0 empty empty empty 17 7 0 10 -262144
-1 -1;
#X floatatom 689 270 10 0 0 0 - - -;
#X floatatom 763 337 5 0 0 0 - - -;
#X obj 660 349 bng 15 250 50 0 empty empty empty 17 7 0 10 -262144
-1 -1;
#X obj 557 222 t b b;
#X obj 556 309 * 1000;
#X obj 556 257 random 60;
#X obj 556 283 / 3;
#X obj 556 334 + 500;
#X obj 555 200 bng 15 250 50 0 empty empty empty 17 7 0 10 -262144
-1 -1;
#X obj 662 403 envy 1 10 0.2 50 150 20;
#X obj 912 422 *~;
#X floatatom 912 218 5 0 0 0 - - -;
#X text 962 239 start point;
#X floatatom 1029 276 5 0 0 0 - - -;
#X obj 1028 257 bng 15 250 50 0 empty empty empty 17 7 0 10 -262144
-1 -1;
#X obj 1029 301 * 44.1;
#X text 931 289 (1/1000 second);
#X obj 912 243 * 44.1;
#X obj 912 364 tabplay~ sample-table;
#X obj 912 193 bng 15 250 50 0 empty empty empty 17 7 0 10 -262144
-1 -1;
#X floatatom 955 260 10 0 0 0 - - -;
#X floatatom 1029 327 5 0 0 0 - - -;
#X obj 926 339 bng 15 250 50 0 empty empty empty 17 7 0 10 -262144
-1 -1;
#X obj 823 212 t b b;
#X obj 822 299 * 1000;
#X obj 822 247 random 60;
#X obj 822 273 / 3;
#X obj 822 324 + 500;
#X obj 821 190 bng 15 250 50 0 empty empty empty 17 7 0 10 -262144
-1 -1;
#X obj 928 393 envy 1 10 0.2 50 150 20;
#X obj 59 146 % 4;
#X floatatom 113 69 5 0 0 0 - - -;
#X obj 106 329 pack 0 8820;
#X obj 372 319 pack 0 8820;
#X obj 646 328 pack 0 8820;
#X obj 912 318 pack 0 8820;
#X obj 926 531 arraysize sample-table;
#X obj 926 509 bng 15 250 50 0 empty empty empty 17 7 0 10 -262144
-1 -1;
#X obj 903 558 /;
#X floatatom 945 564 5 0 0 0 - - -;
#X obj 248 22 hsl 493 138 0 1 0 0 empty read-point empty -2 -8 0 10
-128992 -257985 -1 23150 1;
#X obj 902 583 s read-point;
#X obj 888 528 r rp;
#X obj 114 285 s rp;
#X obj 383 274 s rp;
#X obj 654 280 s rp;
#X obj 920 269 s rp;
#X obj 122 489 delwrite~ d1 300;
#X obj 121 463 *~ 0.3;
#X obj 518 545 delwrite~ d2 300;
#X obj 519 517 *~ 0.3;
#X obj 832 555 / 44100;
#X floatatom 768 578 5 0 0 0 - - -;
#X floatatom 721 576 5 0 0 0 - - -;
#X obj 716 597 s rp-range;
#X obj -23 241 r rp-range;
#X obj 731 552 * 1.5;
#X obj 123 516 delread~ d1 50;
#X obj 519 573 delread~ d2 50;
#X msg 114 47 100;
#X msg 113 24 150;
#X msg 151 26 200;
#X msg 764 527 0.6;
#X msg 798 528 1.5;
#X obj 41 401 * 100;
#X floatatom 1004 558 5 0 0 0 - - -;
#X obj 1006 583 * 44100;
#X obj 665 518 openpanel;
#X obj 668 494 bng 15 250 50 0 empty empty empty 17 7 0 10 -262144
-1 -1;
#X obj 661 545 print;
#X obj 367 499 list trim;
#X obj 367 523 list prepend read -resize;
#X obj 368 580 list trim;
#X obj 367 551 list append sample-table;
#X connect 1 0 16 0;
#X connect 3 0 2 1;
#X connect 3 0 0 0;
#X connect 4 0 3 1;
#X connect 4 0 65 1;
#X connect 5 0 4 0;
#X connect 5 0 15 0;
#X connect 7 0 6 0;
#X connect 12 0 5 0;
#X connect 13 0 142 0;
#X connect 14 0 12 0;
#X connect 16 0 3 0;
#X connect 16 0 126 0;
#X connect 19 0 17 0;
#X connect 20 0 14 0;
#X connect 21 0 27 0;
#X connect 23 0 25 0;
#X connect 24 0 23 0;
#X connect 25 0 31 0;
#X connect 25 0 110 1;
#X connect 27 0 30 0;
#X connect 27 0 110 0;
#X connect 28 0 1 0;
#X connect 29 0 32 0;
#X connect 29 0 110 0;
#X connect 30 0 121 0;
#X connect 32 0 44 0;
#X connect 33 0 43 0;
#X connect 33 1 63 0;
#X connect 33 2 86 0;
#X connect 33 3 106 0;
#X connect 34 0 35 0;
#X connect 35 0 36 0;
#X connect 35 0 108 0;
#X connect 36 0 35 1;
#X connect 37 0 35 1;
#X connect 38 0 29 0;
#X connect 38 1 40 0;
#X connect 39 0 42 0;
#X connect 40 0 41 0;
#X connect 41 0 39 0;
#X connect 42 0 21 0;
#X connect 43 0 38 0;
#X connect 44 0 1 1;
#X connect 45 0 66 0;
#X connect 46 0 52 0;
#X connect 48 0 50 0;
#X connect 49 0 48 0;
#X connect 50 0 56 0;
#X connect 50 0 111 1;
#X connect 52 0 55 0;
#X connect 52 0 111 0;
#X connect 53 0 45 0;
#X connect 54 0 57 0;
#X connect 54 0 111 0;
#X connect 55 0 122 0;
#X connect 57 0 64 0;
#X connect 58 0 54 0;
#X connect 58 1 60 0;
#X connect 59 0 62 0;
#X connect 60 0 61 0;
#X connect 61 0 59 0;
#X connect 62 0 46 0;
#X connect 63 0 58 0;
#X connect 64 0 45 1;
#X connect 65 0 0 1;
#X connect 65 0 2 2;
#X connect 66 0 65 0;
#X connect 66 0 128 0;
#X connect 67 0 34 0;
#X connect 68 0 16 0;
#X connect 69 0 75 0;
#X connect 71 0 73 0;
#X connect 72 0 71 0;
#X connect 73 0 79 0;
#X connect 73 0 112 1;
#X connect 75 0 78 0;
#X connect 75 0 112 0;
#X connect 76 0 68 0;
#X connect 77 0 80 0;
#X connect 77 0 112 0;
#X connect 78 0 123 0;
#X connect 80 0 87 0;
#X connect 81 0 77 0;
#X connect 81 1 83 0;
#X connect 82 0 85 0;
#X connect 83 0 84 0;
#X connect 84 0 82 0;
#X connect 85 0 69 0;
#X connect 86 0 81 0;
#X connect 87 0 68 1;
#X connect 88 0 66 0;
#X connect 89 0 95 0;
#X connect 91 0 93 0;
#X connect 92 0 91 0;
#X connect 93 0 99 0;
#X connect 93 0 113 1;
#X connect 95 0 98 0;
#X connect 95 0 113 0;
#X connect 96 0 88 0;
#X connect 97 0 100 0;
#X connect 97 0 113 0;
#X connect 98 0 124 0;
#X connect 100 0 107 0;
#X connect 101 0 97 0;
#X connect 101 1 103 0;
#X connect 102 0 105 0;
#X connect 103 0 104 0;
#X connect 104 0 102 0;
#X connect 105 0 89 0;
#X connect 106 0 101 0;
#X connect 107 0 88 1;
#X connect 108 0 33 0;
#X connect 109 0 34 1;
#X connect 110 0 28 0;
#X connect 111 0 53 0;
#X connect 112 0 76 0;
#X connect 113 0 96 0;
#X connect 114 0 116 1;
#X connect 114 0 129 0;
#X connect 115 0 114 0;
#X connect 116 0 117 0;
#X connect 116 0 119 0;
#X connect 120 0 116 0;
#X connect 126 0 125 0;
#X connect 128 0 127 0;
#X connect 129 0 130 0;
#X connect 130 0 134 0;
#X connect 131 0 132 0;
#X connect 133 0 40 1;
#X connect 133 0 60 1;
#X connect 133 0 75 1;
#X connect 133 0 103 1;
#X connect 134 0 131 0;
#X connect 135 0 3 0;
#X connect 135 0 126 0;
#X connect 136 0 65 0;
#X connect 136 0 128 0;
#X connect 137 0 109 0;
#X connect 138 0 109 0;
#X connect 139 0 109 0;
#X connect 140 0 134 1;
#X connect 141 0 134 1;
#X connect 142 0 14 0;
#X connect 143 0 144 0;
#X connect 144 0 116 0;
#X connect 145 0 147 0;
#X connect 145 0 148 0;
#X connect 146 0 145 0;
#X connect 148 0 149 0;
#X connect 149 0 151 0;
#X connect 150 0 17 0;
#X connect 151 0 150 0;
