#N canvas 280 12 966 621 10;
#X obj 219 575 dac~;
#X obj 38 480 *~;
#X obj 83 575 recorder~;
#X obj 234 532 *~;
#X obj 665 515 / 127;
#X obj 665 378 vsl 15 128 0 127 0 0 empty empty empty 0 -9 0 10 -262144
-1 -1 0 1;
#X msg 690 459 \; pd dsp \$1;
#X obj 692 438 tgl 15 0 empty empty empty 17 7 0 10 -262144 -1 -1 1
1;
#X obj 720 41 cnv 15 223 20 empty empty 365.days.of.creative.coding
23 12 1 16 -128992 -257985 0;
#X obj 720 65 cnv 15 223 20 empty empty mrfunkyland 131 12 1 16 -128992
-257985 0;
#X obj 720 89 cnv 15 223 50 empty empty day 135 20 1 50 -128992 -260097
0;
#X obj 720 140 cnv 15 223 40 empty empty sixteen 60 15 1 50 -128992
-257985 0;
#X obj 696 346 line;
#X obj 695 275 r fade;
#X msg 696 322 \$1 1000;
#X floatatom 629 501 5 0 0 0 - - -;
#X obj 697 299 * 15;
#X obj 47 227 hip~ 5;
#X obj 47 195 tabread4~ sample-table;
#X obj 47 160 line~;
#X obj 47 111 * 441;
#X floatatom 47 80 0 0 100 0 - - -;
#X obj 47 135 pack 0 100;
#X obj 346 578 soundfiler;
#N canvas 0 0 450 300 (subpatch) 0;
#X array sample-table 1.57024e+006 float 2;
#X coords 0 1 1.57024e+006 -1 500 140 1;
#X restore 197 40 graph;
#X msg 346 553 read -resize 2014-10-14-16-43-52.wav sample-table;
#X msg 733 299 0;
#X obj 337 357 arraysize sample-table;
#X floatatom 335 382 20 0 0 0 - - -;
#X obj 335 331 bng 15 250 50 0 empty empty empty 17 7 0 10 -262144
-1 -1;
#X obj 481 374 / 44100;
#X floatatom 481 395 5 0 0 0 - - -;
#X obj 203 339 moses 1;
#X obj 243 365 moses 100;
#X obj 294 340 - 3;
#X obj 203 313 + 1;
#X msg 271 298;
#X floatatom 225 291 5 0 0 0 - - -;
#X text 239 316 start point;
#X obj 203 268 line;
#X obj 205 241 pack 0 100;
#X floatatom 208 214 5 0 0 0 - - -;
#X obj 207 195 bng 15 250 50 0 empty empty empty 17 7 0 10 -262144
-1 -1;
#X msg 347 275 0;
#X obj 308 251 t f f b;
#X floatatom 234 413 5 0 0 0 - - -;
#X obj 308 229 * 44.1;
#X text 307 210 (1/1000 second);
#X obj 428 296 * 44.1;
#X connect 1 0 3 0;
#X connect 3 0 0 0;
#X connect 3 0 0 1;
#X connect 3 0 2 1;
#X connect 3 0 2 2;
#X connect 4 0 3 1;
#X connect 5 0 4 0;
#X connect 5 0 15 0;
#X connect 7 0 6 0;
#X connect 12 0 5 0;
#X connect 13 0 16 0;
#X connect 14 0 12 0;
#X connect 16 0 14 0;
#X connect 17 0 3 0;
#X connect 18 0 17 0;
#X connect 19 0 18 0;
#X connect 20 0 22 0;
#X connect 21 0 20 0;
#X connect 22 0 19 0;
#X connect 25 0 23 0;
#X connect 26 0 14 0;
#X connect 27 0 28 0;
#X connect 27 0 30 0;
#X connect 27 0 34 0;
#X connect 29 0 27 0;
#X connect 30 0 31 0;
#X connect 32 1 33 0;
#X connect 33 0 45 0;
#X connect 33 0 22 0;
#X connect 34 0 33 1;
#X connect 35 0 32 0;
#X connect 37 0 48 0;
#X connect 39 0 35 0;
#X connect 40 0 39 0;
#X connect 41 0 46 0;
#X connect 41 0 40 1;
#X connect 42 0 41 0;
#X connect 43 0 39 0;
#X connect 44 0 40 0;
#X connect 44 2 43 0;
#X connect 46 0 44 0;
#X connect 48 0 35 1;
