#N canvas 477 154 1051 693 10;
#X obj 397 591 notein;
#X floatatom 388 623 5 0 0 0 - - -;
#X text 390 575 56 = G#;
#X obj 260 625 noteout;
#X obj 74 82 metro 250;
#X obj 74 111 tgl 15 0 empty empty empty 17 7 0 10 -262144 -1 -1 0
1;
#X obj 74 137 sel 1;
#X obj 74 54 tgl 15 0 empty empty empty 17 7 0 10 -262144 -1 -1 1 1
;
#X msg 133 30 250;
#X floatatom 132 57 5 0 0 0 - - -;
#X obj 182 29 loadbang;
#X obj 81 321 t b b;
#X obj 108 348 del;
#X obj 123 319 r tempo;
#X obj 155 84 s tempo;
#X obj 201 324 t b b;
#X obj 228 351 del;
#X obj 243 322 r tempo;
#X obj 74 172 f 1;
#X obj 76 201 sel 1 2;
#X obj 78 233 random 100;
#X obj 73 293 bng 15 250 50 0 empty empty empty 17 7 0 10 -262144 -1
-1;
#X msg 95 295 2;
#X obj 127 294 bng 15 250 50 0 empty empty empty 17 7 0 10 -262144
-1 -1;
#X msg 149 296 1;
#X obj 205 232 random 100;
#X obj 200 292 bng 15 250 50 0 empty empty empty 17 7 0 10 -262144
-1 -1;
#X msg 222 294 2;
#X obj 254 293 bng 15 250 50 0 empty empty empty 17 7 0 10 -262144
-1 -1;
#X msg 276 295 1;
#X obj 76 266 moses 60;
#X obj 203 265 moses 33;
#X obj 253 439 sel 1 2 3;
#X obj 252 468 f;
#X obj 262 493 f;
#X obj 272 516 f;
#X msg 74 351 1;
#X msg 82 380 2;
#X msg 196 351 3;
#X msg 205 382 2;
#X obj 120 145 r state1;
#X obj 9 312 s state1;
#X obj 272 265 moses 50;
#X obj 80 442 bng 15 250 50 0 empty empty empty 17 7 0 10 -262144 -1
-1;
#X floatatom 79 490 5 0 0 0 - - -;
#X obj 79 463 gaussian 50 5 20;
#X obj 505 122 cnv 15 223 20 empty empty 365.days.of.creative.coding
23 12 1 16 -128992 -257985 0;
#X obj 505 146 cnv 15 223 20 empty empty mrfunkyland 131 12 1 16 -128992
-257985 0;
#X obj 505 170 cnv 15 223 50 empty empty day 135 20 1 50 -128992 -260097
0;
#X obj 505 221 cnv 15 223 40 empty empty twenty 80 15 1 47 -128992
-257985 0;
#X obj 242 126 - 200;
#X floatatom 289 127 5 0 0 0 - - -;
#X obj 242 157 hsl 128 15 0 127 0 0 empty empty empty -2 -8 0 10 -262144
-1 -1 4961 1;
#X obj 244 45 f;
#X obj 274 45 + 1;
#X msg 310 29 0;
#X floatatom 282 77 5 0 0 0 - - -;
#X obj 245 70 / 8;
#X obj 243 99 cosr 250 20 4;
#X obj 252 571 makenote 70 700;
#X msg 359 55 20;
#X msg 361 82 40;
#X msg 398 54 8;
#X msg 400 81 20;
#X obj 357 34 bng 15 250 50 0 empty empty empty 17 7 0 10 -262144 -1
-1;
#X obj 392 33 bng 15 250 50 0 empty empty empty 17 7 0 10 -262144 -1
-1;
#X obj 184 139 line;
#X msg 183 115 \$1 20;
#X floatatom 141 431 5 0 0 0 - - -;
#X msg 155 537 \$1 20;
#X obj 155 563 line;
#X msg 133 408 2;
#X msg 167 411 5;
#X floatatom 14 441 5 0 0 0 - - -;
#X obj 15 386 / 24;
#X obj 15 415 cosr 50 10 6;
#X text 300 9 tempo variance;
#X text 80 516 dynamic variance;
#X obj 426 31 bng 15 250 50 0 empty empty empty 17 7 0 10 -262144 -1
-1;
#X msg 363 102 0;
#X obj 347 129 - 0;
#X text 41 35 start/stop;
#X obj 300 196 sel 1;
#X obj 298 219 bng 15 250 50 0 empty empty empty 17 7 0 10 -262144
-1 -1;
#X obj 637 612 spigot;
#X obj 667 589 tgl 15 0 empty empty empty 17 7 0 10 -262144 -1 -1 0
1;
#X msg 669 568 0;
#X msg 669 546 1;
#X obj 666 663 del 10;
#X obj 668 638 t b;
#X obj 579 652 f;
#X obj 592 619 - 12;
#X obj 681 467 tgl 15 0 empty empty empty 17 7 0 10 -262144 -1 -1 1
1;
#X obj 621 515 sel 0 1;
#X obj 623 489 tgl 15 0 empty empty empty 17 7 0 10 -262144 -1 -1 0
1;
#X obj 588 564 t b b;
#X obj 628 565 t b b;
#X msg 601 590 12;
#X obj 466 656 noteout;
#X obj 458 624 makenote 70 5000;
#X text 607 465 bass accent;
#X msg 209 66 250;
#X obj 679 491 sel 0;
#X obj 836 493 f;
#X obj 846 518 f;
#X obj 856 541 f;
#X obj 885 443 bng 15 250 50 0 empty empty empty 17 7 0 10 -262144
-1 -1;
#X obj 932 443 bng 15 250 50 0 empty empty empty 17 7 0 10 -262144
-1 -1;
#X obj 982 443 bng 15 250 50 0 empty empty empty 17 7 0 10 -262144
-1 -1;
#X obj 893 645 noteout;
#X obj 862 573 makenote 30 700;
#X obj 875 620 spigot;
#X obj 909 597 tgl 15 0 empty empty empty 17 7 0 10 -262144 -1 -1 1
1;
#X msg 883 470 75;
#X msg 891 499 80;
#X msg 905 525 83;
#X msg 939 498 80;
#X msg 986 500 82;
#X msg 931 469 76;
#X msg 978 471 78;
#X msg 953 524 85;
#X msg 1000 526 85;
#N canvas 0 187 1198 723 markov-harmony 0;
#X obj 73 160 notein;
#X floatatom 64 192 5 0 0 0 - - -;
#X text 66 144 56 = G#;
#X obj 515 312 random 10;
#X obj 515 341 > 4;
#X obj 514 367 sel 0 1;
#X msg 369 456 56;
#X msg 377 485 59;
#X msg 391 511 63;
#X obj 374 424 bng 15 250 50 0 empty empty empty 17 7 0 10 -262144
-1 -1;
#X msg 417 455 56;
#X obj 422 423 bng 15 250 50 0 empty empty empty 17 7 0 10 -262144
-1 -1;
#X msg 425 484 61;
#X msg 439 510 64;
#X msg 464 457 56;
#X obj 469 425 bng 15 250 50 0 empty empty empty 17 7 0 10 -262144
-1 -1;
#X msg 472 486 58;
#X msg 486 512 63;
#X obj 285 199 bng 15 250 50 0 empty empty empty 17 7 0 10 -262144
-1 -1;
#X obj 326 240 f 1;
#X obj 353 225 r state2;
#X obj 327 312 random 100;
#X obj 327 341 moses 50;
#X obj 326 366 bng 15 250 50 0 empty empty empty 17 7 0 10 -262144
-1 -1;
#X msg 327 390 2;
#X obj 279 412 s state2;
#X obj 403 311 random 100;
#X obj 403 340 moses 50;
#X obj 402 365 bng 15 250 50 0 empty empty empty 17 7 0 10 -262144
-1 -1;
#X msg 403 389 2;
#X obj 443 363 bng 15 250 50 0 empty empty empty 17 7 0 10 -262144
-1 -1;
#X msg 444 387 1;
#X msg 363 390 1;
#X obj 318 212 del;
#X obj 339 162 r tempo;
#X obj 338 188 * 1.8;
#X obj 517 405 loadbang;
#X obj 480 251 f;
#X obj 510 251 + 1;
#X msg 546 235 0;
#X floatatom 546 260 5 0 0 0 - - -;
#X obj 666 211 % 20;
#X obj 666 238 sel 0;
#X obj 643 257 bng 15 250 50 0 empty empty empty 17 7 0 10 -262144
-1 -1;
#X obj 786 512 bng 15 250 50 0 empty empty empty 17 7 0 10 -262144
-1 -1;
#X obj 833 512 bng 15 250 50 0 empty empty empty 17 7 0 10 -262144
-1 -1;
#X obj 883 512 bng 15 250 50 0 empty empty empty 17 7 0 10 -262144
-1 -1;
#X obj 923 512 bng 15 250 50 0 empty empty empty 17 7 0 10 -262144
-1 -1;
#X msg 766 550 51;
#X msg 774 579 54;
#X msg 788 605 58;
#X msg 814 549 49;
#X msg 861 551 47;
#X msg 901 551 47;
#X msg 836 604 58;
#X msg 822 578 53;
#X msg 869 580 54;
#X msg 909 580 54;
#X msg 923 606 56;
#X msg 883 606 58;
#X obj 413 253 + 0;
#X msg 428 229 0;
#X msg 432 204 2;
#X obj 326 272 sel 1 2 3 4;
#X obj 700 145 f;
#X obj 730 145 + 1;
#X msg 766 129 0;
#X obj 677 55 loadbang;
#X obj 699 168 % 3;
#X obj 707 116 bng 15 250 50 0 empty empty empty 17 7 0 10 -262144
-1 -1;
#X obj 740 185 sel 0 1 2;
#X floatatom 765 165 5 0 0 0 - - -;
#X obj 757 263 random 100;
#X obj 757 292 moses 50;
#X obj 756 317 bng 15 250 50 0 empty empty empty 17 7 0 10 -262144
-1 -1;
#X msg 757 341 2;
#X obj 709 363 s state2;
#X obj 833 262 random 100;
#X obj 833 291 moses 50;
#X obj 832 316 bng 15 250 50 0 empty empty empty 17 7 0 10 -262144
-1 -1;
#X msg 833 340 2;
#X obj 873 319 bng 15 250 50 0 empty empty empty 17 7 0 10 -262144
-1 -1;
#X msg 874 338 1;
#X msg 793 341 1;
#X obj 902 309 moses 75;
#X obj 923 338 bng 15 250 50 0 empty empty empty 17 7 0 10 -262144
-1 -1;
#X msg 924 357 1;
#X obj 389 628 outlet;
#X obj 399 653 outlet;
#X obj 409 676 outlet;
#X obj 320 48 inlet;
#X obj 810 161 s section;
#X msg 222 474 1;
#X msg 223 500 2;
#X msg 227 524 3;
#X obj 232 569 s bayng;
#X connect 0 0 1 0;
#X connect 3 0 4 0;
#X connect 4 0 5 0;
#X connect 6 0 87 0;
#X connect 7 0 88 0;
#X connect 8 0 89 0;
#X connect 9 0 6 0;
#X connect 9 0 7 0;
#X connect 9 0 8 0;
#X connect 9 0 92 0;
#X connect 10 0 87 0;
#X connect 11 0 10 0;
#X connect 11 0 12 0;
#X connect 11 0 13 0;
#X connect 11 0 93 0;
#X connect 12 0 88 0;
#X connect 13 0 89 0;
#X connect 14 0 87 0;
#X connect 15 0 14 0;
#X connect 15 0 16 0;
#X connect 15 0 17 0;
#X connect 15 0 94 0;
#X connect 16 0 88 0;
#X connect 17 0 89 0;
#X connect 18 0 33 0;
#X connect 18 0 37 0;
#X connect 19 0 60 0;
#X connect 20 0 19 1;
#X connect 21 0 22 0;
#X connect 22 0 23 0;
#X connect 22 1 23 0;
#X connect 22 1 32 0;
#X connect 23 0 24 0;
#X connect 23 0 9 0;
#X connect 24 0 25 0;
#X connect 26 0 27 0;
#X connect 27 0 28 0;
#X connect 27 1 30 0;
#X connect 28 0 29 0;
#X connect 29 0 11 0;
#X connect 30 0 31 0;
#X connect 30 0 15 0;
#X connect 31 0 25 0;
#X connect 33 0 19 0;
#X connect 34 0 35 0;
#X connect 35 0 33 1;
#X connect 36 0 9 0;
#X connect 37 0 38 0;
#X connect 37 0 40 0;
#X connect 38 0 37 1;
#X connect 39 0 37 1;
#X connect 40 0 41 0;
#X connect 41 0 42 0;
#X connect 42 0 43 0;
#X connect 42 0 69 0;
#X connect 44 0 48 0;
#X connect 44 0 49 0;
#X connect 44 0 50 0;
#X connect 45 0 51 0;
#X connect 45 0 55 0;
#X connect 45 0 54 0;
#X connect 46 0 52 0;
#X connect 46 0 56 0;
#X connect 46 0 59 0;
#X connect 47 0 53 0;
#X connect 47 0 57 0;
#X connect 47 0 58 0;
#X connect 48 0 87 0;
#X connect 49 0 88 0;
#X connect 50 0 89 0;
#X connect 51 0 87 0;
#X connect 52 0 87 0;
#X connect 53 0 87 0;
#X connect 54 0 89 0;
#X connect 55 0 88 0;
#X connect 56 0 88 0;
#X connect 57 0 88 0;
#X connect 58 0 89 0;
#X connect 59 0 89 0;
#X connect 60 0 63 0;
#X connect 61 0 60 1;
#X connect 62 0 60 1;
#X connect 63 0 21 0;
#X connect 63 1 26 0;
#X connect 63 2 72 0;
#X connect 63 3 77 0;
#X connect 64 0 65 0;
#X connect 64 0 68 0;
#X connect 65 0 64 1;
#X connect 66 0 64 1;
#X connect 67 0 39 0;
#X connect 67 0 66 0;
#X connect 68 0 70 0;
#X connect 68 0 71 0;
#X connect 68 0 91 0;
#X connect 69 0 64 0;
#X connect 70 0 61 0;
#X connect 70 1 62 0;
#X connect 70 2 61 0;
#X connect 72 0 73 0;
#X connect 73 0 74 0;
#X connect 73 1 74 0;
#X connect 73 1 83 0;
#X connect 74 0 75 0;
#X connect 74 0 44 0;
#X connect 75 0 76 0;
#X connect 77 0 78 0;
#X connect 78 0 79 0;
#X connect 78 1 84 0;
#X connect 79 0 80 0;
#X connect 79 0 45 0;
#X connect 81 0 82 0;
#X connect 81 0 46 0;
#X connect 82 0 76 0;
#X connect 84 0 81 0;
#X connect 84 1 85 0;
#X connect 85 0 86 0;
#X connect 85 0 47 0;
#X connect 86 0 76 0;
#X connect 90 0 18 0;
#X connect 92 0 95 0;
#X connect 93 0 95 0;
#X connect 94 0 95 0;
#X restore 380 431 pd markov-harmony;
#X obj 758 22 r section;
#X obj 757 49 sel 0 1 2;
#X floatatom 824 22 5 0 0 0 - - -;
#X msg 435 52 8;
#X msg 971 576 0;
#X msg 974 598 1;
#X obj 884 397 r bayng;
#X obj 885 420 sel 1 2 3;
#X obj 265 366 r section;
#X obj 269 392 sel 0 1 2;
#X msg 631 590 12;
#X msg 437 79 2;
#X msg 440 103 60;
#X text 401 131 FIX;
#X obj 788 546 * 0.7;
#X obj 450 382 - 1;
#X obj 721 424 ctlout 1;
#X obj 721 338 t b b;
#X obj 726 319 bng 15 250 50 0 empty empty empty 17 7 0 10 -262144
-1 -1;
#X msg 720 394 127 64;
#X msg 770 392 0 64;
#X obj 773 364 del 20;
#X obj 722 363 del 35;
#X floatatom 424 159 5 0 0 0 - - -;
#X msg 401 103 -20;
#X obj 9 119 spigot;
#X obj 39 96 tgl 15 0 empty empty empty 17 7 0 10 -262144 -1 -1 1 1
;
#X obj 14 72 pipe 500;
#X connect 0 0 1 0;
#X connect 4 0 43 0;
#X connect 4 0 53 0;
#X connect 4 0 148 0;
#X connect 5 0 6 0;
#X connect 6 0 18 0;
#X connect 7 0 4 0;
#X connect 7 0 150 0;
#X connect 8 0 9 0;
#X connect 9 0 4 1;
#X connect 9 0 14 0;
#X connect 9 0 138 0;
#X connect 10 0 8 0;
#X connect 10 0 55 0;
#X connect 10 0 101 0;
#X connect 10 0 65 0;
#X connect 11 0 36 0;
#X connect 11 1 12 0;
#X connect 12 0 37 0;
#X connect 13 0 12 1;
#X connect 15 0 38 0;
#X connect 15 1 16 0;
#X connect 16 0 39 0;
#X connect 17 0 16 1;
#X connect 18 0 19 0;
#X connect 19 0 20 0;
#X connect 19 1 25 0;
#X connect 20 0 30 0;
#X connect 21 0 22 0;
#X connect 21 0 11 0;
#X connect 21 0 141 0;
#X connect 22 0 41 0;
#X connect 23 0 24 0;
#X connect 23 0 11 0;
#X connect 24 0 41 0;
#X connect 25 0 31 0;
#X connect 26 0 27 0;
#X connect 26 0 15 0;
#X connect 27 0 41 0;
#X connect 28 0 29 0;
#X connect 28 0 15 0;
#X connect 29 0 41 0;
#X connect 30 0 21 0;
#X connect 30 1 23 0;
#X connect 31 0 26 0;
#X connect 31 1 42 0;
#X connect 32 0 33 0;
#X connect 32 0 84 0;
#X connect 32 0 103 0;
#X connect 32 1 34 0;
#X connect 32 1 104 0;
#X connect 32 2 35 0;
#X connect 32 2 105 0;
#X connect 33 0 59 0;
#X connect 34 0 59 0;
#X connect 35 0 59 0;
#X connect 36 0 32 0;
#X connect 37 0 32 0;
#X connect 38 0 32 0;
#X connect 39 0 32 0;
#X connect 40 0 18 1;
#X connect 42 0 28 0;
#X connect 42 1 28 0;
#X connect 42 1 122 0;
#X connect 43 0 45 0;
#X connect 44 0 137 0;
#X connect 45 0 44 0;
#X connect 45 0 69 0;
#X connect 50 0 52 0;
#X connect 51 0 74 0;
#X connect 51 0 80 0;
#X connect 53 0 54 0;
#X connect 53 0 57 0;
#X connect 54 0 53 1;
#X connect 55 0 53 1;
#X connect 57 0 56 0;
#X connect 57 0 58 0;
#X connect 58 0 50 0;
#X connect 58 0 51 0;
#X connect 58 1 82 0;
#X connect 59 0 3 0;
#X connect 59 1 3 1;
#X connect 60 0 57 1;
#X connect 61 0 58 2;
#X connect 62 0 57 1;
#X connect 63 0 58 2;
#X connect 64 0 60 0;
#X connect 64 0 61 0;
#X connect 64 0 79 0;
#X connect 65 0 62 0;
#X connect 65 0 63 0;
#X connect 65 0 147 0;
#X connect 66 0 9 0;
#X connect 67 0 66 0;
#X connect 68 0 45 1;
#X connect 69 0 70 0;
#X connect 70 0 59 1;
#X connect 70 0 99 1;
#X connect 71 0 68 0;
#X connect 72 0 68 0;
#X connect 74 0 75 0;
#X connect 75 0 73 0;
#X connect 75 0 45 0;
#X connect 78 0 126 0;
#X connect 78 0 134 0;
#X connect 78 0 135 0;
#X connect 79 0 80 1;
#X connect 80 0 67 0;
#X connect 80 0 146 0;
#X connect 82 0 83 0;
#X connect 82 0 92 0;
#X connect 84 0 89 0;
#X connect 84 0 90 0;
#X connect 85 0 84 1;
#X connect 86 0 85 0;
#X connect 87 0 85 0;
#X connect 88 0 86 0;
#X connect 89 0 88 0;
#X connect 90 0 99 0;
#X connect 91 0 90 1;
#X connect 92 0 102 0;
#X connect 93 0 95 0;
#X connect 93 1 96 0;
#X connect 94 0 93 0;
#X connect 95 0 91 0;
#X connect 95 1 97 0;
#X connect 96 0 91 0;
#X connect 96 1 133 0;
#X connect 97 0 91 1;
#X connect 99 0 98 0;
#X connect 99 1 98 1;
#X connect 101 0 67 0;
#X connect 102 0 87 0;
#X connect 102 0 94 0;
#X connect 103 0 110 0;
#X connect 104 0 110 0;
#X connect 105 0 110 0;
#X connect 106 0 113 0;
#X connect 106 0 114 0;
#X connect 106 0 115 0;
#X connect 107 0 118 0;
#X connect 107 0 116 0;
#X connect 107 0 120 0;
#X connect 108 0 119 0;
#X connect 108 0 117 0;
#X connect 108 0 121 0;
#X connect 110 0 111 0;
#X connect 110 1 109 1;
#X connect 111 0 109 0;
#X connect 112 0 111 1;
#X connect 113 0 103 1;
#X connect 114 0 104 1;
#X connect 115 0 105 1;
#X connect 116 0 104 1;
#X connect 117 0 104 1;
#X connect 118 0 103 1;
#X connect 119 0 103 1;
#X connect 120 0 105 1;
#X connect 121 0 105 1;
#X connect 122 0 91 0;
#X connect 122 0 33 1;
#X connect 122 1 34 1;
#X connect 122 2 35 1;
#X connect 123 0 124 0;
#X connect 123 0 125 0;
#X connect 124 0 65 0;
#X connect 124 0 127 0;
#X connect 124 1 64 0;
#X connect 124 2 128 0;
#X connect 124 2 78 0;
#X connect 126 0 57 1;
#X connect 127 0 112 0;
#X connect 128 0 112 0;
#X connect 129 0 130 0;
#X connect 130 0 106 0;
#X connect 130 1 107 0;
#X connect 130 2 108 0;
#X connect 131 0 132 0;
#X connect 132 0 72 0;
#X connect 132 1 71 0;
#X connect 132 2 72 0;
#X connect 133 0 91 1;
#X connect 134 0 58 2;
#X connect 135 0 80 1;
#X connect 137 0 110 1;
#X connect 138 0 59 2;
#X connect 138 0 110 2;
#X connect 140 0 145 0;
#X connect 140 1 144 0;
#X connect 141 0 140 0;
#X connect 142 0 139 0;
#X connect 143 0 139 0;
#X connect 144 0 143 0;
#X connect 145 0 142 0;
#X connect 147 0 80 1;
#X connect 148 0 5 0;
#X connect 149 0 148 1;
#X connect 150 0 149 0;
