#N canvas 590 163 1222 693 10;
#X obj 397 591 notein;
#X floatatom 388 623 5 0 0 0 - - -;
#X text 390 575 56 = G#;
#X obj 260 603 noteout;
#X obj 74 82 metro 250;
#X obj 74 111 tgl 15 0 empty empty empty 17 7 0 10 -262144 -1 -1 1
1;
#X obj 74 137 sel 1;
#X obj 74 54 tgl 15 0 empty empty empty 17 7 0 10 -262144 -1 -1 1 1
;
#X msg 133 30 250;
#X floatatom 132 57 5 0 0 0 - - -;
#X obj 182 29 loadbang;
#X obj 585 304 random 10;
#X obj 585 333 > 4;
#X obj 584 359 sel 0 1;
#X obj 81 321 t b b;
#X obj 108 348 del;
#X obj 123 319 r tempo;
#X obj 155 84 s tempo;
#X obj 201 324 t b b;
#X obj 228 351 del;
#X obj 243 322 r tempo;
#X obj 74 172 f 1;
#X obj 76 201 sel 1 2;
#X obj 78 233 random 100;
#X obj 73 293 bng 15 250 50 0 empty empty empty 17 7 0 10 -262144 -1
-1;
#X msg 95 295 2;
#X obj 127 294 bng 15 250 50 0 empty empty empty 17 7 0 10 -262144
-1 -1;
#X msg 149 296 1;
#X obj 205 232 random 100;
#X obj 200 292 bng 15 250 50 0 empty empty empty 17 7 0 10 -262144
-1 -1;
#X msg 222 294 2;
#X obj 254 293 bng 15 250 50 0 empty empty empty 17 7 0 10 -262144
-1 -1;
#X msg 276 295 1;
#X obj 76 266 moses 60;
#X obj 203 265 moses 33;
#X obj 253 439 sel 1 2 3;
#X msg 439 448 56;
#X msg 447 477 59;
#X msg 461 503 63;
#X obj 252 468 f;
#X obj 262 493 f;
#X obj 272 516 f;
#X msg 74 351 1;
#X msg 82 380 2;
#X msg 196 351 3;
#X msg 205 382 2;
#X obj 444 416 bng 15 250 50 0 empty empty empty 17 7 0 10 -262144
-1 -1;
#X msg 487 447 56;
#X obj 492 415 bng 15 250 50 0 empty empty empty 17 7 0 10 -262144
-1 -1;
#X msg 495 476 61;
#X msg 509 502 64;
#X msg 534 449 56;
#X obj 539 417 bng 15 250 50 0 empty empty empty 17 7 0 10 -262144
-1 -1;
#X msg 542 478 58;
#X msg 556 504 63;
#X obj 120 145 r state1;
#X obj 9 312 s state1;
#X obj 355 191 bng 15 250 50 0 empty empty empty 17 7 0 10 -262144
-1 -1;
#X obj 396 232 f 1;
#X obj 396 264 sel 1 2;
#X obj 447 221 r state2;
#X obj 397 304 random 100;
#X obj 397 333 moses 50;
#X obj 396 358 bng 15 250 50 0 empty empty empty 17 7 0 10 -262144
-1 -1;
#X msg 397 382 2;
#X obj 349 404 s state2;
#X obj 473 303 random 100;
#X obj 473 332 moses 50;
#X obj 472 357 bng 15 250 50 0 empty empty empty 17 7 0 10 -262144
-1 -1;
#X msg 473 381 2;
#X obj 513 355 bng 15 250 50 0 empty empty empty 17 7 0 10 -262144
-1 -1;
#X msg 514 379 1;
#X msg 433 382 1;
#X obj 388 204 del;
#X obj 409 154 r tempo;
#X obj 408 180 * 1.8;
#X obj 272 265 moses 50;
#X obj 80 442 bng 15 250 50 0 empty empty empty 17 7 0 10 -262144 -1
-1;
#X floatatom 79 490 5 0 0 0 - - -;
#X obj 79 463 gaussian 50 5 20;
#X obj 587 397 loadbang;
#X obj 483 23 cnv 15 223 20 empty empty 365.days.of.creative.coding
23 12 1 16 -128992 -257985 0;
#X obj 483 47 cnv 15 223 20 empty empty mrfunkyland 131 12 1 16 -128992
-257985 0;
#X obj 483 71 cnv 15 223 50 empty empty day 135 20 1 50 -128992 -260097
0;
#X obj 483 122 cnv 15 223 40 empty empty nineteen 40 15 1 47 -128992
-257985 0;
#X obj 242 126 - 200;
#X floatatom 289 127 5 0 0 0 - - -;
#X obj 242 157 hsl 128 15 0 127 0 0 empty empty empty -2 -8 0 10 -262144
-1 -1 7000 1;
#X obj 244 45 f;
#X obj 274 45 + 1;
#X msg 310 29 0;
#X floatatom 282 77 5 0 0 0 - - -;
#X obj 244 70 / 8;
#X obj 243 99 cosr 250 20 4;
#X obj 252 571 makenote 70 700;
#X msg 359 55 20;
#X msg 361 82 40;
#X msg 394 54 8;
#X msg 396 81 20;
#X obj 357 34 bng 15 250 50 0 empty empty empty 17 7 0 10 -262144 -1
-1;
#X obj 392 33 bng 15 250 50 0 empty empty empty 17 7 0 10 -262144 -1
-1;
#X obj 184 139 line;
#X msg 183 115 \$1 20;
#X floatatom 141 431 5 0 0 0 - - -;
#X msg 155 537 \$1 20;
#X obj 155 563 line;
#X msg 133 408 2;
#X msg 167 411 5;
#X floatatom 14 441 5 0 0 0 - - -;
#X obj 18 379 / 24;
#X obj 15 415 cosr 50 10 6;
#X text 300 9 tempo variance;
#X text 80 516 dynamic variance;
#X obj 426 31 bng 15 250 50 0 empty empty empty 17 7 0 10 -262144 -1
-1;
#X msg 430 79 5;
#X msg 428 52 20;
#X msg 363 102 0;
#X msg 397 103 0;
#X obj 347 129 - 0;
#X msg 433 103 30;
#X text 41 35 start/stop;
#X obj 300 196 sel 1;
#X obj 298 219 bng 15 250 50 0 empty empty empty 17 7 0 10 -262144
-1 -1;
#X obj 637 612 spigot;
#X obj 667 589 tgl 15 0 empty empty empty 17 7 0 10 -262144 -1 -1 1
1;
#X msg 669 568 0;
#X msg 669 546 1;
#X obj 666 663 del 10;
#X obj 668 638 t b;
#X obj 579 652 f;
#X obj 592 619 - 12;
#X obj 681 467 tgl 15 0 empty empty empty 17 7 0 10 -262144 -1 -1 0
1;
#X obj 621 515 sel 0 1;
#X obj 623 489 tgl 15 0 empty empty empty 17 7 0 10 -262144 -1 -1 1
1;
#X obj 588 564 t b b;
#X obj 628 565 t b b;
#X msg 601 590 12;
#X msg 631 590 24;
#X obj 466 656 noteout;
#X obj 458 624 makenote 70 5000;
#X text 607 465 bass accent;
#X msg 209 66 250;
#X obj 679 491 sel 0;
#X msg 748 305 56;
#X msg 756 334 59;
#X msg 770 360 63;
#X obj 701 328 f;
#X obj 711 353 f;
#X obj 721 376 f;
#X msg 796 304 56;
#X msg 804 333 61;
#X msg 818 359 64;
#X msg 843 306 56;
#X msg 851 335 58;
#X msg 865 361 63;
#X obj 750 278 bng 15 250 50 0 empty empty empty 17 7 0 10 -262144
-1 -1;
#X obj 797 278 bng 15 250 50 0 empty empty empty 17 7 0 10 -262144
-1 -1;
#X obj 847 278 bng 15 250 50 0 empty empty empty 17 7 0 10 -262144
-1 -1;
#X obj 737 447 noteout;
#X obj 729 415 makenote 30 700;
#X connect 0 0 1 0;
#X connect 4 0 5 0;
#X connect 4 0 77 0;
#X connect 4 0 88 0;
#X connect 5 0 6 0;
#X connect 6 0 21 0;
#X connect 7 0 4 0;
#X connect 8 0 9 0;
#X connect 9 0 4 1;
#X connect 9 0 17 0;
#X connect 10 0 8 0;
#X connect 10 0 90 0;
#X connect 10 0 141 0;
#X connect 11 0 12 0;
#X connect 12 0 13 0;
#X connect 14 0 42 0;
#X connect 14 1 15 0;
#X connect 15 0 43 0;
#X connect 16 0 15 1;
#X connect 18 0 44 0;
#X connect 18 1 19 0;
#X connect 19 0 45 0;
#X connect 20 0 19 1;
#X connect 21 0 22 0;
#X connect 22 0 23 0;
#X connect 22 1 28 0;
#X connect 23 0 33 0;
#X connect 24 0 25 0;
#X connect 24 0 14 0;
#X connect 25 0 56 0;
#X connect 26 0 27 0;
#X connect 26 0 14 0;
#X connect 27 0 56 0;
#X connect 28 0 34 0;
#X connect 29 0 30 0;
#X connect 29 0 18 0;
#X connect 30 0 56 0;
#X connect 31 0 32 0;
#X connect 31 0 18 0;
#X connect 32 0 56 0;
#X connect 33 0 24 0;
#X connect 33 1 26 0;
#X connect 34 0 29 0;
#X connect 34 1 76 0;
#X connect 35 0 39 0;
#X connect 35 0 123 0;
#X connect 35 1 40 0;
#X connect 35 2 41 0;
#X connect 36 0 39 1;
#X connect 36 0 130 0;
#X connect 37 0 40 1;
#X connect 38 0 41 1;
#X connect 39 0 94 0;
#X connect 40 0 94 0;
#X connect 41 0 94 0;
#X connect 42 0 35 0;
#X connect 43 0 35 0;
#X connect 44 0 35 0;
#X connect 45 0 35 0;
#X connect 46 0 36 0;
#X connect 46 0 37 0;
#X connect 46 0 38 0;
#X connect 47 0 39 1;
#X connect 47 0 130 0;
#X connect 48 0 47 0;
#X connect 48 0 49 0;
#X connect 48 0 50 0;
#X connect 49 0 40 1;
#X connect 50 0 41 1;
#X connect 51 0 39 1;
#X connect 51 0 130 0;
#X connect 52 0 51 0;
#X connect 52 0 53 0;
#X connect 52 0 54 0;
#X connect 53 0 40 1;
#X connect 54 0 41 1;
#X connect 55 0 21 1;
#X connect 57 0 73 0;
#X connect 58 0 59 0;
#X connect 59 0 61 0;
#X connect 59 1 66 0;
#X connect 60 0 58 1;
#X connect 61 0 62 0;
#X connect 62 0 63 0;
#X connect 62 1 63 0;
#X connect 62 1 72 0;
#X connect 63 0 64 0;
#X connect 63 0 46 0;
#X connect 64 0 65 0;
#X connect 66 0 67 0;
#X connect 67 0 68 0;
#X connect 67 1 70 0;
#X connect 68 0 69 0;
#X connect 69 0 48 0;
#X connect 70 0 71 0;
#X connect 70 0 52 0;
#X connect 71 0 65 0;
#X connect 73 0 58 0;
#X connect 74 0 75 0;
#X connect 75 0 73 1;
#X connect 76 0 31 0;
#X connect 76 1 31 0;
#X connect 76 1 57 0;
#X connect 77 0 79 0;
#X connect 79 0 78 0;
#X connect 79 0 104 0;
#X connect 80 0 46 0;
#X connect 85 0 87 0;
#X connect 86 0 109 0;
#X connect 86 0 118 0;
#X connect 88 0 89 0;
#X connect 88 0 92 0;
#X connect 89 0 88 1;
#X connect 90 0 88 1;
#X connect 92 0 91 0;
#X connect 92 0 93 0;
#X connect 93 0 85 0;
#X connect 93 0 86 0;
#X connect 93 1 121 0;
#X connect 94 0 3 0;
#X connect 94 1 3 1;
#X connect 95 0 92 1;
#X connect 96 0 93 2;
#X connect 97 0 92 1;
#X connect 98 0 93 2;
#X connect 99 0 95 0;
#X connect 99 0 96 0;
#X connect 99 0 116 0;
#X connect 100 0 97 0;
#X connect 100 0 98 0;
#X connect 100 0 117 0;
#X connect 101 0 9 0;
#X connect 102 0 101 0;
#X connect 103 0 79 1;
#X connect 104 0 105 0;
#X connect 105 0 94 1;
#X connect 105 0 139 1;
#X connect 106 0 103 0;
#X connect 107 0 103 0;
#X connect 109 0 110 0;
#X connect 110 0 108 0;
#X connect 110 0 79 0;
#X connect 113 0 115 0;
#X connect 113 0 114 0;
#X connect 113 0 119 0;
#X connect 114 0 93 2;
#X connect 115 0 92 1;
#X connect 116 0 118 1;
#X connect 117 0 118 1;
#X connect 118 0 102 0;
#X connect 119 0 118 1;
#X connect 121 0 122 0;
#X connect 121 0 131 0;
#X connect 123 0 128 0;
#X connect 123 0 129 0;
#X connect 124 0 123 1;
#X connect 125 0 124 0;
#X connect 126 0 124 0;
#X connect 127 0 125 0;
#X connect 128 0 127 0;
#X connect 129 0 139 0;
#X connect 130 0 129 1;
#X connect 131 0 142 0;
#X connect 132 0 134 0;
#X connect 132 1 135 0;
#X connect 133 0 132 0;
#X connect 134 0 130 0;
#X connect 134 1 136 0;
#X connect 135 0 130 0;
#X connect 135 1 137 0;
#X connect 136 0 130 1;
#X connect 137 0 130 1;
#X connect 139 0 138 0;
#X connect 139 1 138 1;
#X connect 141 0 102 0;
#X connect 142 0 126 0;
#X connect 142 0 133 0;
#X connect 143 0 146 1;
#X connect 144 0 147 1;
#X connect 145 0 148 1;
#X connect 146 0 159 0;
#X connect 147 0 159 0;
#X connect 148 0 159 0;
#X connect 149 0 146 1;
#X connect 150 0 147 1;
#X connect 151 0 148 1;
#X connect 152 0 146 1;
#X connect 153 0 147 1;
#X connect 154 0 148 1;
#X connect 155 0 143 0;
#X connect 155 0 144 0;
#X connect 155 0 145 0;
#X connect 156 0 149 0;
#X connect 156 0 150 0;
#X connect 156 0 151 0;
#X connect 157 0 152 0;
#X connect 157 0 153 0;
#X connect 157 0 154 0;
#X connect 159 0 158 0;
#X connect 159 1 158 1;
