#N canvas 283 169 450 300 10;
#X obj 61 171 cos;
#X floatatom 64 235 5 0 0 0 - - -;
#X obj 90 126 f;
#X obj 105 105 * 2;
#X obj 61 145 *;
#X obj 57 97 t f b;
#X floatatom 56 75 5 0 0 0 - - -;
#X floatatom 56 28 5 0 0 0 - - -;
#X text 83 50 period;
#X floatatom 122 174 5 0 0 0 - - -;
#X obj 56 51 / 8;
#X obj 61 202 expr ($f1 * $f2) + $f3;
#X text 115 152 range;
#X floatatom 182 174 5 0 0 0 - - -;
#X text 175 152 center;
#X obj 105 83 pi;
#X obj 185 40 loadbang;
#X obj 209 100 inlet;
#X obj 269 100 inlet;
#X obj 339 100 inlet;
#X obj 135 260 outlet;
#X obj 15 5 inlet;
#X text 56 7 index;
#X obj 280 172 f \$1;
#X obj 320 172 f \$2;
#X obj 360 172 f \$3;
#X connect 0 0 11 0;
#X connect 1 0 20 0;
#X connect 2 0 4 1;
#X connect 3 0 2 1;
#X connect 4 0 0 0;
#X connect 5 0 4 0;
#X connect 5 1 2 0;
#X connect 6 0 5 0;
#X connect 7 0 10 0;
#X connect 9 0 11 1;
#X connect 10 0 6 0;
#X connect 11 0 1 0;
#X connect 13 0 11 2;
#X connect 15 0 3 0;
#X connect 16 0 15 0;
#X connect 16 0 23 0;
#X connect 16 0 24 0;
#X connect 16 0 25 0;
#X connect 17 0 13 0;
#X connect 18 0 9 0;
#X connect 19 0 10 1;
#X connect 21 0 7 0;
#X connect 23 0 13 0;
#X connect 24 0 9 0;
#X connect 25 0 10 1;
