#N canvas 1107 365 682 478 10;
#X obj 19 -45 inlet;
#X obj 70 352 outlet~;
#X text 99 4 ADSR;
#X obj 90 52 f;
#X obj 150 26 inlet;
#X obj 150 52 f;
#X obj 210 52 f;
#X obj 270 26 inlet;
#X obj 270 52 f;
#X obj 153 106 del;
#X obj 90 106 pack 0 0;
#X obj 162 222 line;
#X obj 161 245 * 127;
#X obj 133 275 vsl 15 128 0 127 0 0 empty empty empty 0 -9 0 10 -262144
-1 -1 0 1;
#X obj 212 100 pack 0 0;
#X obj 152 128 t b b b;
#X obj 286 79 del;
#X obj 460 26 inlet;
#X obj 460 52 f;
#X obj 287 104 t b b;
#X floatatom 120 -17 5 0 0 0 - - -;
#X obj 76 -18 bng 15 250 50 0 empty empty empty 17 7 0 10 -262144 -1
-1;
#X obj 78 -47 moses 1;
#X obj 28 10 / 127;
#X obj 90 26 t f b b;
#X obj 204 23 * 0.2;
#X obj 249 -44 vsl 15 64 0 1 0 0 empty empty empty 0 -9 0 10 -262144
-1 -1 3150 1;
#X text 271 -13 decay level;
#X floatatom 34 37 5 0 0 0 - - -;
#X obj 69 249 line;
#X obj 70 321 line~;
#X msg 40 201 0 5;
#X obj 283 238 + 5;
#X msg 73 286 \$1 5;
#X obj 16 -11 pipe 0;
#X msg 452 102 0 \$1;
#X msg 26 153 stop;
#X obj 153 -41 t f b b;
#X msg 292 -39 0.5;
#X obj 324 -42 loadbang;
#X connect 0 0 22 0;
#X connect 3 0 10 0;
#X connect 3 0 25 0;
#X connect 4 0 5 1;
#X connect 5 0 10 1;
#X connect 5 0 32 0;
#X connect 6 0 14 0;
#X connect 7 0 8 1;
#X connect 8 0 14 1;
#X connect 8 0 16 1;
#X connect 9 0 15 0;
#X connect 10 0 11 0;
#X connect 10 0 29 0;
#X connect 11 0 12 0;
#X connect 12 0 13 0;
#X connect 14 0 11 0;
#X connect 14 0 29 0;
#X connect 15 0 6 0;
#X connect 15 1 16 0;
#X connect 15 2 8 0;
#X connect 16 0 19 0;
#X connect 17 0 18 1;
#X connect 18 0 35 0;
#X connect 21 0 18 0;
#X connect 22 0 21 0;
#X connect 22 1 20 0;
#X connect 22 1 37 0;
#X connect 23 0 28 0;
#X connect 23 0 24 0;
#X connect 24 0 3 0;
#X connect 24 1 9 0;
#X connect 24 2 5 0;
#X connect 25 0 6 1;
#X connect 26 0 25 1;
#X connect 29 0 33 0;
#X connect 30 0 1 0;
#X connect 31 0 29 0;
#X connect 32 0 9 1;
#X connect 33 0 30 0;
#X connect 34 0 23 0;
#X connect 35 0 11 0;
#X connect 35 0 29 0;
#X connect 36 0 29 0;
#X connect 37 0 34 0;
#X connect 37 1 31 0;
#X connect 37 2 36 0;
#X connect 38 0 26 0;
#X connect 39 0 38 0;
