#N canvas 737 222 619 317 10;
#X obj 30 26 inlet;
#X obj 90 26 inlet;
#X obj 68 274 outlet~;
#X obj 69 249 line~;
#X text 99 4 ADSR;
#X obj 150 26 inlet;
#X obj 210 26 inlet;
#X obj 270 26 inlet;
#X obj 380 26 inlet;
#X obj 156 79 del;
#X obj 90 106 pack 0 0;
#X obj 30 52 t b b b;
#X obj 162 222 line;
#X obj 161 245 * 127;
#X obj 259 151 vsl 15 128 0 127 0 0 empty empty empty 0 -9 0 10 -262144
-1 -1 0 1;
#X obj 212 100 pack 0 0;
#X obj 155 101 t b b b;
#X obj 286 79 del;
#X obj 460 26 inlet;
#X obj 381 86 del;
#X obj 287 104 t b b;
#X obj 455 137 pack 0 0;
#X msg 453 114 0;
#X obj 382 111 t b b;
#X obj 90 52 f \$1;
#X obj 150 52 f \$2;
#X obj 210 52 f \$3;
#X obj 270 52 f \$4;
#X obj 380 52 f \$5;
#X obj 460 52 f \$6;
#X connect 0 0 11 0;
#X connect 1 0 24 1;
#X connect 3 0 2 0;
#X connect 5 0 25 1;
#X connect 6 0 26 1;
#X connect 7 0 27 1;
#X connect 8 0 28 1;
#X connect 9 0 16 0;
#X connect 10 0 3 0;
#X connect 10 0 12 0;
#X connect 11 0 24 0;
#X connect 11 1 9 0;
#X connect 11 2 25 0;
#X connect 12 0 13 0;
#X connect 13 0 14 0;
#X connect 15 0 12 0;
#X connect 15 0 3 0;
#X connect 16 0 26 0;
#X connect 16 1 17 0;
#X connect 16 2 27 0;
#X connect 17 0 20 0;
#X connect 18 0 29 1;
#X connect 19 0 23 0;
#X connect 20 0 19 0;
#X connect 20 1 28 0;
#X connect 21 0 12 0;
#X connect 21 0 3 0;
#X connect 22 0 21 0;
#X connect 23 0 22 0;
#X connect 23 1 29 0;
#X connect 24 0 10 0;
#X connect 25 0 9 1;
#X connect 25 0 10 1;
#X connect 26 0 15 0;
#X connect 27 0 15 1;
#X connect 27 0 17 1;
#X connect 28 0 19 1;
#X connect 29 0 21 1;
