#N canvas 204 51 565 532 10;
#X obj 95 64 inlet;
#X obj 256 61 inlet;
#X obj 219 411 outlet;
#X obj 101 315 / 2.14748e+09;
#X obj 100 222 bng 15 250 50 0 empty empty empty 17 7 0 10 -262144
-1 -1;
#X obj 312 168 float \$1;
#X obj 222 361 * 1;
#X obj 313 137 loadbang;
#X obj 313 196 sel 0;
#X text 89 40 bang: do it;
#X text 252 37 upper limit;
#X obj 102 286 + 1;
#X obj 103 252 random 2.14748e+09;
#X text 121 457 generate float number between 0 and upper limit x >
0 \; argument: upper limit x;
#X connect 0 0 4 0;
#X connect 1 0 6 1;
#X connect 3 0 6 0;
#X connect 4 0 12 0;
#X connect 5 0 8 0;
#X connect 6 0 2 0;
#X connect 7 0 5 0;
#X connect 8 1 6 1;
#X connect 11 0 3 0;
#X connect 12 0 11 0;
