#N canvas 247 217 723 317 10;
#X obj 295 184 *~;
#X obj 337 184 line~;
#X obj 219 175 cos~;
#X obj 219 150 +~;
#X obj 337 161 pack 0 50;
#X floatatom 115 136 0 0 0 0 - - -;
#X obj 337 137 / 100;
#X obj 219 125 phasor~;
#X obj 196 224 hip~;
#X obj 294 113 osc~;
#X floatatom 114 114 7 0 15 0 - - -;
#X obj 219 98 *;
#X obj 294 81 mtof;
#X obj 139 267 outlet~;
#X obj 241 270 outlet~;
#X obj 68 10 inlet;
#X obj 539 179 *~;
#X obj 581 179 line~;
#X obj 463 170 cos~;
#X obj 463 145 +~;
#X obj 581 156 pack 0 50;
#X floatatom 581 108 0 0 0 0 - - -;
#X obj 581 132 / 100;
#X obj 463 120 phasor~;
#X obj 538 108 osc~;
#X text 616 108 index (x100);
#X obj 463 93 *;
#X obj 537 44 mtof;
#X obj 246 234 hip~;
#X text 145 115 harm;
#X text 145 136 index;
#X floatatom 115 158 0 0 0 0 - - -;
#X text 145 158 detune;
#X obj 538 79 +;
#X msg 33 130 0;
#X obj 36 65 loadbang;
#X msg 209 52 4;
#X obj 329 31 inlet;
#X obj 389 31 inlet;
#X text 108 11 pitch;
#X msg 129 52 0.008;
#X msg 169 52 94;
#X connect 0 0 3 1;
#X connect 1 0 0 1;
#X connect 2 0 8 0;
#X connect 3 0 2 0;
#X connect 4 0 1 0;
#X connect 5 0 6 0;
#X connect 5 0 22 0;
#X connect 6 0 4 0;
#X connect 7 0 3 0;
#X connect 8 0 13 0;
#X connect 9 0 0 0;
#X connect 10 0 11 0;
#X connect 10 0 26 0;
#X connect 11 0 7 0;
#X connect 12 0 9 0;
#X connect 12 0 11 1;
#X connect 15 0 12 0;
#X connect 15 0 27 0;
#X connect 16 0 19 1;
#X connect 17 0 16 1;
#X connect 18 0 28 0;
#X connect 19 0 18 0;
#X connect 20 0 17 0;
#X connect 21 0 22 0;
#X connect 22 0 20 0;
#X connect 23 0 19 0;
#X connect 24 0 16 0;
#X connect 26 0 23 0;
#X connect 27 0 26 1;
#X connect 27 0 33 0;
#X connect 28 0 14 0;
#X connect 31 0 33 1;
#X connect 33 0 24 0;
#X connect 34 0 31 0;
#X connect 35 0 34 0;
#X connect 35 0 40 0;
#X connect 35 0 41 0;
#X connect 36 0 31 0;
#X connect 37 0 10 0;
#X connect 38 0 5 0;
#X connect 40 0 10 0;
#X connect 41 0 5 0;
#X coords 0 -1 1 1 85 80 1 100 100;
