#N canvas 80 34 844 773 10;
#X obj 168 111 t f b;
#X obj 172 73 float \$1;
#X floatatom 157 665 0 0 0 0 - - -;
#X obj 160 642 + 0;
#X obj 223 196 t f f;
#X floatatom 345 430 0 0 0 0 - - -;
#X obj 111 19 inlet;
#X obj 548 122 inlet;
#X obj 319 39 inlet;
#X obj 156 699 outlet;
#X obj 222 349 until;
#X obj 384 507 float;
#X obj 350 543 +;
#X obj 222 537 float;
#X obj 346 469 t f b;
#X msg 434 337 0;
#X text 158 18 bang/float: trigger \, or set central value and trigger
;
#X text 591 122 range +/-;
#X text 368 38 narrowness of window;
#X text 211 700 semi-random value;
#X obj 190 287 t b b f b;
#X obj 345 504 - 0;
#X floatatom 295 650 25 0 0 0 - - -;
#X obj 216 320 float 1;
#X obj 319 132 moses 1;
#X obj 227 375 float_random;
#X obj 671 117 loadbang;
#X obj 671 140 t b b;
#X obj 707 196 float \$1;
#X text 461 563 arg 1: central value c \; arg 2: narrowness of window
(int n >= 1) \; arg 3: range +/- \, r > 0 (optional \; default r =
c);
#X obj 631 185 sel 0;
#X obj 264 572 / 1;
#X obj 381 59 loadbang;
#X obj 320 110 expr int ($f1 + 0.5);
#X obj 381 83 float \$2;
#X obj 629 165 float \$3;
#X floatatom 365 400 0 0 0 0 - - -;
#X obj 218 247 * 2;
#X obj 212 159 float;
#X obj 638 276 abs;
#X connect 0 0 3 0;
#X connect 0 1 38 0;
#X connect 1 0 0 0;
#X connect 2 0 9 0;
#X connect 3 0 2 0;
#X connect 4 0 37 0;
#X connect 4 1 21 1;
#X connect 5 0 14 0;
#X connect 6 0 1 0;
#X connect 7 0 39 0;
#X connect 8 0 33 0;
#X connect 10 0 25 0;
#X connect 11 0 12 1;
#X connect 12 0 11 1;
#X connect 12 0 13 1;
#X connect 13 0 31 0;
#X connect 14 0 21 0;
#X connect 14 1 11 0;
#X connect 15 0 11 1;
#X connect 20 0 13 0;
#X connect 20 1 23 0;
#X connect 20 2 25 1;
#X connect 20 2 36 0;
#X connect 20 3 15 0;
#X connect 21 0 12 0;
#X connect 23 0 10 0;
#X connect 24 1 23 1;
#X connect 24 1 31 1;
#X connect 25 0 5 0;
#X connect 26 0 27 0;
#X connect 27 0 35 0;
#X connect 27 1 28 0;
#X connect 28 0 39 0;
#X connect 30 1 39 0;
#X connect 31 0 22 0;
#X connect 31 0 3 1;
#X connect 32 0 34 0;
#X connect 33 0 24 0;
#X connect 34 0 33 0;
#X connect 35 0 30 0;
#X connect 37 0 20 0;
#X connect 38 0 4 0;
#X connect 39 0 38 1;
