#N canvas 65 131 596 415 10;
#X obj 278 61 drip;
#X obj 283 114 f;
#X obj 313 114 + 1;
#X floatatom 315 143 5 0 0 0 - - -;
#X msg 308 89 0;
#X obj 280 83 t b;
#X obj 315 228 t b f;
#X obj 315 252 pack \$1 f;
#X obj 510 378 table \$1-mel;
#X obj 252 177 tabwrite \$1-mel;
#X msg 315 276 \; \$1-mel resize \$2;
#X obj 432 149 arraysize \$1-mel;
#X floatatom 432 179 5 0 0 0 - - -;
#X obj 432 123 bng 15 250 50 0 empty empty empty 17 7 0 10 -262144
-1 -1;
#X obj 257 18 inlet;
#X obj 328 45 loadbang;
#X obj 94 64 expr ($f1 - 1) * 2;
#X floatatom 94 37 5 0 0 0 - - -;
#X floatatom 95 93 5 0 0 0 - - -;
#X obj 137 96 + 1;
#X floatatom 137 119 5 0 0 0 - - -;
#X obj 96 162 tabread \$1-mel;
#X floatatom 96 189 5 0 0 0 - - -;
#X obj 36 132 tabread \$1-mel;
#X floatatom 36 159 5 0 0 0 - - -;
#X obj 190 274 f;
#X obj 191 247 - 1;
#X obj 26 13 inlet;
#X text 72 14 play;
#X text 304 11 note \, length list;
#X text 310 22 1 beat = 1;
#X obj 381 80 t b;
#X obj 380 102 del 1000;
#X obj 444 23 inlet;
#X text 483 26 tempo;
#X obj 96 245 t b f;
#X obj 28 78 f;
#X obj 58 78 + 1;
#X msg 53 53 0;
#X obj 13 36 t b b;
#X obj 9 109 bng 15 250 50 0 empty empty empty 17 7 0 10 -262144 -1
-1;
#X obj 144 15 bng 15 250 50 0 empty empty empty 17 7 0 10 -262144 -1
-1;
#X obj 96 267 del 500;
#X obj 99 303 bng 15 250 50 0 empty empty empty 17 7 0 10 -262144 -1
-1;
#X obj 96 222 * 500;
#X obj 273 325 sel 1;
#X obj 190 349 spigot;
#X obj 223 327 tgl 15 0 empty empty empty 17 7 0 10 -262144 -1 -1 1
1;
#X msg 225 278 0;
#X msg 224 302 1;
#X obj 341 377 outlet;
#X obj 40 371 outlet;
#X text 388 377 finished;
#X obj 276 358 bng 15 250 50 0 empty empty empty 17 7 0 10 -262144
-1 -1;
#X obj 275 303 >;
#X obj 39 330 moses 2;
#X obj 108 380 outlet;
#X obj 103 350 - 5;
#X floatatom 133 327 5 0 0 0 - - -;
#X connect 0 0 5 0;
#X connect 0 0 9 0;
#X connect 1 0 2 0;
#X connect 1 0 9 1;
#X connect 2 0 1 1;
#X connect 2 0 3 0;
#X connect 3 0 6 0;
#X connect 3 0 26 0;
#X connect 3 0 31 0;
#X connect 4 0 1 1;
#X connect 5 0 1 0;
#X connect 6 0 7 0;
#X connect 6 1 7 1;
#X connect 7 0 10 0;
#X connect 11 0 12 0;
#X connect 13 0 11 0;
#X connect 14 0 0 0;
#X connect 15 0 4 0;
#X connect 16 0 18 0;
#X connect 17 0 16 0;
#X connect 18 0 19 0;
#X connect 18 0 23 0;
#X connect 19 0 20 0;
#X connect 20 0 21 0;
#X connect 20 0 54 0;
#X connect 21 0 22 0;
#X connect 22 0 44 0;
#X connect 23 0 24 0;
#X connect 24 0 55 0;
#X connect 26 0 25 1;
#X connect 26 0 54 1;
#X connect 27 0 39 0;
#X connect 31 0 32 0;
#X connect 32 0 4 0;
#X connect 33 0 44 1;
#X connect 35 0 42 0;
#X connect 35 1 42 1;
#X connect 36 0 37 0;
#X connect 37 0 36 1;
#X connect 37 0 17 0;
#X connect 38 0 36 1;
#X connect 39 0 36 0;
#X connect 39 1 38 0;
#X connect 39 1 49 0;
#X connect 40 0 36 0;
#X connect 41 0 39 0;
#X connect 42 0 43 0;
#X connect 42 0 46 0;
#X connect 44 0 35 0;
#X connect 44 0 57 0;
#X connect 44 0 58 0;
#X connect 45 0 48 0;
#X connect 45 0 50 0;
#X connect 45 0 53 0;
#X connect 46 0 40 0;
#X connect 47 0 46 1;
#X connect 48 0 47 0;
#X connect 49 0 47 0;
#X connect 54 0 45 0;
#X connect 55 1 51 0;
#X connect 57 0 56 0;
