#N canvas 47 48 1188 729 10;
#X msg 39 22 1;
#X msg 39 42 2;
#X msg 39 62 3;
#X msg 39 82 4;
#X msg 39 102 5;
#X msg 39 122 6;
#X msg 39 142 7;
#X msg 39 162 8;
#X msg 39 182 9;
#X msg 39 202 10;
#X msg 39 222 11;
#X msg 39 242 12;
#X msg 39 262 13;
#X msg 39 282 14;
#X msg 39 302 15;
#X msg 39 322 16;
#X msg 39 342 17;
#X msg 39 362 18;
#X msg 39 382 19;
#X msg 39 402 20;
#X msg 259 22 31;
#X msg 259 42 32;
#X msg 259 62 33;
#X msg 259 82 34;
#X msg 259 102 35;
#X msg 259 122 36;
#X msg 259 142 37;
#X msg 259 162 38;
#X msg 259 182 39;
#X msg 259 202 40;
#X msg 259 222 41;
#X msg 259 242 42;
#X msg 259 262 43;
#X msg 259 282 44;
#X msg 259 302 45;
#X msg 259 322 46;
#X msg 259 342 47;
#X msg 259 362 48;
#X msg 259 382 49;
#X msg 259 402 50;
#X msg 259 422 51;
#X msg 259 442 52;
#X msg 259 462 53;
#X msg 259 482 54;
#X msg 259 502 55;
#X msg 259 522 56;
#X msg 259 542 57;
#X msg 259 562 58;
#X msg 259 582 59;
#X msg 259 602 60;
#X msg 429 222 71;
#X msg 429 242 72;
#X msg 429 262 73;
#X msg 429 282 74;
#X msg 429 302 75;
#X msg 429 322 76;
#X msg 429 342 77;
#X msg 429 362 78;
#X msg 429 382 79;
#X msg 429 402 80;
#X msg 429 422 81;
#X msg 429 442 82;
#X msg 429 462 83;
#X msg 429 482 84;
#X msg 429 502 85;
#X msg 429 522 86;
#X msg 429 542 87;
#X msg 429 562 88;
#X msg 429 582 89;
#X msg 429 602 90;
#X msg 609 22 91;
#X msg 609 42 92;
#X msg 609 62 93;
#X msg 609 82 94;
#X msg 609 102 95;
#X msg 609 122 96;
#X msg 609 142 97;
#X msg 609 162 98;
#X msg 609 182 99;
#X msg 609 202 100;
#X msg 609 222 101;
#X msg 609 242 102;
#X msg 609 262 103;
#X msg 609 282 104;
#X msg 609 302 105;
#X msg 609 322 106;
#X msg 609 342 107;
#X msg 609 362 108;
#X msg 609 382 109;
#X msg 609 402 110;
#X msg 39 422 21;
#X msg 39 442 22;
#X msg 39 462 23;
#X msg 39 482 24;
#X msg 39 502 25;
#X msg 39 522 26;
#X msg 39 542 27;
#X msg 39 562 28;
#X msg 39 582 29;
#X msg 39 602 30;
#X msg 429 22 61;
#X msg 429 42 62;
#X msg 429 62 63;
#X msg 429 82 64;
#X msg 429 102 65;
#X msg 429 122 66;
#X msg 429 142 67;
#X msg 429 162 68;
#X msg 429 182 69;
#X msg 429 202 70;
#X msg 609 422 111;
#X msg 609 442 112;
#X msg 609 462 113;
#X msg 609 482 114;
#X msg 609 502 115;
#X msg 609 522 116;
#X msg 609 542 117;
#X msg 609 562 118;
#X msg 609 582 119;
#X msg 609 602 120;
#X msg 789 22 121;
#X msg 789 42 122;
#X msg 789 62 123;
#X msg 789 82 124;
#X msg 789 102 125;
#X msg 789 122 126;
#X msg 789 142 127;
#X text 72 42 Bright Acoustic Piano;
#X text 72 22 Acoustic Grand Piano;
#X text 72 62 Electric Grand Piano;
#X text 72 82 Honky-tonk Piano;
#X text 72 102 Electric Piano 1;
#X text 72 122 Electric Piano 2;
#X text 72 142 Harpsichord;
#X text 72 162 Clavinet;
#X text 72 182 Celesta;
#X text 72 202 Glockenspiel;
#X text 72 222 Music Box;
#X text 72 242 Vibraphone;
#X text 72 262 Marimba;
#X text 72 282 Xylophone;
#X text 72 302 Tubular Bells;
#X text 72 322 Dulcimer;
#X text 72 342 Drawbar Organ;
#X text 72 362 Percussive Organ;
#X text 72 382 Rock Organ;
#X text 72 402 Church Organ;
#X text 72 422 Reed Organ;
#X text 72 442 Accordion;
#X text 72 462 Harmonica;
#X text 72 482 Tango Accordion;
#X text 72 502 Nylon Acoustic Guitar;
#X text 72 522 Steel Acoustic Guitar;
#X text 72 542 Jazz Electric Guitar;
#X text 72 562 Clean Electric Guitar;
#X text 72 582 Muted Electric Guitar;
#X text 72 602 Overdriven Guitar;
#X text 292 22 Distortion Guitar;
#X text 292 42 Guitar Harmonics;
#X text 292 62 Acoustic Bass;
#X text 292 82 Electric Bass (finger);
#X text 292 102 Electric Bass (pick);
#X text 292 122 Fretless Bass;
#X text 292 142 Slap Bass 1;
#X text 292 162 Slap Bass 2;
#X text 292 182 Synth Bass 1;
#X text 292 202 Synth Bass 2;
#X text 292 222 Violin;
#X text 292 242 Viola;
#X text 292 262 Cello;
#X text 292 282 Contrabass;
#X text 292 302 Tremelo Strings;
#X text 292 322 Pizzicato Strings;
#X text 292 362 Timpani;
#X text 292 342 Harp;
#X text 292 382 String Ensemble 1;
#X text 292 402 String Ensemble 2;
#X text 292 422 Synth Strings 1;
#X text 292 442 Synth Strings 2;
#X text 292 462 Choir Aahs;
#X text 292 482 Voice Oohs;
#X text 292 502 Synth Voice;
#X text 292 522 Orchestra Hit;
#X text 292 542 Trumpet;
#X text 292 562 Trombone;
#X text 292 582 Tuba;
#X text 292 602 Mudet Trumpet;
#X text 462 22 French Horn;
#X text 462 42 Brass Section;
#X text 462 62 Synth Brass 1;
#X text 462 82 Synth Brass 2;
#X text 462 102 Soprano Sax;
#X text 462 122 Alto Sax;
#X text 462 142 Tenor Sax;
#X text 462 162 Baritone Sax;
#X text 462 182 Oboe;
#X text 462 202 English Horn;
#X text 462 222 Bassoon;
#X text 462 242 Clarinet;
#X text 462 262 Piccolo;
#X text 462 282 Flute;
#X text 462 302 Recorder;
#X text 462 322 Pan Flute;
#X text 462 342 Blown Bottle;
#X text 462 362 Shakuhachi;
#X text 462 382 Whistle;
#X text 462 402 Ocarina;
#X text 462 422 Square Lead;
#X text 462 442 Sawtooth Lead;
#X text 462 462 Calliope;
#X text 462 482 Chiff;
#X text 462 502 Charang;
#X text 462 522 Voice Lead;
#X text 462 542 Fifths;
#X text 462 562 Bass + Lead;
#X text 462 582 New Age;
#X text 462 602 Warm Pad;
#X text 642 22 Polysynth;
#X text 642 42 Choir Pad;
#X text 642 62 Bowed Pad;
#X text 642 82 Metallic Pad;
#X text 642 102 Halo;
#X text 642 122 Sweep Pad;
#X text 642 142 Rain;
#X text 642 162 Soundtrack;
#X text 642 182 Crystal;
#X text 642 202 Atmosphere;
#X text 642 222 Brightness;
#X text 642 242 Goblins;
#X text 642 262 Echoes;
#X text 642 282 Sci-fi;
#X text 642 302 Sitar;
#X text 642 322 Banjo;
#X text 642 342 Shamisen;
#X text 642 362 Koto;
#X text 642 382 Kalimba;
#X text 642 402 Bag Pipe;
#X text 642 422 Fiddle;
#X text 642 442 Shanai;
#X text 642 462 Tinkle Bell;
#X text 642 482 Agogo;
#X text 642 502 Steel Drums;
#X text 642 522 Woodblock;
#X text 642 542 Taiko Drum;
#X text 642 562 Melodic Tom;
#X text 642 582 Synth Drum;
#X text 642 602 Reverse Cymbal;
#X text 822 22 Fret Noise;
#X text 822 42 Breath Noise;
#X text 822 62 Seashore;
#X text 822 82 Bird Tweet;
#X text 822 102 Telephone Ring;
#X text 822 122 Helicopter;
#X text 822 142 Applause;
#X text 822 162 Gunshot;
#X msg 789 162 128;
#X floatatom 39 638 5 0 0 0 - - -;
#X floatatom 259 648 5 0 0 0 - - -;
#X floatatom 429 658 5 0 0 0 - - -;
#X floatatom 609 668 5 0 0 0 - - -;
#X floatatom 789 678 5 0 0 0 - - -;
#X floatatom 959 678 5 0 0 0 - - -;
#X obj 1018 682 outlet;
#X connect 0 0 256 0;
#X connect 1 0 256 0;
#X connect 2 0 256 0;
#X connect 3 0 256 0;
#X connect 4 0 256 0;
#X connect 5 0 256 0;
#X connect 6 0 256 0;
#X connect 7 0 256 0;
#X connect 8 0 256 0;
#X connect 9 0 256 0;
#X connect 10 0 256 0;
#X connect 11 0 256 0;
#X connect 12 0 256 0;
#X connect 13 0 256 0;
#X connect 14 0 256 0;
#X connect 15 0 256 0;
#X connect 16 0 256 0;
#X connect 17 0 256 0;
#X connect 18 0 256 0;
#X connect 19 0 256 0;
#X connect 20 0 257 0;
#X connect 21 0 257 0;
#X connect 22 0 257 0;
#X connect 23 0 257 0;
#X connect 24 0 257 0;
#X connect 25 0 257 0;
#X connect 26 0 257 0;
#X connect 27 0 257 0;
#X connect 28 0 257 0;
#X connect 29 0 257 0;
#X connect 30 0 257 0;
#X connect 31 0 257 0;
#X connect 32 0 257 0;
#X connect 33 0 257 0;
#X connect 34 0 257 0;
#X connect 35 0 257 0;
#X connect 36 0 257 0;
#X connect 37 0 257 0;
#X connect 38 0 257 0;
#X connect 39 0 257 0;
#X connect 40 0 257 0;
#X connect 41 0 257 0;
#X connect 42 0 257 0;
#X connect 43 0 257 0;
#X connect 44 0 257 0;
#X connect 45 0 257 0;
#X connect 46 0 257 0;
#X connect 47 0 257 0;
#X connect 48 0 257 0;
#X connect 49 0 257 0;
#X connect 50 0 258 0;
#X connect 51 0 258 0;
#X connect 52 0 258 0;
#X connect 53 0 258 0;
#X connect 54 0 258 0;
#X connect 55 0 258 0;
#X connect 56 0 258 0;
#X connect 57 0 258 0;
#X connect 58 0 258 0;
#X connect 59 0 258 0;
#X connect 60 0 258 0;
#X connect 61 0 258 0;
#X connect 62 0 258 0;
#X connect 63 0 258 0;
#X connect 64 0 258 0;
#X connect 65 0 258 0;
#X connect 66 0 258 0;
#X connect 67 0 258 0;
#X connect 68 0 258 0;
#X connect 69 0 258 0;
#X connect 70 0 259 0;
#X connect 71 0 259 0;
#X connect 72 0 259 0;
#X connect 73 0 259 0;
#X connect 74 0 259 0;
#X connect 75 0 259 0;
#X connect 76 0 259 0;
#X connect 77 0 259 0;
#X connect 78 0 259 0;
#X connect 79 0 259 0;
#X connect 80 0 259 0;
#X connect 81 0 259 0;
#X connect 82 0 259 0;
#X connect 83 0 259 0;
#X connect 84 0 259 0;
#X connect 85 0 259 0;
#X connect 86 0 259 0;
#X connect 87 0 259 0;
#X connect 88 0 259 0;
#X connect 89 0 259 0;
#X connect 90 0 256 0;
#X connect 91 0 256 0;
#X connect 92 0 256 0;
#X connect 93 0 256 0;
#X connect 94 0 256 0;
#X connect 95 0 256 0;
#X connect 96 0 256 0;
#X connect 97 0 256 0;
#X connect 98 0 256 0;
#X connect 99 0 256 0;
#X connect 100 0 258 0;
#X connect 101 0 258 0;
#X connect 102 0 258 0;
#X connect 103 0 258 0;
#X connect 104 0 258 0;
#X connect 105 0 258 0;
#X connect 106 0 258 0;
#X connect 107 0 258 0;
#X connect 108 0 258 0;
#X connect 109 0 258 0;
#X connect 110 0 259 0;
#X connect 111 0 259 0;
#X connect 112 0 259 0;
#X connect 113 0 259 0;
#X connect 114 0 259 0;
#X connect 115 0 259 0;
#X connect 116 0 259 0;
#X connect 117 0 259 0;
#X connect 118 0 259 0;
#X connect 119 0 259 0;
#X connect 120 0 260 0;
#X connect 121 0 260 0;
#X connect 122 0 260 0;
#X connect 123 0 260 0;
#X connect 124 0 260 0;
#X connect 125 0 260 0;
#X connect 126 0 260 0;
#X connect 255 0 260 0;
#X connect 256 0 261 0;
#X connect 257 0 261 0;
#X connect 258 0 261 0;
#X connect 259 0 261 0;
#X connect 260 0 261 0;
#X connect 261 0 262 0;
