#N canvas 104 5 563 419 10;
#X msg -311 355 start;
#X msg -301 382 stop;
#X obj -254 394 writesf~ 2;
#X obj -252 155 f;
#X obj -237 131 date spacerspare;
#X obj -272 84 bng 15 250 50 0 empty empty empty 17 7 0 10 -262144
-1 -1;
#X obj -128 131 time spacerspacer;
#X obj -252 181 list append;
#X obj -252 202 list append;
#X obj -252 223 list append;
#X obj -252 245 list append;
#X obj -252 268 list append;
#X obj -252 315 makefilename %s.wav;
#X obj -252 291 l2s -;
#X obj -174 382 print recording;
#X obj -272 59 sel 1 0;
#X obj -271 104 t b b b b;
#X obj -252 338 list prepend open;
#X obj -253 365 list trim;
#X obj -270 23 inlet;
#X text -227 25 start/stop;
#X obj -123 26 inlet~;
#X obj -63 26 inlet~;
#X obj 7 51 cnv 15 82 28 empty empty empty 20 12 0 14 -1 -66577 0;
#X obj 9 57 tgl 15 0 empty empty empty 17 7 0 10 -258113 -262144 -1
0 1;
#X text 25 56 start/stop;
#X obj -40 176 cnv 15 200 20 empty empty 365.days.of.creative.coding
5 12 1 16 -128992 -257985 0;
#X obj -40 200 cnv 15 200 20 empty empty mrfunkyland 112 12 1 16 -128992
-257985 0;
#X obj -40 224 cnv 15 100 60 empty empty day 15 27 1 50 -128992 -260097
0;
#X obj 60 224 cnv 15 100 60 empty empty five 0 27 1 50 -128992 -257985
0;
#X connect 0 0 2 0;
#X connect 1 0 2 0;
#X connect 3 0 7 0;
#X connect 4 0 3 1;
#X connect 4 1 7 1;
#X connect 4 2 8 1;
#X connect 5 0 16 0;
#X connect 6 0 9 1;
#X connect 6 1 10 1;
#X connect 6 2 11 1;
#X connect 7 0 8 0;
#X connect 8 0 9 0;
#X connect 9 0 10 0;
#X connect 10 0 11 0;
#X connect 11 0 13 0;
#X connect 12 0 17 0;
#X connect 13 0 12 0;
#X connect 15 0 5 0;
#X connect 15 1 1 0;
#X connect 16 0 0 0;
#X connect 16 1 3 0;
#X connect 16 2 4 0;
#X connect 16 3 6 0;
#X connect 17 0 18 0;
#X connect 18 0 2 0;
#X connect 18 0 14 0;
#X connect 19 0 15 0;
#X connect 21 0 2 0;
#X connect 22 0 2 1;
#X connect 24 0 15 0;
#X coords 0 -1 1 1 85 30 1 5 50;
