#N canvas 0 0 1084 712 10;
#X obj 101 368 osc~;
#X obj 141 368 osc~;
#X obj 181 368 osc~;
#X obj 221 368 osc~;
#X obj 261 368 osc~;
#X obj 301 368 osc~;
#X obj 341 368 osc~;
#X obj 381 368 osc~;
#X floatatom 101 277 5 0 0 0 - - -;
#X obj 141 336 * 2;
#X obj 181 336 * 3;
#X obj 221 336 * 4;
#X obj 261 336 * 5;
#X obj 301 336 * 6;
#X obj 341 336 * 7;
#X obj 381 336 * 8;
#X obj 100 487 *~;
#X obj 115 414 vsl 15 64 0 0.5 0 0 empty empty empty 0 -9 0 10 -262144
-1 -1 4628 1;
#X obj 140 487 *~;
#X obj 155 414 vsl 15 64 0 0.5 0 0 empty empty empty 0 -9 0 10 -262144
-1 -1 581 1;
#X obj 180 487 *~;
#X obj 195 414 vsl 15 64 0 0.5 0 0 empty empty empty 0 -9 0 10 -262144
-1 -1 697 1;
#X obj 220 487 *~;
#X obj 235 414 vsl 15 64 0 0.5 0 0 empty empty empty 0 -9 0 10 -262144
-1 -1 5764 1;
#X obj 260 487 *~;
#X obj 275 414 vsl 15 64 0 0.5 0 0 empty empty empty 0 -9 0 10 -262144
-1 -1 2772 1;
#X obj 300 487 *~;
#X obj 315 414 vsl 15 64 0 0.5 0 0 empty empty empty 0 -9 0 10 -262144
-1 -1 3370 1;
#X obj 340 487 *~;
#X obj 355 414 vsl 15 64 0 0.5 0 0 empty empty empty 0 -9 0 10 -262144
-1 -1 4810 1;
#X obj 380 487 *~;
#X obj 395 414 vsl 15 64 0 0.5 0 0 empty empty empty 0 -9 0 10 -262144
-1 -1 2192 1;
#X obj 543 256 random 50;
#X obj 543 280 / 100;
#X obj 517 158 f;
#X obj 547 158 + 1;
#X obj 498 304 pack 0 0;
#X msg 532 133 0;
#X obj 441 201 sel 0 1;
#X obj 517 113 bng 15 250 50 0 empty empty empty 17 7 0 10 -262144
-1 -1;
#X obj 458 321 print;
#X obj 116 391 line;
#X obj 156 391 line;
#X obj 196 391 line;
#X obj 236 391 line;
#X obj 276 391 line;
#X obj 316 391 line;
#X obj 356 391 line;
#X obj 396 391 line;
#X obj 498 374 pack 0 20;
#X obj 558 374 pack 0 20;
#X obj 618 374 pack 0 20;
#X obj 678 374 pack 0 20;
#X obj 738 374 pack 0 20;
#X obj 798 374 pack 0 20;
#X obj 858 374 pack 0 20;
#X obj 918 374 pack 0 20;
#X obj 442 175 > 6;
#X obj 498 335 route 0 1 2 3 4 5 6 7;
#X obj 862 339 route 0 1 2 3 4 5 6 7;
#X obj 862 305 pack 0 0;
#X obj 862 240 t f b;
#X obj 498 223 t f b f;
#X obj 517 78 metro 500;
#X obj 517 53 tgl 15 0 empty empty empty 17 7 0 10 -262144 -1 -1 1
1;
#X obj 907 281 * 20;
#X obj 907 257 random 10;
#X obj 101 205 inlet;
#X obj 260 600 outlet~;
#X obj 940 280 + 15;
#X obj 366 196 inlet;
#X obj 262 571 *~ 0.03;
#X connect 0 0 16 0;
#X connect 1 0 18 0;
#X connect 2 0 20 0;
#X connect 3 0 22 0;
#X connect 4 0 24 0;
#X connect 5 0 26 0;
#X connect 6 0 28 0;
#X connect 7 0 30 0;
#X connect 8 0 0 0;
#X connect 8 0 9 0;
#X connect 8 0 10 0;
#X connect 8 0 11 0;
#X connect 8 0 12 0;
#X connect 8 0 13 0;
#X connect 8 0 14 0;
#X connect 8 0 15 0;
#X connect 9 0 1 0;
#X connect 10 0 2 0;
#X connect 11 0 3 0;
#X connect 12 0 4 0;
#X connect 13 0 5 0;
#X connect 14 0 6 0;
#X connect 15 0 7 0;
#X connect 16 0 71 0;
#X connect 17 0 16 1;
#X connect 18 0 71 0;
#X connect 19 0 18 1;
#X connect 20 0 71 0;
#X connect 21 0 20 1;
#X connect 22 0 71 0;
#X connect 23 0 22 1;
#X connect 24 0 71 0;
#X connect 25 0 24 1;
#X connect 26 0 71 0;
#X connect 27 0 26 1;
#X connect 28 0 71 0;
#X connect 29 0 28 1;
#X connect 30 0 71 0;
#X connect 31 0 30 1;
#X connect 32 0 33 0;
#X connect 33 0 36 1;
#X connect 34 0 35 0;
#X connect 34 0 57 0;
#X connect 34 0 62 0;
#X connect 35 0 34 1;
#X connect 36 0 58 0;
#X connect 37 0 34 1;
#X connect 38 0 34 0;
#X connect 38 1 37 0;
#X connect 39 0 34 0;
#X connect 41 0 17 0;
#X connect 42 0 19 0;
#X connect 43 0 21 0;
#X connect 44 0 23 0;
#X connect 45 0 25 0;
#X connect 46 0 27 0;
#X connect 47 0 29 0;
#X connect 48 0 31 0;
#X connect 49 0 41 0;
#X connect 50 0 42 0;
#X connect 51 0 43 0;
#X connect 52 0 44 0;
#X connect 53 0 45 0;
#X connect 54 0 46 0;
#X connect 55 0 47 0;
#X connect 56 0 48 0;
#X connect 57 0 38 0;
#X connect 58 0 49 0;
#X connect 58 1 50 0;
#X connect 58 2 51 0;
#X connect 58 3 52 0;
#X connect 58 4 53 0;
#X connect 58 5 54 0;
#X connect 58 6 55 0;
#X connect 58 7 56 0;
#X connect 59 0 49 1;
#X connect 59 1 50 1;
#X connect 59 2 51 1;
#X connect 59 3 52 1;
#X connect 59 4 53 1;
#X connect 59 5 54 1;
#X connect 59 6 55 1;
#X connect 59 7 56 1;
#X connect 60 0 59 0;
#X connect 61 0 60 0;
#X connect 61 1 66 0;
#X connect 62 0 36 0;
#X connect 62 1 32 0;
#X connect 62 2 61 0;
#X connect 63 0 39 0;
#X connect 64 0 63 0;
#X connect 65 0 60 1;
#X connect 66 0 69 0;
#X connect 67 0 8 0;
#X connect 69 0 65 0;
#X connect 70 0 64 0;
#X connect 71 0 68 0;
