#N canvas 377 173 1542 655 10;
#X obj 389 263 vsl 15 128 0 127 0 0 empty empty empty 0 -8 0 8 -262144
-1 -1 4333 1;
#X obj 407 263 vsl 15 128 0 127 0 0 empty empty empty 0 -8 0 8 -262144
-1 -1 4167 1;
#X obj 425 263 vsl 15 128 0 127 0 0 empty empty empty 0 -8 0 8 -262144
-1 -1 4000 1;
#X obj 443 263 vsl 15 128 0 127 0 0 empty empty empty 0 -8 0 8 -262144
-1 -1 3833 1;
#X obj 461 263 vsl 15 128 0 127 0 0 empty empty empty 0 -8 0 8 -262144
-1 -1 3667 1;
#X obj 479 263 vsl 15 128 0 127 0 0 empty empty empty 0 -8 0 8 -262144
-1 -1 3500 1;
#X obj 371 263 vsl 15 128 0 127 0 0 empty empty empty 0 -8 0 8 -262144
-1 -1 4500 1;
#X obj 19 45 metro 10;
#X obj 19 20 loadbang;
#X text 148 372 move the first slider ->;
#X text 580 378 <- or the last one;
#X text 278 21 This is the first exemple of physical modeling;
#X text 278 43 this is an elastic string;
#X obj 497 263 vsl 15 128 0 127 0 0 empty empty empty 0 -8 0 8 -262144
-1 -1 3333 1;
#X obj 536 263 vsl 15 128 0 127 0 0 empty empty empty 0 -8 0 8 -262144
-1 -1 0 1;
#X obj 19 72 t b b;
#X obj 54 97 s \$0-link;
#X obj 19 123 s \$0-mass;
#X text 168 105 <- metronome send bangs to mass and link and gives
the general computation speed;
#X text 145 419 all the slider are "link" together with a link. slider
got a mass so they have inertial.;
#X obj 13 206 link \$0-link 0 1 1;
#X text 145 461 You can see the propagation of a wave \, and physical
properties of a kind of elastic string.;
#X text 170 142 masss and link has to be compute one after the other.
;
#X obj 518 262 vsl 15 128 0 127 0 0 empty empty empty 0 -8 0 8 -262144
-1 -1 3167 1;
#X obj 753 181 mass \$0-mass 300;
#X obj 161 206 link \$0-link 0 1 3;
#X obj 310 206 link \$0-link 0 1 3;
#X obj 459 206 link \$0-link 0 1 3;
#X obj 609 206 link \$0-link 0 1 3;
#X obj 757 206 link \$0-link 0 1 3;
#X obj 906 206 link \$0-link 0 1 3;
#X obj 156 182 mass \$0-mass 100;
#X obj 304 181 mass \$0-mass 100;
#X obj 454 182 mass \$0-mass 100;
#X obj 605 182 mass \$0-mass 100;
#X obj 904 181 mass \$0-mass 100;
#X obj 1051 181 mass \$0-mass 100;
#X obj 1199 181 mass \$0-mass 100;
#X obj 1055 206 link \$0-link 0 1 3;
#X obj 1203 206 link \$0-link 0 1 3;
#X obj 240 590 outlet;
#X obj 296 590 outlet;
#X obj 351 590 outlet;
#X obj 407 589 outlet;
#X obj 464 587 outlet;
#X obj 518 588 outlet;
#X obj 574 588 outlet;
#X obj 636 589 outlet;
#X obj 184 56 inlet;
#X floatatom 710 279 5 0 0 0 - - -;
#X obj 247 525 + 127;
#X obj 294 525 + 127;
#X obj 352 524 + 127;
#X obj 407 523 + 127;
#X obj 461 525 + 127;
#X obj 523 523 + 127;
#X obj 576 521 + 127;
#X obj 636 526 + 127;
#X obj 244 557 / 500;
#X obj 295 558 / 500;
#X obj 352 562 / 500;
#X obj 407 562 / 500;
#X obj 462 558 / 500;
#X obj 522 560 / 500;
#X obj 572 557 / 500;
#X obj 635 560 / 500;
#X msg 697 542 300;
#X msg 659 432 0;
#X msg 562 92 setD 5;
#X obj 132 84 * 1.5;
#X obj 794 58 inlet;
#X text 840 59 offset;
#X msg 921 121 setM \$1;
#X msg 1003 120 setM \$1;
#X obj 949 25 loadbang;
#X obj 1048 25 bng 15 250 50 0 empty empty empty 17 7 0 10 -262144
-1 -1;
#X obj 921 68 random 250;
#X obj 1003 67 random 250;
#X obj 921 96 + 100;
#X obj 1003 95 + 100;
#X obj 1130 86 / 2;
#X obj 1130 111 + 1;
#X msg 1130 136 setD \$1;
#X obj 1130 60 random 10;
#X obj 1217 86 / 2;
#X obj 1217 111 + 1;
#X msg 1217 136 setD \$1;
#X obj 1217 60 random 10;
#X connect 6 0 20 0;
#X connect 7 0 15 0;
#X connect 8 0 7 0;
#X connect 14 0 39 1;
#X connect 15 0 17 0;
#X connect 15 1 16 0;
#X connect 20 1 31 0;
#X connect 24 0 4 0;
#X connect 24 0 28 1;
#X connect 24 0 29 0;
#X connect 24 0 54 0;
#X connect 25 0 31 0;
#X connect 25 1 32 0;
#X connect 26 0 32 0;
#X connect 26 1 33 0;
#X connect 27 0 33 0;
#X connect 27 1 34 0;
#X connect 28 0 34 0;
#X connect 28 1 24 0;
#X connect 29 0 24 0;
#X connect 29 1 35 0;
#X connect 30 0 35 0;
#X connect 30 1 36 0;
#X connect 31 0 0 0;
#X connect 31 0 20 1;
#X connect 31 0 25 0;
#X connect 31 0 50 0;
#X connect 32 0 1 0;
#X connect 32 0 25 1;
#X connect 32 0 26 0;
#X connect 32 0 51 0;
#X connect 33 0 2 0;
#X connect 33 0 26 1;
#X connect 33 0 27 0;
#X connect 33 0 52 0;
#X connect 34 0 3 0;
#X connect 34 0 27 1;
#X connect 34 0 28 0;
#X connect 34 0 53 0;
#X connect 35 0 5 0;
#X connect 35 0 29 1;
#X connect 35 0 30 0;
#X connect 35 0 55 0;
#X connect 36 0 13 0;
#X connect 36 0 30 1;
#X connect 36 0 38 0;
#X connect 36 0 56 0;
#X connect 37 0 23 0;
#X connect 37 0 38 1;
#X connect 37 0 39 0;
#X connect 37 0 57 0;
#X connect 38 0 36 0;
#X connect 38 1 37 0;
#X connect 39 0 37 0;
#X connect 48 0 69 0;
#X connect 48 0 39 1;
#X connect 50 0 58 0;
#X connect 51 0 59 0;
#X connect 52 0 60 0;
#X connect 53 0 61 0;
#X connect 54 0 62 0;
#X connect 55 0 63 0;
#X connect 56 0 64 0;
#X connect 57 0 65 0;
#X connect 58 0 40 0;
#X connect 59 0 41 0;
#X connect 60 0 42 0;
#X connect 61 0 43 0;
#X connect 62 0 44 0;
#X connect 63 0 45 0;
#X connect 64 0 46 0;
#X connect 65 0 47 0;
#X connect 66 0 65 1;
#X connect 66 0 64 1;
#X connect 66 0 63 1;
#X connect 66 0 62 1;
#X connect 66 0 61 1;
#X connect 66 0 60 1;
#X connect 66 0 59 1;
#X connect 66 0 58 1;
#X connect 67 0 57 1;
#X connect 67 0 56 1;
#X connect 67 0 54 1;
#X connect 67 0 53 1;
#X connect 67 0 52 1;
#X connect 67 0 51 1;
#X connect 67 0 50 1;
#X connect 67 0 55 1;
#X connect 68 0 25 0;
#X connect 68 0 26 0;
#X connect 68 0 27 0;
#X connect 68 0 28 0;
#X connect 68 0 29 0;
#X connect 68 0 30 0;
#X connect 68 0 38 0;
#X connect 68 0 39 0;
#X connect 69 0 6 0;
#X connect 70 0 50 1;
#X connect 70 0 51 1;
#X connect 70 0 52 1;
#X connect 70 0 53 1;
#X connect 70 0 54 1;
#X connect 70 0 55 1;
#X connect 70 0 56 1;
#X connect 70 0 57 1;
#X connect 72 0 33 0;
#X connect 72 0 36 0;
#X connect 73 0 24 0;
#X connect 74 0 76 0;
#X connect 74 0 77 0;
#X connect 74 0 83 0;
#X connect 74 0 87 0;
#X connect 75 0 76 0;
#X connect 75 0 77 0;
#X connect 75 0 83 0;
#X connect 75 0 87 0;
#X connect 76 0 78 0;
#X connect 77 0 79 0;
#X connect 78 0 72 0;
#X connect 79 0 73 0;
#X connect 80 0 81 0;
#X connect 81 0 82 0;
#X connect 82 0 25 0;
#X connect 83 0 80 0;
#X connect 84 0 85 0;
#X connect 85 0 86 0;
#X connect 86 0 29 0;
#X connect 87 0 84 0;
